NimbusRomNo9L-ReguItal.ufo
<glyph name="numbersign" format="1">
  <advance width="500"/>
  <unicode hex="0023"/>
  <outline>
    <contour>
      <point x="465" y="267" type="line"/>
      <point x="370" y="267" type="line"/>
      <point x="424" y="410" type="line"/>
      <point x="529" y="410" type="line"/>
      <point x="540" y="464" type="line"/>
      <point x="444" y="464" type="line"/>
      <point x="524" y="676" type="line"/>
      <point x="463" y="676" type="line"/>
      <point x="383" y="464" type="line"/>
      <point x="253" y="464" type="line"/>
      <point x="333" y="676" type="line"/>
      <point x="272" y="676" type="line"/>
      <point x="192" y="464" type="line"/>
      <point x="87" y="464" type="line"/>
      <point x="76" y="410" type="line"/>
      <point x="172" y="410" type="line"/>
      <point x="118" y="267" type="line"/>
      <point x="13" y="267" type="line"/>
      <point x="2" y="213" type="line"/>
      <point x="97" y="213" type="line"/>
      <point x="17" y="0" type="line"/>
      <point x="79" y="0" type="line"/>
      <point x="158" y="213" type="line"/>
      <point x="288" y="213" type="line"/>
      <point x="208" y="0" type="line"/>
      <point x="270" y="0" type="line"/>
      <point x="349" y="213" type="line"/>
      <point x="454" y="213" type="line"/>
    </contour>
    <contour>
      <point x="363" y="410" type="line"/>
      <point x="309" y="267" type="line"/>
      <point x="179" y="267" type="line"/>
      <point x="233" y="410" type="line"/>
    </contour>
  </outline>
</glyph>
<glyph name="percent" format="1">
  <advance width="833"/>
  <unicode hex="0025"/>
  <outline>
    <contour>
      <point x="683" y="371" type="curve" smooth="yes"/>
      <point x="577" y="371"/>
      <point x="468" y="252"/>
      <point x="468" y="136" type="curve" smooth="yes"/>
      <point x="468" y="50"/>
      <point x="512" y="0"/>
      <point x="588" y="0" type="curve" smooth="yes"/>
      <point x="632" y="0"/>
      <point x="672" y="18"/>
      <point x="704" y="51" type="curve" smooth="yes"/>
      <point x="758" y="108"/>
      <point x="790" y="187"/>
      <point x="790" y="263" type="curve" smooth="yes"/>
      <point x="790" y="330"/>
      <point x="750" y="371"/>
    </contour>
    <contour>
      <point x="694" y="339" type="curve" smooth="yes"/>
      <point x="733" y="339"/>
      <point x="765" y="303"/>
      <point x="765" y="259" type="curve" smooth="yes"/>
      <point x="765" y="196"/>
      <point x="733" y="119"/>
      <point x="685" y="68" type="curve" smooth="yes"/>
      <point x="663" y="44"/>
      <point x="634" y="30"/>
      <point x="605" y="30" type="curve" smooth="yes"/>
      <point x="564" y="30"/>
      <point x="544" y="54"/>
      <point x="544" y="101" type="curve" smooth="yes"/>
      <point x="544" y="149"/>
      <point x="573" y="232"/>
      <point x="607" y="280" type="curve" smooth="yes"/>
      <point x="634" y="320"/>
      <point x="662" y="339"/>
    </contour>
    <contour>
      <point x="653" y="676" type="line"/>
      <point x="613" y="676" type="line"/>
      <point x="563" y="627"/>
      <point x="519" y="608"/>
      <point x="452" y="608" type="curve" smooth="yes"/>
      <point x="420" y="608"/>
      <point x="395" y="614"/>
      <point x="383" y="625" type="curve" smooth="yes"/>
      <point x="365" y="641" type="line" smooth="yes"/>
      <point x="351" y="653"/>
      <point x="323" y="662"/>
      <point x="297" y="662" type="curve" smooth="yes"/>
      <point x="187" y="662"/>
      <point x="79" y="542"/>
      <point x="79" y="419" type="curve" smooth="yes"/>
      <point x="79" y="346"/>
      <point x="131" y="289"/>
      <point x="198" y="289" type="curve" smooth="yes"/>
      <point x="249" y="289"/>
      <point x="297" y="315"/>
      <point x="335" y="363" type="curve" smooth="yes"/>
      <point x="374" y="413"/>
      <point x="403" y="489"/>
      <point x="403" y="541" type="curve" smooth="yes"/>
      <point x="403" y="554"/>
      <point x="401" y="570"/>
      <point x="397" y="587" type="curve"/>
      <point x="397" y="590"/>
      <point x="397" y="590"/>
      <point x="396" y="593" type="curve"/>
      <point x="416" y="585"/>
      <point x="431" y="583"/>
      <point x="458" y="583" type="curve" smooth="yes"/>
      <point x="504" y="583"/>
      <point x="528" y="590"/>
      <point x="570" y="613" type="curve"/>
      <point x="220" y="-13" type="line"/>
      <point x="267" y="-13" type="line"/>
    </contour>
    <contour>
      <point x="368" y="600" type="curve"/>
      <point x="375" y="578"/>
      <point x="377" y="565"/>
      <point x="377" y="549" type="curve" smooth="yes"/>
      <point x="377" y="436"/>
      <point x="296" y="323"/>
      <point x="214" y="323" type="curve" smooth="yes"/>
      <point x="178" y="323"/>
      <point x="155" y="347"/>
      <point x="155" y="386" type="curve" smooth="yes"/>
      <point x="155" y="493"/>
      <point x="238" y="632"/>
      <point x="301" y="632" type="curve" smooth="yes"/>
      <point x="305" y="632"/>
      <point x="309" y="630"/>
      <point x="316" y="624" type="curve" smooth="yes"/>
      <point x="332" y="611"/>
      <point x="341" y="607"/>
    </contour>
  </outline>
</glyph>
<glyph name="quotesingle" format="1">
  <advance width="214"/>
  <unicode hex="0027"/>
  <outline>
    <contour>
      <point x="153" y="421" type="line"/>
      <point x="210" y="545"/>
      <point x="241" y="621"/>
      <point x="241" y="637" type="curve" smooth="yes"/>
      <point x="241" y="653"/>
      <point x="227" y="666"/>
      <point x="209" y="666" type="curve" smooth="yes"/>
      <point x="185" y="666"/>
      <point x="160" y="647"/>
      <point x="155" y="625" type="curve" smooth="yes"/>
      <point x="149" y="600"/>
      <point x="140" y="523"/>
      <point x="132" y="421" type="curve"/>
    </contour>
  </outline>
</glyph>
<glyph name="asterisk" format="1">
  <advance width="500"/>
  <unicode hex="002A"/>
  <outline>
    <contour>
      <point x="319" y="500" type="line" smooth="yes"/>
      <point x="319" y="522"/>
      <point x="323" y="543"/>
      <point x="335" y="577" type="curve" smooth="yes"/>
      <point x="343" y="603"/>
      <point x="346" y="616"/>
      <point x="346" y="627" type="curve" smooth="yes"/>
      <point x="346" y="650"/>
      <point x="331" y="666"/>
      <point x="310" y="666" type="curve" smooth="yes"/>
      <point x="288" y="666"/>
      <point x="275" y="651"/>
      <point x="275" y="626" type="curve" smooth="yes"/>
      <point x="275" y="617"/>
      <point x="277" y="608"/>
      <point x="284" y="587" type="curve" smooth="yes"/>
      <point x="297" y="542"/>
      <point x="301" y="519"/>
      <point x="301" y="476" type="curve"/>
      <point x="262" y="498"/>
      <point x="242" y="515"/>
      <point x="210" y="551" type="curve" smooth="yes"/>
      <point x="190" y="574"/>
      <point x="179" y="581"/>
      <point x="163" y="581" type="curve" smooth="yes"/>
      <point x="143" y="581"/>
      <point x="128" y="566"/>
      <point x="128" y="546" type="curve" smooth="yes"/>
      <point x="128" y="519"/>
      <point x="143" y="508"/>
      <point x="189" y="500" type="curve" smooth="yes"/>
      <point x="226" y="493"/>
      <point x="258" y="483"/>
      <point x="282" y="468" type="curve" smooth="yes"/>
      <point x="294" y="461" type="line"/>
      <point x="251" y="435"/>
      <point x="233" y="428"/>
      <point x="187" y="420" type="curve" smooth="yes"/>
      <point x="145" y="413"/>
      <point x="128" y="400"/>
      <point x="128" y="377" type="curve" smooth="yes"/>
      <point x="128" y="357"/>
      <point x="144" y="340"/>
      <point x="163" y="340" type="curve" smooth="yes"/>
      <point x="180" y="340"/>
      <point x="197" y="351"/>
      <point x="213" y="371" type="curve" smooth="yes"/>
      <point x="240" y="405"/>
      <point x="254" y="417"/>
      <point x="285" y="436" type="curve" smooth="yes"/>
      <point x="294" y="441"/>
      <point x="297" y="443"/>
      <point x="300" y="446" type="curve"/>
      <point x="302" y="429"/>
      <point x="302" y="422"/>
      <point x="302" y="417" type="curve" smooth="yes"/>
      <point x="302" y="395"/>
      <point x="297" y="371"/>
      <point x="283" y="334" type="curve" smooth="yes"/>
      <point x="276" y="314"/>
      <point x="273" y="302"/>
      <point x="273" y="293" type="curve" smooth="yes"/>
      <point x="273" y="271"/>
      <point x="288" y="255"/>
      <point x="308" y="255" type="curve" smooth="yes"/>
      <point x="331" y="255"/>
      <point x="347" y="272"/>
      <point x="347" y="295" type="curve" smooth="yes"/>
      <point x="347" y="303"/>
      <point x="345" y="311"/>
      <point x="339" y="329" type="curve" smooth="yes"/>
      <point x="324" y="371"/>
      <point x="320" y="393"/>
      <point x="319" y="446" type="curve"/>
      <point x="326" y="442" type="line" smooth="yes"/>
      <point x="359" y="423"/>
      <point x="382" y="403"/>
      <point x="408" y="371" type="curve" smooth="yes"/>
      <point x="427" y="347"/>
      <point x="439" y="339"/>
      <point x="454" y="339" type="curve" smooth="yes"/>
      <point x="475" y="339"/>
      <point x="492" y="356"/>
      <point x="492" y="378" type="curve" smooth="yes"/>
      <point x="492" y="401"/>
      <point x="475" y="413"/>
      <point x="431" y="420" type="curve" smooth="yes"/>
      <point x="403" y="425"/>
      <point x="380" y="432"/>
      <point x="365" y="440" type="curve" smooth="yes"/>
      <point x="328" y="459" type="line"/>
      <point x="371" y="486"/>
      <point x="388" y="493"/>
      <point x="435" y="501" type="curve" smooth="yes"/>
      <point x="477" y="508"/>
      <point x="492" y="519"/>
      <point x="492" y="545" type="curve" smooth="yes"/>
      <point x="492" y="567"/>
      <point x="476" y="582"/>
      <point x="454" y="582" type="curve" smooth="yes"/>
      <point x="441" y="582"/>
      <point x="433" y="578"/>
      <point x="418" y="561" type="curve" smooth="yes"/>
      <point x="367" y="506"/>
      <point x="362" y="502"/>
      <point x="319" y="473" type="curve"/>
    </contour>
  </outline>
</glyph>
<glyph name="plus" format="1">
  <advance width="675"/>
  <unicode hex="002B"/>
  <outline>
    <contour>
      <point x="305" y="286" type="line"/>
      <point x="86" y="286" type="line"/>
      <point x="86" y="220" type="line"/>
      <point x="305" y="220" type="line"/>
      <point x="305" y="0" type="line"/>
      <point x="371" y="0" type="line"/>
      <point x="371" y="220" type="line"/>
      <point x="590" y="220" type="line"/>
      <point x="590" y="286" type="line"/>
      <point x="371" y="286" type="line"/>
      <point x="371" y="506" type="line"/>
      <point x="305" y="506" type="line"/>
    </contour>
  </outline>
</glyph>
<glyph name="hyphen" format="1">
  <advance width="333"/>
  <unicode hex="002D"/>
  <outline>
    <contour>
      <point x="282" y="255" type="line"/>
      <point x="63" y="255" type="line"/>
      <point x="49" y="192" type="line"/>
      <point x="269" y="192" type="line"/>
    </contour>
  </outline>
</glyph>
<glyph name="period" format="1">
  <advance width="250"/>
  <unicode hex="002E"/>
  <outline>
    <contour>
      <point x="82" y="100" type="curve" smooth="yes"/>
      <point x="52" y="100"/>
      <point x="27" y="74"/>
      <point x="27" y="43" type="curve" smooth="yes"/>
      <point x="27" y="14"/>
      <point x="52" y="-11"/>
      <point x="80" y="-11" type="curve" smooth="yes"/>
      <point x="112" y="-11"/>
      <point x="138" y="13"/>
      <point x="138" y="43" type="curve" smooth="yes"/>
      <point x="138" y="74"/>
      <point x="112" y="100"/>
    </contour>
  </outline>
</glyph>
<glyph name="slash" format="1">
  <advance width="278"/>
  <unicode hex="002F"/>
  <outline>
    <contour>
      <point x="313" y="666" type="line"/>
      <point x="-65" y="-18" type="line"/>
      <point x="8" y="-18" type="line"/>
      <point x="386" y="666" type="line"/>
    </contour>
  </outline>
</glyph>
<glyph name="zero" format="1">
  <advance width="500"/>
  <unicode hex="0030"/>
  <outline>
    <contour>
      <point x="341" y="676" type="curve" smooth="yes"/>
      <point x="184" y="676"/>
      <point x="32" y="448"/>
      <point x="32" y="213" type="curve" smooth="yes"/>
      <point x="32" y="81"/>
      <point x="96" y="-7"/>
      <point x="193" y="-7" type="curve" smooth="yes"/>
      <point x="236" y="-7"/>
      <point x="278" y="8"/>
      <point x="320" y="39" type="curve" smooth="yes"/>
      <point x="420" y="113"/>
      <point x="497" y="279"/>
      <point x="497" y="423" type="curve" smooth="yes"/>
      <point x="497" y="581"/>
      <point x="438" y="676"/>
    </contour>
    <contour>
      <point x="334" y="648" type="curve" smooth="yes"/>
      <point x="388" y="648"/>
      <point x="418" y="602"/>
      <point x="418" y="522" type="curve" smooth="yes"/>
      <point x="418" y="388"/>
      <point x="378" y="223"/>
      <point x="321" y="121" type="curve" smooth="yes"/>
      <point x="283" y="55"/>
      <point x="242" y="21"/>
      <point x="197" y="21" type="curve" smooth="yes"/>
      <point x="143" y="21"/>
      <point x="111" y="71"/>
      <point x="111" y="156" type="curve" smooth="yes"/>
      <point x="111" y="262"/>
      <point x="163" y="461"/>
      <point x="215" y="553" type="curve" smooth="yes"/>
      <point x="251" y="617"/>
      <point x="290" y="648"/>
    </contour>
  </outline>
</glyph>
<glyph name="one" format="1">
  <advance width="500"/>
  <unicode hex="0031"/>
  <outline>
    <contour>
      <point x="49" y="0" type="line"/>
      <point x="328" y="0" type="line"/>
      <point x="328" y="15" type="line"/>
      <point x="312" y="15" type="line" smooth="yes"/>
      <point x="263" y="15"/>
      <point x="242" y="25"/>
      <point x="242" y="47" type="curve" smooth="yes"/>
      <point x="242" y="56"/>
      <point x="246" y="74"/>
      <point x="254" y="99" type="curve"/>
      <point x="256" y="107"/>
      <point x="258" y="113"/>
      <point x="259" y="116" type="curve"/>
      <point x="260" y="121" type="line"/>
      <point x="403" y="640" type="line" smooth="yes"/>
      <point x="407" y="655"/>
      <point x="409" y="664"/>
      <point x="409" y="669" type="curve" smooth="yes"/>
      <point x="409" y="673"/>
      <point x="407" y="676"/>
      <point x="404" y="676" type="curve"/>
      <point x="404" y="676"/>
      <point x="402" y="676"/>
      <point x="401" y="675" type="curve"/>
      <point x="322" y="660" type="line"/>
      <point x="232" y="642" type="line"/>
      <point x="230" y="642"/>
      <point x="222" y="640"/>
      <point x="211" y="638" type="curve"/>
      <point x="211" y="623" type="line"/>
      <point x="268" y="625" type="line" smooth="yes"/>
      <point x="291" y="626"/>
      <point x="306" y="614"/>
      <point x="306" y="594" type="curve" smooth="yes"/>
      <point x="306" y="588"/>
      <point x="304" y="578"/>
      <point x="299" y="560" type="curve" smooth="yes"/>
      <point x="161" y="68" type="line" smooth="yes"/>
      <point x="149" y="31"/>
      <point x="128" y="21"/>
      <point x="49" y="14" type="curve"/>
    </contour>
  </outline>
</glyph>
<glyph name="two" format="1">
  <advance width="500"/>
  <unicode hex="0032"/>
  <outline>
    <contour>
      <point x="400" y="139" type="line"/>
      <point x="376" y="89"/>
      <point x="355" y="76"/>
      <point x="301" y="76" type="curve" smooth="yes"/>
      <point x="111" y="76" type="line"/>
      <point x="111" y="81" type="line"/>
      <point x="303" y="273" type="line" smooth="yes"/>
      <point x="420" y="390"/>
      <point x="452" y="440"/>
      <point x="452" y="506" type="curve" smooth="yes"/>
      <point x="452" y="602"/>
      <point x="381" y="676"/>
      <point x="290" y="676" type="curve" smooth="yes"/>
      <point x="255" y="676"/>
      <point x="217" y="666"/>
      <point x="187" y="650" type="curve" smooth="yes"/>
      <point x="136" y="622"/>
      <point x="109" y="588"/>
      <point x="80" y="516" type="curve"/>
      <point x="101" y="509" type="line"/>
      <point x="138" y="574"/>
      <point x="181" y="603"/>
      <point x="241" y="603" type="curve" smooth="yes"/>
      <point x="312" y="603"/>
      <point x="366" y="551"/>
      <point x="366" y="481" type="curve" smooth="yes"/>
      <point x="366" y="460"/>
      <point x="363" y="441"/>
      <point x="357" y="428" type="curve" smooth="yes"/>
      <point x="333" y="374"/>
      <point x="288" y="311"/>
      <point x="222" y="241" type="curve" smooth="yes"/>
      <point x="12" y="17" type="line"/>
      <point x="12" y="0" type="line"/>
      <point x="367" y="0" type="line"/>
      <point x="417" y="132" type="line"/>
    </contour>
  </outline>
</glyph>
<glyph name="three" format="1">
  <advance width="500"/>
  <unicode hex="0033"/>
  <outline>
    <contour>
      <point x="178" y="567" type="line"/>
      <point x="213" y="613"/>
      <point x="248" y="634"/>
      <point x="290" y="634" type="curve" smooth="yes"/>
      <point x="343" y="634"/>
      <point x="379" y="597"/>
      <point x="379" y="543" type="curve" smooth="yes"/>
      <point x="379" y="501"/>
      <point x="358" y="465"/>
      <point x="314" y="436" type="curve" smooth="yes"/>
      <point x="272" y="407"/>
      <point x="229" y="392"/>
      <point x="140" y="377" type="curve"/>
      <point x="140" y="361" type="line"/>
      <point x="193" y="361"/>
      <point x="206" y="360"/>
      <point x="232" y="350" type="curve" smooth="yes"/>
      <point x="293" y="329"/>
      <point x="326" y="274"/>
      <point x="326" y="195" type="curve" smooth="yes"/>
      <point x="326" y="159"/>
      <point x="318" y="123"/>
      <point x="304" y="99" type="curve" smooth="yes"/>
      <point x="281" y="59"/>
      <point x="235" y="31"/>
      <point x="195" y="31" type="curve" smooth="yes"/>
      <point x="176" y="31"/>
      <point x="153" y="41"/>
      <point x="123" y="63" type="curve" smooth="yes"/>
      <point x="94" y="84"/>
      <point x="78" y="91"/>
      <point x="59" y="91" type="curve" smooth="yes"/>
      <point x="31" y="91"/>
      <point x="15" y="77"/>
      <point x="15" y="52" type="curve" smooth="yes"/>
      <point x="15" y="14"/>
      <point x="56" y="-7"/>
      <point x="127" y="-7" type="curve" smooth="yes"/>
      <point x="184" y="-7"/>
      <point x="234" y="5"/>
      <point x="277" y="30" type="curve" smooth="yes"/>
      <point x="356" y="76"/>
      <point x="406" y="160"/>
      <point x="406" y="249" type="curve" smooth="yes"/>
      <point x="406" y="321"/>
      <point x="377" y="367"/>
      <point x="310" y="398" type="curve"/>
      <point x="310" y="401" type="line"/>
      <point x="431" y="448"/>
      <point x="466" y="481"/>
      <point x="466" y="549" type="curve" smooth="yes"/>
      <point x="466" y="622"/>
      <point x="406" y="676"/>
      <point x="326" y="676" type="curve" smooth="yes"/>
      <point x="257" y="676"/>
      <point x="195" y="636"/>
      <point x="162" y="572" type="curve"/>
    </contour>
  </outline>
</glyph>
<glyph name="four" format="1">
  <advance width="500"/>
  <unicode hex="0034"/>
  <outline>
    <contour>
      <point x="453" y="241" type="line"/>
      <point x="358" y="241" type="line"/>
      <point x="479" y="676" type="line"/>
      <point x="438" y="676" type="line"/>
      <point x="21" y="245" type="line"/>
      <point x="1" y="178" type="line"/>
      <point x="263" y="178" type="line"/>
      <point x="214" y="0" type="line"/>
      <point x="293" y="0" type="line"/>
      <point x="339" y="176" type="line"/>
      <point x="439" y="176" type="line"/>
    </contour>
    <contour>
      <point x="277" y="241" type="line"/>
      <point x="65" y="241" type="line"/>
      <point x="65" y="245" type="line"/>
      <point x="369" y="563" type="line"/>
      <point x="373" y="563" type="line"/>
    </contour>
  </outline>
</glyph>
<glyph name="five" format="1">
  <advance width="500"/>
  <unicode hex="0035"/>
  <outline>
    <contour>
      <point x="238" y="595" type="line"/>
      <point x="468" y="595" type="line"/>
      <point x="491" y="666" type="line"/>
      <point x="235" y="666" type="line"/>
      <point x="131" y="448" type="line"/>
      <point x="131" y="433" type="line"/>
      <point x="228" y="412"/>
      <point x="261" y="400"/>
      <point x="297" y="371" type="curve" smooth="yes"/>
      <point x="329" y="345"/>
      <point x="350" y="295"/>
      <point x="350" y="242" type="curve" smooth="yes"/>
      <point x="350" y="133"/>
      <point x="269" y="35"/>
      <point x="179" y="35" type="curve" smooth="yes"/>
      <point x="158" y="35"/>
      <point x="140" y="43"/>
      <point x="111" y="64" type="curve" smooth="yes"/>
      <point x="86" y="83"/>
      <point x="71" y="90"/>
      <point x="56" y="90" type="curve" smooth="yes"/>
      <point x="32" y="90"/>
      <point x="15" y="74"/>
      <point x="15" y="50" type="curve" smooth="yes"/>
      <point x="15" y="15"/>
      <point x="55" y="-7"/>
      <point x="121" y="-7" type="curve" smooth="yes"/>
      <point x="286" y="-7"/>
      <point x="419" y="121"/>
      <point x="419" y="280" type="curve" smooth="yes"/>
      <point x="419" y="342"/>
      <point x="396" y="395"/>
      <point x="353" y="436" type="curve" smooth="yes"/>
      <point x="316" y="471"/>
      <point x="280" y="487"/>
      <point x="199" y="507" type="curve"/>
    </contour>
  </outline>
</glyph>
<glyph name="six" format="1">
  <advance width="500"/>
  <unicode hex="0036"/>
  <outline>
    <contour>
      <point x="521" y="686" type="line"/>
      <point x="387" y="671"/>
      <point x="320" y="646"/>
      <point x="234" y="583" type="curve" smooth="yes"/>
      <point x="107" y="489"/>
      <point x="30" y="347"/>
      <point x="30" y="204" type="curve" smooth="yes"/>
      <point x="30" y="76"/>
      <point x="102" y="-7"/>
      <point x="213" y="-7" type="curve" smooth="yes"/>
      <point x="348" y="-7"/>
      <point x="462" y="120"/>
      <point x="462" y="271" type="curve" smooth="yes"/>
      <point x="462" y="373"/>
      <point x="391" y="447"/>
      <point x="292" y="447" type="curve" smooth="yes"/>
      <point x="264" y="447"/>
      <point x="231" y="439"/>
      <point x="203" y="426" type="curve"/>
      <point x="199" y="428" type="line"/>
      <point x="269" y="555"/>
      <point x="403" y="656"/>
      <point x="521" y="670" type="curve"/>
    </contour>
    <contour>
      <point x="259" y="411" type="curve" smooth="yes"/>
      <point x="329" y="411"/>
      <point x="373" y="361"/>
      <point x="373" y="284" type="curve" smooth="yes"/>
      <point x="373" y="216"/>
      <point x="349" y="137"/>
      <point x="312" y="85" type="curve" smooth="yes"/>
      <point x="281" y="40"/>
      <point x="246" y="19"/>
      <point x="203" y="19" type="curve" smooth="yes"/>
      <point x="142" y="19"/>
      <point x="106" y="68"/>
      <point x="106" y="150" type="curve" smooth="yes"/>
      <point x="106" y="217"/>
      <point x="126" y="301"/>
      <point x="152" y="345" type="curve" smooth="yes"/>
      <point x="180" y="391"/>
      <point x="212" y="411"/>
    </contour>
  </outline>
</glyph>
<glyph name="eight" format="1">
  <advance width="500"/>
  <unicode hex="0038"/>
  <outline>
    <contour>
      <point x="329" y="382" type="curve"/>
      <point x="447" y="421"/>
      <point x="493" y="464"/>
      <point x="493" y="535" type="curve" smooth="yes"/>
      <point x="493" y="617"/>
      <point x="420" y="676"/>
      <point x="318" y="676" type="curve" smooth="yes"/>
      <point x="211" y="676"/>
      <point x="138" y="615"/>
      <point x="138" y="526" type="curve" smooth="yes"/>
      <point x="138" y="472"/>
      <point x="159" y="433"/>
      <point x="225" y="360" type="curve"/>
      <point x="99" y="319"/>
      <point x="30" y="249"/>
      <point x="30" y="161" type="curve" smooth="yes"/>
      <point x="30" y="134"/>
      <point x="38" y="104"/>
      <point x="53" y="79" type="curve" smooth="yes"/>
      <point x="86" y="22"/>
      <point x="146" y="-7"/>
      <point x="229" y="-7" type="curve" smooth="yes"/>
      <point x="352" y="-7"/>
      <point x="444" y="70"/>
      <point x="444" y="173" type="curve" smooth="yes"/>
      <point x="444" y="240"/>
      <point x="414" y="294"/>
    </contour>
    <contour>
      <point x="247" y="344" type="curve"/>
      <point x="357" y="229"/>
      <point x="369" y="211"/>
      <point x="369" y="155" type="curve" smooth="yes"/>
      <point x="369" y="74"/>
      <point x="311" y="15"/>
      <point x="233" y="15" type="curve" smooth="yes"/>
      <point x="154" y="15"/>
      <point x="98" y="74"/>
      <point x="98" y="155" type="curve" smooth="yes"/>
      <point x="98" y="230"/>
      <point x="148" y="300"/>
      <point x="225" y="335" type="curve" smooth="yes"/>
      <point x="229" y="337"/>
      <point x="229" y="337"/>
    </contour>
    <contour>
      <point x="311" y="399" type="line"/>
      <point x="233" y="472"/>
      <point x="216" y="498"/>
      <point x="216" y="540" type="curve" smooth="yes"/>
      <point x="216" y="610"/>
      <point x="255" y="653"/>
      <point x="318" y="653" type="curve" smooth="yes"/>
      <point x="382" y="653"/>
      <point x="425" y="605"/>
      <point x="425" y="535" type="curve" smooth="yes"/>
      <point x="425" y="482"/>
      <point x="400" y="444"/>
      <point x="344" y="415" type="curve" smooth="yes"/>
    </contour>
  </outline>
</glyph>
<glyph name="nine" format="1">
  <advance width="500"/>
  <unicode hex="0039"/>
  <outline>
    <contour>
      <point x="23" y="-17" type="line"/>
      <point x="158" y="6"/>
      <point x="225" y="33"/>
      <point x="308" y="98" type="curve" smooth="yes"/>
      <point x="424" y="189"/>
      <point x="492" y="323"/>
      <point x="492" y="458" type="curve" smooth="yes"/>
      <point x="492" y="589"/>
      <point x="420" y="676"/>
      <point x="311" y="676" type="curve" smooth="yes"/>
      <point x="185" y="676"/>
      <point x="69" y="548"/>
      <point x="69" y="408" type="curve" smooth="yes"/>
      <point x="69" y="304"/>
      <point x="131" y="229"/>
      <point x="219" y="229" type="curve" smooth="yes"/>
      <point x="260" y="229"/>
      <point x="296" y="241"/>
      <point x="348" y="274" type="curve"/>
      <point x="352" y="272" type="line"/>
      <point x="336" y="227"/>
      <point x="286" y="162"/>
      <point x="224" y="105" type="curve" smooth="yes"/>
      <point x="152" y="44"/>
      <point x="102" y="18"/>
      <point x="23" y="1" type="curve"/>
    </contour>
    <contour>
      <point x="318" y="650" type="curve" smooth="yes"/>
      <point x="380" y="650"/>
      <point x="417" y="601"/>
      <point x="417" y="518" type="curve" smooth="yes"/>
      <point x="417" y="440"/>
      <point x="392" y="347"/>
      <point x="362" y="318" type="curve" smooth="yes"/>
      <point x="336" y="292"/>
      <point x="295" y="275"/>
      <point x="257" y="275" type="curve" smooth="yes"/>
      <point x="194" y="275"/>
      <point x="157" y="326"/>
      <point x="157" y="414" type="curve" smooth="yes"/>
      <point x="157" y="488"/>
      <point x="186" y="568"/>
      <point x="229" y="612" type="curve" smooth="yes"/>
      <point x="253" y="637"/>
      <point x="284" y="650"/>
    </contour>
  </outline>
</glyph>
<glyph name="semicolon" format="1">
  <advance width="333"/>
  <unicode hex="003B"/>
  <outline>
    <contour>
      <point x="36" y="-129" type="line"/>
      <point x="120" y="-82"/>
      <point x="166" y="-26"/>
      <point x="166" y="30" type="curve" smooth="yes"/>
      <point x="166" y="70"/>
      <point x="141" y="101"/>
      <point x="108" y="101" type="curve" smooth="yes"/>
      <point x="79" y="101"/>
      <point x="57" y="81"/>
      <point x="57" y="54" type="curve" smooth="yes"/>
      <point x="57" y="37"/>
      <point x="63" y="26"/>
      <point x="82" y="9" type="curve" smooth="yes"/>
      <point x="97" y="-5"/>
      <point x="102" y="-13"/>
      <point x="102" y="-23" type="curve" smooth="yes"/>
      <point x="102" y="-50"/>
      <point x="79" y="-77"/>
      <point x="27" y="-112" type="curve"/>
    </contour>
    <contour>
      <point x="205" y="441" type="curve" smooth="yes"/>
      <point x="174" y="441"/>
      <point x="150" y="416"/>
      <point x="150" y="384" type="curve" smooth="yes"/>
      <point x="150" y="354"/>
      <point x="174" y="330"/>
      <point x="204" y="330" type="curve" smooth="yes"/>
      <point x="236" y="330"/>
      <point x="261" y="354"/>
      <point x="261" y="384" type="curve" smooth="yes"/>
      <point x="261" y="416"/>
      <point x="236" y="441"/>
    </contour>
  </outline>
</glyph>
<glyph name="less" format="1">
  <advance width="675"/>
  <unicode hex="003C"/>
  <outline>
    <contour>
      <point x="592" y="-10" type="line"/>
      <point x="592" y="62" type="line"/>
      <point x="172" y="253" type="line"/>
      <point x="592" y="444" type="line"/>
      <point x="592" y="516" type="line"/>
      <point x="84" y="286" type="line"/>
      <point x="84" y="220" type="line"/>
    </contour>
  </outline>
</glyph>
<glyph name="equal" format="1">
  <advance width="675"/>
  <unicode hex="003D"/>
  <outline>
    <contour>
      <point x="590" y="386" type="line"/>
      <point x="86" y="386" type="line"/>
      <point x="86" y="320" type="line"/>
      <point x="590" y="320" type="line"/>
    </contour>
    <contour>
      <point x="590" y="186" type="line"/>
      <point x="86" y="186" type="line"/>
      <point x="86" y="120" type="line"/>
      <point x="590" y="120" type="line"/>
    </contour>
  </outline>
</glyph>
<glyph name="greater" format="1">
  <advance width="675"/>
  <unicode hex="003E"/>
  <outline>
    <contour>
      <point x="84" y="-10" type="line"/>
      <point x="592" y="220" type="line"/>
      <point x="592" y="286" type="line"/>
      <point x="84" y="516" type="line"/>
      <point x="84" y="444" type="line"/>
      <point x="504" y="253" type="line"/>
      <point x="84" y="62" type="line"/>
    </contour>
  </outline>
</glyph>
<glyph name="at" format="1">
  <advance width="920"/>
  <unicode hex="0040"/>
  <outline>
    <contour>
      <point x="587" y="449" type="line"/>
      <point x="565" y="490"/>
      <point x="551" y="500"/>
      <point x="516" y="500" type="curve" smooth="yes"/>
      <point x="474" y="500"/>
      <point x="433" y="482"/>
      <point x="403" y="450" type="curve" smooth="yes"/>
      <point x="352" y="398"/>
      <point x="321" y="321"/>
      <point x="321" y="250" type="curve" smooth="yes"/>
      <point x="321" y="187"/>
      <point x="360" y="139"/>
      <point x="410" y="139" type="curve" smooth="yes"/>
      <point x="452" y="139"/>
      <point x="497" y="165"/>
      <point x="533" y="210" type="curve"/>
      <point x="539" y="167"/>
      <point x="575" y="138"/>
      <point x="622" y="138" type="curve" smooth="yes"/>
      <point x="721" y="138"/>
      <point x="806" y="248"/>
      <point x="806" y="376" type="curve" smooth="yes"/>
      <point x="806" y="539"/>
      <point x="664" y="666"/>
      <point x="481" y="666" type="curve" smooth="yes"/>
      <point x="278" y="666"/>
      <point x="118" y="512"/>
      <point x="118" y="319" type="curve" smooth="yes"/>
      <point x="118" y="130"/>
      <point x="278" y="-18"/>
      <point x="482" y="-18" type="curve" smooth="yes"/>
      <point x="553" y="-18"/>
      <point x="604" y="-5"/>
      <point x="698" y="39" type="curve"/>
      <point x="686" y="68" type="line"/>
      <point x="608" y="33"/>
      <point x="559" y="21"/>
      <point x="494" y="21" type="curve" smooth="yes"/>
      <point x="323" y="21"/>
      <point x="201" y="142"/>
      <point x="201" y="313" type="curve" smooth="yes"/>
      <point x="201" y="500"/>
      <point x="318" y="635"/>
      <point x="481" y="635" type="curve" smooth="yes"/>
      <point x="637" y="635"/>
      <point x="766" y="513"/>
      <point x="766" y="367" type="curve" smooth="yes"/>
      <point x="766" y="307"/>
      <point x="741" y="241"/>
      <point x="704" y="202" type="curve" smooth="yes"/>
      <point x="685" y="183"/>
      <point x="660" y="171"/>
      <point x="635" y="171" type="curve" smooth="yes"/>
      <point x="611" y="171"/>
      <point x="598" y="186"/>
      <point x="598" y="213" type="curve" smooth="yes"/>
      <point x="598" y="218"/>
      <point x="599" y="227"/>
      <point x="601" y="234" type="curve" smooth="yes"/>
      <point x="666" y="486" type="line"/>
      <point x="597" y="486" type="line"/>
    </contour>
    <contour>
      <point x="530" y="456" type="curve" smooth="yes"/>
      <point x="557" y="454"/>
      <point x="572" y="431"/>
      <point x="570" y="394" type="curve" smooth="yes"/>
      <point x="564" y="281"/>
      <point x="507" y="181"/>
      <point x="451" y="181" type="curve" smooth="yes"/>
      <point x="414" y="181"/>
      <point x="392" y="213"/>
      <point x="392" y="265" type="curve" smooth="yes"/>
      <point x="392" y="318"/>
      <point x="410" y="368"/>
      <point x="443" y="406" type="curve" smooth="yes"/>
      <point x="471" y="438"/>
      <point x="506" y="458"/>
    </contour>
  </outline>
</glyph>
<glyph name="B" format="1">
  <advance width="611"/>
  <unicode hex="0042"/>
  <outline>
    <contour>
      <point x="-8" y="0" type="line"/>
      <point x="274" y="0" type="line" smooth="yes"/>
      <point x="431" y="0"/>
      <point x="539" y="82"/>
      <point x="539" y="200" type="curve" smooth="yes"/>
      <point x="539" y="237"/>
      <point x="527" y="272"/>
      <point x="505" y="294" type="curve"/>
      <point x="485" y="317"/>
      <point x="465" y="329"/>
      <point x="413" y="351" type="curve"/>
      <point x="484" y="368"/>
      <point x="513" y="380"/>
      <point x="545" y="408" type="curve" smooth="yes"/>
      <point x="573" y="432"/>
      <point x="588" y="466"/>
      <point x="588" y="506" type="curve" smooth="yes"/>
      <point x="588" y="601"/>
      <point x="517" y="653"/>
      <point x="388" y="653" type="curve" smooth="yes"/>
      <point x="130" y="653" type="line"/>
      <point x="130" y="637" type="line"/>
      <point x="192" y="632"/>
      <point x="207" y="624"/>
      <point x="207" y="596" type="curve" smooth="yes"/>
      <point x="207" y="581"/>
      <point x="203" y="556"/>
      <point x="196" y="532" type="curve" smooth="yes"/>
      <point x="73" y="90" type="line" smooth="yes"/>
      <point x="55" y="32"/>
      <point x="48" y="26"/>
      <point x="-8" y="16" type="curve"/>
    </contour>
    <contour>
      <point x="238" y="331" type="curve"/>
      <point x="303" y="331"/>
      <point x="345" y="327"/>
      <point x="365" y="319" type="curve" smooth="yes"/>
      <point x="406" y="302"/>
      <point x="431" y="258"/>
      <point x="431" y="204" type="curve" smooth="yes"/>
      <point x="431" y="96"/>
      <point x="357" y="30"/>
      <point x="235" y="30" type="curve" smooth="yes"/>
      <point x="193" y="30"/>
      <point x="171" y="45"/>
      <point x="171" y="72" type="curve" smooth="yes"/>
      <point x="171" y="84"/>
      <point x="183" y="132"/>
      <point x="206" y="212" type="curve" smooth="yes"/>
      <point x="219" y="257"/>
      <point x="225" y="280"/>
    </contour>
    <contour>
      <point x="313" y="595" type="line" smooth="yes"/>
      <point x="319" y="617"/>
      <point x="331" y="623"/>
      <point x="370" y="623" type="curve" smooth="yes"/>
      <point x="450" y="623"/>
      <point x="487" y="589"/>
      <point x="487" y="515" type="curve" smooth="yes"/>
      <point x="487" y="458"/>
      <point x="463" y="414"/>
      <point x="420" y="390" type="curve" smooth="yes"/>
      <point x="386" y="370"/>
      <point x="338" y="363"/>
      <point x="248" y="363" type="curve"/>
    </contour>
  </outline>
</glyph>
<glyph name="F" format="1">
  <advance width="611"/>
  <unicode hex="0046"/>
  <outline>
    <contour>
      <point x="645" y="653" type="line"/>
      <point x="147" y="653" type="line"/>
      <point x="147" y="637" type="line"/>
      <point x="212" y="631"/>
      <point x="224" y="625"/>
      <point x="224" y="596" type="curve" smooth="yes"/>
      <point x="224" y="581"/>
      <point x="220" y="556"/>
      <point x="213" y="532" type="curve" smooth="yes"/>
      <point x="90" y="90" type="line" smooth="yes"/>
      <point x="72" y="30"/>
      <point x="65" y="24"/>
      <point x="8" y="16" type="curve"/>
      <point x="8" y="0" type="line"/>
      <point x="260" y="0" type="line"/>
      <point x="260" y="16" type="line"/>
      <point x="202" y="19"/>
      <point x="184" y="30"/>
      <point x="184" y="60" type="curve" smooth="yes"/>
      <point x="184" y="68"/>
      <point x="187" y="83"/>
      <point x="193" y="105" type="curve" smooth="yes"/>
      <point x="255" y="328" type="line"/>
      <point x="292" y="326"/>
      <point x="314" y="325"/>
      <point x="336" y="325" type="curve" smooth="yes"/>
      <point x="375" y="325"/>
      <point x="382" y="324"/>
      <point x="391" y="320" type="curve"/>
      <point x="406" y="312"/>
      <point x="413" y="299"/>
      <point x="413" y="279" type="curve" smooth="yes"/>
      <point x="413" y="263"/>
      <point x="411" y="251"/>
      <point x="405" y="220" type="curve"/>
      <point x="422" y="215" type="line"/>
      <point x="498" y="449" type="line"/>
      <point x="480" y="454" type="line"/>
      <point x="435" y="364"/>
      <point x="432" y="363"/>
      <point x="264" y="361" type="curve"/>
      <point x="330" y="594" type="line" smooth="yes"/>
      <point x="336" y="614"/>
      <point x="350" y="620"/>
      <point x="391" y="620" type="curve" smooth="yes"/>
      <point x="559" y="620"/>
      <point x="595" y="607"/>
      <point x="595" y="545" type="curve" smooth="yes"/>
      <point x="595" y="539"/>
      <point x="595" y="534"/>
      <point x="594" y="521" type="curve"/>
      <point x="593" y="515"/>
      <point x="593" y="514"/>
      <point x="592" y="502" type="curve"/>
      <point x="613" y="500" type="line"/>
    </contour>
  </outline>
</glyph>
<glyph name="M" format="1">
  <advance width="833"/>
  <unicode hex="004D"/>
  <outline>
    <contour>
      <point x="873" y="653" type="line"/>
      <point x="706" y="653" type="line"/>
      <point x="370" y="160" type="line"/>
      <point x="315" y="653" type="line"/>
      <point x="134" y="653" type="line"/>
      <point x="134" y="637" type="line"/>
      <point x="184" y="634"/>
      <point x="208" y="623"/>
      <point x="208" y="600" type="curve" smooth="yes"/>
      <point x="208" y="592"/>
      <point x="204" y="577"/>
      <point x="198" y="559" type="curve"/>
      <point x="196" y="555"/>
      <point x="193" y="544"/>
      <point x="189" y="529" type="curve"/>
      <point x="188" y="526"/>
      <point x="187" y="522"/>
      <point x="186" y="518" type="curve" smooth="yes"/>
      <point x="80" y="146" type="line" smooth="yes"/>
      <point x="49" y="42"/>
      <point x="34" y="22"/>
      <point x="-18" y="16" type="curve"/>
      <point x="-18" y="0" type="line"/>
      <point x="180" y="0" type="line"/>
      <point x="180" y="16" type="line"/>
      <point x="129" y="20"/>
      <point x="109" y="32"/>
      <point x="109" y="60" type="curve" smooth="yes"/>
      <point x="109" y="70"/>
      <point x="113" y="96"/>
      <point x="118" y="113" type="curve" smooth="yes"/>
      <point x="236" y="546" type="line"/>
      <point x="297" y="0" type="line"/>
      <point x="314" y="0" type="line"/>
      <point x="691" y="561" type="line"/>
      <point x="562" y="91" type="line" smooth="yes"/>
      <point x="546" y="38"/>
      <point x="526" y="23"/>
      <point x="461" y="16" type="curve"/>
      <point x="461" y="0" type="line"/>
      <point x="734" y="0" type="line"/>
      <point x="734" y="16" type="line"/>
      <point x="666" y="22"/>
      <point x="657" y="28"/>
      <point x="657" y="59" type="curve" smooth="yes"/>
      <point x="657" y="76"/>
      <point x="659" y="89"/>
      <point x="668" y="120" type="curve" smooth="yes"/>
      <point x="791" y="563" type="line" smooth="yes"/>
      <point x="809" y="623"/>
      <point x="814" y="628"/>
      <point x="873" y="637" type="curve"/>
    </contour>
  </outline>
</glyph>
<glyph name="N" format="1">
  <advance width="667"/>
  <unicode hex="004E"/>
  <outline>
    <contour>
      <point x="727" y="653" type="line"/>
      <point x="528" y="653" type="line"/>
      <point x="528" y="637" type="line"/>
      <point x="585" y="632"/>
      <point x="598" y="622"/>
      <point x="598" y="586" type="curve" smooth="yes"/>
      <point x="598" y="574"/>
      <point x="596" y="562"/>
      <point x="589" y="542" type="curve" smooth="yes"/>
      <point x="588" y="539"/>
      <point x="587" y="535"/>
      <point x="587" y="534" type="curve"/>
      <point x="485" y="154" type="line"/>
      <point x="277" y="653" type="line"/>
      <point x="116" y="653" type="line"/>
      <point x="116" y="637" type="line"/>
      <point x="163" y="633"/>
      <point x="184" y="620"/>
      <point x="202" y="581" type="curve"/>
      <point x="83" y="164" type="line" smooth="yes"/>
      <point x="45" y="36"/>
      <point x="37" y="24"/>
      <point x="-20" y="16" type="curve"/>
      <point x="-20" y="0" type="line"/>
      <point x="178" y="0" type="line"/>
      <point x="178" y="16" type="line"/>
      <point x="127" y="20"/>
      <point x="108" y="31"/>
      <point x="108" y="59" type="curve" smooth="yes"/>
      <point x="108" y="72"/>
      <point x="111" y="92"/>
      <point x="117" y="113" type="curve" smooth="yes"/>
      <point x="231" y="535" type="line"/>
      <point x="461" y="-15" type="line"/>
      <point x="479" y="-15" type="line"/>
      <point x="623" y="488" type="line" smooth="yes"/>
      <point x="660" y="617"/>
      <point x="664" y="623"/>
      <point x="727" y="637" type="curve"/>
    </contour>
  </outline>
</glyph>
<glyph name="O" format="1">
  <advance width="722"/>
  <unicode hex="004F"/>
  <outline>
    <contour>
      <point x="474" y="666" type="curve" smooth="yes"/>
      <point x="390" y="666"/>
      <point x="300" y="626"/>
      <point x="220" y="553" type="curve" smooth="yes"/>
      <point x="119" y="460"/>
      <point x="60" y="338"/>
      <point x="60" y="221" type="curve" smooth="yes"/>
      <point x="60" y="81"/>
      <point x="151" y="-18"/>
      <point x="278" y="-18" type="curve" smooth="yes"/>
      <point x="486" y="-18"/>
      <point x="688" y="192"/>
      <point x="699" y="418" type="curve" smooth="yes"/>
      <point x="706" y="559"/>
      <point x="608" y="666"/>
    </contour>
    <contour>
      <point x="465" y="633" type="curve" smooth="yes"/>
      <point x="544" y="633"/>
      <point x="594" y="575"/>
      <point x="594" y="481" type="curve" smooth="yes"/>
      <point x="594" y="373"/>
      <point x="547" y="227"/>
      <point x="482" y="133" type="curve" smooth="yes"/>
      <point x="427" y="54"/>
      <point x="365" y="15"/>
      <point x="295" y="15" type="curve" smooth="yes"/>
      <point x="211" y="15"/>
      <point x="165" y="76"/>
      <point x="165" y="184" type="curve" smooth="yes"/>
      <point x="165" y="278"/>
      <point x="215" y="427"/>
      <point x="275" y="514" type="curve" smooth="yes"/>
      <point x="331" y="595"/>
      <point x="392" y="633"/>
    </contour>
  </outline>
</glyph>
<glyph name="P" format="1">
  <advance width="611"/>
  <unicode hex="0050"/>
  <outline>
    <contour>
      <point x="146" y="637" type="line"/>
      <point x="203" y="630"/>
      <point x="217" y="621"/>
      <point x="217" y="595" type="curve" smooth="yes"/>
      <point x="217" y="581"/>
      <point x="213" y="560"/>
      <point x="200" y="515" type="curve" smooth="yes"/>
      <point x="82" y="90" type="line" smooth="yes"/>
      <point x="64" y="30"/>
      <point x="57" y="24"/>
      <point x="0" y="16" type="curve"/>
      <point x="0" y="0" type="line"/>
      <point x="245" y="0" type="line"/>
      <point x="245" y="16" type="line"/>
      <point x="182" y="25"/>
      <point x="177" y="28"/>
      <point x="177" y="62" type="curve" smooth="yes"/>
      <point x="177" y="74"/>
      <point x="179" y="84"/>
      <point x="189" y="120" type="curve" smooth="yes"/>
      <point x="242" y="313" type="line"/>
      <point x="267" y="307"/>
      <point x="293" y="305"/>
      <point x="334" y="305" type="curve" smooth="yes"/>
      <point x="416" y="305"/>
      <point x="483" y="322"/>
      <point x="526" y="353" type="curve" smooth="yes"/>
      <point x="576" y="390"/>
      <point x="605" y="445"/>
      <point x="605" y="504" type="curve" smooth="yes"/>
      <point x="605" y="600"/>
      <point x="530" y="653"/>
      <point x="394" y="653" type="curve" smooth="yes"/>
      <point x="146" y="653" type="line"/>
    </contour>
    <contour>
      <point x="322" y="595" type="line" smooth="yes"/>
      <point x="328" y="616"/>
      <point x="340" y="623"/>
      <point x="368" y="623" type="curve" smooth="yes"/>
      <point x="407" y="623"/>
      <point x="445" y="613"/>
      <point x="465" y="599" type="curve" smooth="yes"/>
      <point x="491" y="581"/>
      <point x="502" y="551"/>
      <point x="502" y="504" type="curve" smooth="yes"/>
      <point x="502" y="439"/>
      <point x="479" y="393"/>
      <point x="435" y="367" type="curve" smooth="yes"/>
      <point x="404" y="350"/>
      <point x="365" y="342"/>
      <point x="303" y="342" type="curve" smooth="yes"/>
      <point x="286" y="342"/>
      <point x="278" y="343"/>
      <point x="251" y="347" type="curve"/>
    </contour>
  </outline>
</glyph>
<glyph name="Q" format="1">
  <advance width="722"/>
  <unicode hex="0051"/>
  <outline>
    <contour>
      <point x="279" y="-16" type="line"/>
      <point x="356" y="-11"/>
      <point x="394" y="-1"/>
      <point x="450" y="30" type="curve" smooth="yes"/>
      <point x="598" y="113"/>
      <point x="699" y="275"/>
      <point x="699" y="433" type="curve" smooth="yes"/>
      <point x="699" y="568"/>
      <point x="603" y="666"/>
      <point x="470" y="666" type="curve" smooth="yes"/>
      <point x="390" y="666"/>
      <point x="300" y="625"/>
      <point x="220" y="553" type="curve" smooth="yes"/>
      <point x="119" y="459"/>
      <point x="60" y="338"/>
      <point x="60" y="221" type="curve" smooth="yes"/>
      <point x="60" y="139"/>
      <point x="90" y="71"/>
      <point x="144" y="29" type="curve" smooth="yes"/>
      <point x="170" y="8"/>
      <point x="192" y="-2"/>
      <point x="236" y="-12" type="curve"/>
      <point x="145" y="-92"/>
      <point x="136" y="-100"/>
      <point x="59" y="-154" type="curve"/>
      <point x="69" y="-169" type="line"/>
      <point x="107" y="-148"/>
      <point x="145" y="-138"/>
      <point x="184" y="-138" type="curve" smooth="yes"/>
      <point x="204" y="-138"/>
      <point x="233" y="-144"/>
      <point x="277" y="-156" type="curve" smooth="yes"/>
      <point x="338" y="-173"/>
      <point x="392" y="-183"/>
      <point x="429" y="-183" type="curve" smooth="yes"/>
      <point x="484" y="-183"/>
      <point x="554" y="-157"/>
      <point x="605" y="-117" type="curve" smooth="yes"/>
      <point x="629" y="-99"/>
      <point x="642" y="-85"/>
      <point x="668" y="-49" type="curve"/>
      <point x="653" y="-38" type="line"/>
      <point x="597" y="-96"/>
      <point x="556" y="-115"/>
      <point x="484" y="-115" type="curve" smooth="yes"/>
      <point x="458" y="-115"/>
      <point x="437" y="-111"/>
      <point x="361" y="-93" type="curve" smooth="yes"/>
      <point x="309" y="-80"/>
      <point x="262" y="-71"/>
      <point x="256" y="-72" type="curve"/>
      <point x="252" y="-73"/>
      <point x="250" y="-73"/>
      <point x="250" y="-73" type="curve"/>
      <point x="225" y="-73" type="line"/>
    </contour>
    <contour>
      <point x="465" y="633" type="curve" smooth="yes"/>
      <point x="545" y="633"/>
      <point x="594" y="575"/>
      <point x="594" y="480" type="curve" smooth="yes"/>
      <point x="594" y="374"/>
      <point x="547" y="227"/>
      <point x="483" y="135" type="curve" smooth="yes"/>
      <point x="428" y="56"/>
      <point x="366" y="17"/>
      <point x="293" y="17" type="curve" smooth="yes"/>
      <point x="212" y="17"/>
      <point x="165" y="78"/>
      <point x="165" y="183" type="curve" smooth="yes"/>
      <point x="165" y="278"/>
      <point x="214" y="427"/>
      <point x="275" y="514" type="curve" smooth="yes"/>
      <point x="331" y="595"/>
      <point x="392" y="633"/>
    </contour>
  </outline>
</glyph>
<glyph name="R" format="1">
  <advance width="611"/>
  <unicode hex="0052"/>
  <outline>
    <contour>
      <point x="567" y="16" type="line"/>
      <point x="523" y="19"/>
      <point x="503" y="36"/>
      <point x="484" y="88" type="curve" smooth="yes"/>
      <point x="391" y="333" type="line"/>
      <point x="468" y="350"/>
      <point x="501" y="364"/>
      <point x="537" y="396" type="curve" smooth="yes"/>
      <point x="570" y="425"/>
      <point x="588" y="464"/>
      <point x="588" y="509" type="curve" smooth="yes"/>
      <point x="588" y="602"/>
      <point x="514" y="653"/>
      <point x="380" y="653" type="curve" smooth="yes"/>
      <point x="132" y="653" type="line"/>
      <point x="132" y="637" type="line"/>
      <point x="174" y="631"/>
      <point x="179" y="630"/>
      <point x="189" y="623" type="curve"/>
      <point x="197" y="618"/>
      <point x="203" y="606"/>
      <point x="203" y="595" type="curve" smooth="yes"/>
      <point x="203" y="583"/>
      <point x="198" y="559"/>
      <point x="191" y="532" type="curve" smooth="yes"/>
      <point x="68" y="90" type="line" smooth="yes"/>
      <point x="50" y="31"/>
      <point x="43" y="25"/>
      <point x="-13" y="16" type="curve"/>
      <point x="-13" y="0" type="line"/>
      <point x="231" y="0" type="line"/>
      <point x="231" y="16" type="line"/>
      <point x="170" y="24"/>
      <point x="163" y="29"/>
      <point x="163" y="62" type="curve" smooth="yes"/>
      <point x="163" y="72"/>
      <point x="166" y="85"/>
      <point x="175" y="120" type="curve" smooth="yes"/>
      <point x="231" y="329" type="line"/>
      <point x="296" y="324" type="line"/>
      <point x="419" y="0" type="line"/>
      <point x="567" y="0" type="line"/>
    </contour>
    <contour>
      <point x="308" y="595" type="line" smooth="yes"/>
      <point x="314" y="616"/>
      <point x="327" y="623"/>
      <point x="359" y="623" type="curve" smooth="yes"/>
      <point x="442" y="623"/>
      <point x="483" y="585"/>
      <point x="483" y="511" type="curve" smooth="yes"/>
      <point x="483" y="412"/>
      <point x="419" y="361"/>
      <point x="294" y="361" type="curve" smooth="yes"/>
      <point x="278" y="361"/>
      <point x="267" y="362"/>
      <point x="243" y="366" type="curve"/>
    </contour>
  </outline>
</glyph>
<glyph name="V" format="1">
  <advance width="611"/>
  <unicode hex="0056"/>
  <outline>
    <contour>
      <point x="688" y="653" type="line"/>
      <point x="502" y="653" type="line"/>
      <point x="502" y="637" type="line"/>
      <point x="547" y="632"/>
      <point x="565" y="622"/>
      <point x="565" y="603" type="curve" smooth="yes"/>
      <point x="565" y="584"/>
      <point x="546" y="541"/>
      <point x="513" y="484" type="curve" smooth="yes"/>
      <point x="307" y="128" type="line"/>
      <point x="241" y="571" type="line" smooth="yes"/>
      <point x="240" y="576"/>
      <point x="240" y="580"/>
      <point x="240" y="586" type="curve" smooth="yes"/>
      <point x="240" y="620"/>
      <point x="254" y="630"/>
      <point x="317" y="637" type="curve"/>
      <point x="317" y="653" type="line"/>
      <point x="76" y="653" type="line"/>
      <point x="76" y="637" type="line"/>
      <point x="132" y="630"/>
      <point x="134" y="627"/>
      <point x="155" y="502" type="curve" smooth="yes"/>
      <point x="240" y="-18" type="line"/>
      <point x="259" y="-18" type="line"/>
      <point x="632" y="597" type="line" smooth="yes"/>
      <point x="649" y="624"/>
      <point x="665" y="636"/>
      <point x="688" y="637" type="curve"/>
    </contour>
  </outline>
</glyph>
<glyph name="W" format="1">
  <advance width="833"/>
  <unicode hex="0057"/>
  <outline>
    <contour>
      <point x="906" y="653" type="line"/>
      <point x="721" y="653" type="line"/>
      <point x="721" y="637" type="line"/>
      <point x="775" y="632"/>
      <point x="786" y="625"/>
      <point x="786" y="597" type="curve" smooth="yes"/>
      <point x="786" y="581"/>
      <point x="778" y="556"/>
      <point x="765" y="530" type="curve" smooth="yes"/>
      <point x="578" y="162" type="line"/>
      <point x="538" y="564" type="line"/>
      <point x="537" y="578" type="line"/>
      <point x="537" y="619"/>
      <point x="551" y="632"/>
      <point x="605" y="637" type="curve"/>
      <point x="605" y="653" type="line"/>
      <point x="367" y="653" type="line"/>
      <point x="367" y="637" type="line"/>
      <point x="425" y="635"/>
      <point x="435" y="628"/>
      <point x="442" y="579" type="curve" smooth="yes"/>
      <point x="451" y="510" type="line"/>
      <point x="279" y="162" type="line"/>
      <point x="235" y="568" type="line"/>
      <point x="234" y="573"/>
      <point x="234" y="580"/>
      <point x="234" y="582" type="curve" smooth="yes"/>
      <point x="234" y="621"/>
      <point x="246" y="630"/>
      <point x="307" y="637" type="curve"/>
      <point x="307" y="653" type="line"/>
      <point x="71" y="653" type="line"/>
      <point x="71" y="637" type="line"/>
      <point x="104" y="633"/>
      <point x="113" y="630"/>
      <point x="122" y="621" type="curve" smooth="yes"/>
      <point x="134" y="610"/>
      <point x="138" y="591"/>
      <point x="150" y="499" type="curve" smooth="yes"/>
      <point x="212" y="-18" type="line"/>
      <point x="231" y="-18" type="line"/>
      <point x="453" y="436" type="line"/>
      <point x="458" y="436" type="line"/>
      <point x="508" y="-18" type="line"/>
      <point x="528" y="-18" type="line"/>
      <point x="831" y="565" type="line" smooth="yes"/>
      <point x="858" y="616"/>
      <point x="868" y="625"/>
      <point x="906" y="637" type="curve"/>
    </contour>
  </outline>
</glyph>
<glyph name="X" format="1">
  <advance width="611"/>
  <unicode hex="0058"/>
  <outline>
    <contour>
      <point x="655" y="653" type="line"/>
      <point x="447" y="653" type="line"/>
      <point x="447" y="637" type="line"/>
      <point x="496" y="631"/>
      <point x="508" y="624"/>
      <point x="508" y="601" type="curve" smooth="yes"/>
      <point x="508" y="588"/>
      <point x="502" y="576"/>
      <point x="488" y="560" type="curve" smooth="yes"/>
      <point x="343" y="393" type="line"/>
      <point x="284" y="540" type="line" smooth="yes"/>
      <point x="273" y="566"/>
      <point x="269" y="583"/>
      <point x="269" y="596" type="curve" smooth="yes"/>
      <point x="269" y="621"/>
      <point x="285" y="630"/>
      <point x="340" y="637" type="curve"/>
      <point x="340" y="653" type="line"/>
      <point x="76" y="653" type="line"/>
      <point x="76" y="637" type="line"/>
      <point x="134" y="632"/>
      <point x="149" y="622"/>
      <point x="168" y="576" type="curve" smooth="yes"/>
      <point x="274" y="313" type="line"/>
      <point x="237" y="271"/>
      <point x="204" y="232"/>
      <point x="191" y="216" type="curve" smooth="yes"/>
      <point x="52" y="52"/>
      <point x="24" y="27"/>
      <point x="-29" y="16" type="curve"/>
      <point x="-29" y="0" type="line"/>
      <point x="185" y="0" type="line"/>
      <point x="185" y="16" type="line"/>
      <point x="137" y="16"/>
      <point x="120" y="25"/>
      <point x="120" y="50" type="curve" smooth="yes"/>
      <point x="120" y="65"/>
      <point x="128" y="82"/>
      <point x="141" y="97" type="curve" smooth="yes"/>
      <point x="292" y="269" type="line"/>
      <point x="359" y="104" type="line" smooth="yes"/>
      <point x="366" y="86"/>
      <point x="370" y="70"/>
      <point x="370" y="55" type="curve" smooth="yes"/>
      <point x="370" y="26"/>
      <point x="360" y="21"/>
      <point x="294" y="16" type="curve"/>
      <point x="294" y="0" type="line"/>
      <point x="567" y="0" type="line"/>
      <point x="567" y="16" type="line"/>
      <point x="497" y="24"/>
      <point x="488" y="30"/>
      <point x="463" y="90" type="curve" smooth="yes"/>
      <point x="361" y="348" type="line"/>
      <point x="530" y="542" type="line" smooth="yes"/>
      <point x="582" y="600"/>
      <point x="612" y="623"/>
      <point x="655" y="637" type="curve"/>
    </contour>
  </outline>
</glyph>
<glyph name="Y" format="1">
  <advance width="556"/>
  <unicode hex="0059"/>
  <outline>
    <contour>
      <point x="91" y="637" type="line"/>
      <point x="147" y="629"/>
      <point x="150" y="626"/>
      <point x="167" y="571" type="curve" smooth="yes"/>
      <point x="244" y="302" type="line"/>
      <point x="183" y="90" type="line" smooth="yes"/>
      <point x="166" y="36"/>
      <point x="144" y="20"/>
      <point x="78" y="16" type="curve"/>
      <point x="78" y="0" type="line"/>
      <point x="367" y="0" type="line"/>
      <point x="367" y="16" type="line"/>
      <point x="351" y="17"/>
      <point x="337" y="18"/>
      <point x="331" y="19" type="curve"/>
      <point x="292" y="21"/>
      <point x="278" y="31"/>
      <point x="278" y="56" type="curve" smooth="yes"/>
      <point x="278" y="77"/>
      <point x="285" y="107"/>
      <point x="309" y="185" type="curve" smooth="yes"/>
      <point x="312" y="194"/>
      <point x="314" y="201"/>
      <point x="315" y="205" type="curve" smooth="yes"/>
      <point x="344" y="306" type="line"/>
      <point x="563" y="576" type="line" smooth="yes"/>
      <point x="595" y="616"/>
      <point x="603" y="623"/>
      <point x="633" y="637" type="curve"/>
      <point x="633" y="653" type="line"/>
      <point x="444" y="653" type="line"/>
      <point x="444" y="637" type="line"/>
      <point x="456" y="636"/>
      <point x="467" y="635"/>
      <point x="471" y="634" type="curve"/>
      <point x="500" y="631"/>
      <point x="513" y="623"/>
      <point x="513" y="606" type="curve" smooth="yes"/>
      <point x="513" y="579"/>
      <point x="467" y="514"/>
      <point x="363" y="393" type="curve" smooth="yes"/>
      <point x="325" y="347" type="line"/>
      <point x="313" y="391"/>
      <point x="310" y="404"/>
      <point x="294" y="457" type="curve" smooth="yes"/>
      <point x="269" y="543"/>
      <point x="258" y="586"/>
      <point x="258" y="601" type="curve" smooth="yes"/>
      <point x="258" y="625"/>
      <point x="270" y="631"/>
      <point x="330" y="637" type="curve"/>
      <point x="330" y="653" type="line"/>
      <point x="91" y="653" type="line"/>
    </contour>
  </outline>
</glyph>
<glyph name="Z" format="1">
  <advance width="556"/>
  <unicode hex="005A"/>
  <outline>
    <contour>
      <point x="606" y="653" type="line"/>
      <point x="120" y="653" type="line"/>
      <point x="74" y="507" type="line"/>
      <point x="93" y="502" type="line"/>
      <point x="114" y="546"/>
      <point x="126" y="563"/>
      <point x="145" y="580" type="curve" smooth="yes"/>
      <point x="174" y="604"/>
      <point x="227" y="617"/>
      <point x="302" y="617" type="curve" smooth="yes"/>
      <point x="473" y="617" type="line"/>
      <point x="-6" y="14" type="line"/>
      <point x="-6" y="0" type="line"/>
      <point x="499" y="0" type="line"/>
      <point x="553" y="168" type="line"/>
      <point x="534" y="171" type="line"/>
      <point x="502" y="107"/>
      <point x="484" y="83"/>
      <point x="450" y="64" type="curve" smooth="yes"/>
      <point x="416" y="44"/>
      <point x="366" y="36"/>
      <point x="284" y="36" type="curve" smooth="yes"/>
      <point x="123" y="36" type="line"/>
      <point x="606" y="639" type="line"/>
    </contour>
  </outline>
</glyph>
<glyph name="backslash" format="1">
  <advance width="278"/>
  <unicode hex="005C"/>
  <outline>
    <contour>
      <point x="-41" y="666" type="line"/>
      <point x="248" y="-18" type="line"/>
      <point x="319" y="-18" type="line"/>
      <point x="31" y="666" type="line"/>
    </contour>
  </outline>
</glyph>
<glyph name="asciicircum" format="1">
  <advance width="422"/>
  <unicode hex="005E"/>
  <outline>
    <contour>
      <point x="68" y="301" type="line"/>
      <point x="211" y="590" type="line"/>
      <point x="354" y="301" type="line"/>
      <point x="422" y="301" type="line"/>
      <point x="241" y="666" type="line"/>
      <point x="181" y="666" type="line"/>
      <point x="0" y="301" type="line"/>
    </contour>
  </outline>
</glyph>
<glyph name="b" format="1">
  <advance width="500"/>
  <unicode hex="0062"/>
  <outline>
    <contour>
      <point x="110" y="643" type="line"/>
      <point x="169" y="641"/>
      <point x="175" y="638"/>
      <point x="175" y="616" type="curve" smooth="yes"/>
      <point x="175" y="607"/>
      <point x="172" y="595"/>
      <point x="166" y="573" type="curve" smooth="yes"/>
      <point x="164" y="566"/>
      <point x="162" y="559"/>
      <point x="161" y="554" type="curve"/>
      <point x="159" y="547" type="line"/>
      <point x="23" y="46" type="line"/>
      <point x="23" y="42" type="line" smooth="yes"/>
      <point x="23" y="19"/>
      <point x="100" y="-11"/>
      <point x="156" y="-11" type="curve" smooth="yes"/>
      <point x="307" y="-11"/>
      <point x="473" y="164"/>
      <point x="473" y="321" type="curve" smooth="yes"/>
      <point x="473" y="391"/>
      <point x="424" y="441"/>
      <point x="357" y="441" type="curve" smooth="yes"/>
      <point x="287" y="441"/>
      <point x="235" y="400"/>
      <point x="164" y="290" type="curve"/>
      <point x="268" y="678" type="line"/>
      <point x="263" y="683" type="line"/>
      <point x="213" y="674"/>
      <point x="177" y="668"/>
      <point x="110" y="660" type="curve"/>
    </contour>
    <contour>
      <point x="318" y="392" type="curve" smooth="yes"/>
      <point x="361" y="392"/>
      <point x="388" y="359"/>
      <point x="388" y="306" type="curve" smooth="yes"/>
      <point x="388" y="240"/>
      <point x="337" y="133"/>
      <point x="278" y="71" type="curve" smooth="yes"/>
      <point x="241" y="33"/>
      <point x="198" y="12"/>
      <point x="155" y="12" type="curve" smooth="yes"/>
      <point x="124" y="12"/>
      <point x="109" y="23"/>
      <point x="109" y="46" type="curve" smooth="yes"/>
      <point x="109" y="106"/>
      <point x="139" y="203"/>
      <point x="181" y="277" type="curve" smooth="yes"/>
      <point x="225" y="354"/>
      <point x="270" y="392"/>
    </contour>
  </outline>
</glyph>
<glyph name="d" format="1">
  <advance width="500"/>
  <unicode hex="0064"/>
  <outline>
    <contour>
      <point x="463" y="111" type="line"/>
      <point x="409" y="49"/>
      <point x="398" y="40"/>
      <point x="381" y="40" type="curve" smooth="yes"/>
      <point x="371" y="40"/>
      <point x="363" y="49"/>
      <point x="363" y="60" type="curve" smooth="yes"/>
      <point x="363" y="74"/>
      <point x="395" y="196"/>
      <point x="428" y="306" type="curve" smooth="yes"/>
      <point x="455" y="398"/>
      <point x="476" y="478"/>
      <point x="527" y="678" type="curve"/>
      <point x="522" y="683" type="line"/>
      <point x="469" y="672"/>
      <point x="433" y="666"/>
      <point x="369" y="660" type="curve"/>
      <point x="369" y="643" type="line"/>
      <point x="424" y="641"/>
      <point x="431" y="638"/>
      <point x="431" y="617" type="curve" smooth="yes"/>
      <point x="431" y="604"/>
      <point x="430" y="598"/>
      <point x="416" y="547" type="curve" smooth="yes"/>
      <point x="372" y="383" type="line"/>
      <point x="364" y="425"/>
      <point x="346" y="441"/>
      <point x="307" y="441" type="curve" smooth="yes"/>
      <point x="177" y="441"/>
      <point x="15" y="253"/>
      <point x="15" y="103" type="curve" smooth="yes"/>
      <point x="15" y="32"/>
      <point x="55" y="-11"/>
      <point x="120" y="-11" type="curve" smooth="yes"/>
      <point x="188" y="-11"/>
      <point x="232" y="21"/>
      <point x="300" y="121" type="curve"/>
      <point x="289" y="70"/>
      <point x="287" y="55"/>
      <point x="287" y="32" type="curve" smooth="yes"/>
      <point x="287" y="5"/>
      <point x="304" y="-13"/>
      <point x="329" y="-13" type="curve" smooth="yes"/>
      <point x="371" y="-13"/>
      <point x="423" y="28"/>
      <point x="475" y="101" type="curve"/>
    </contour>
    <contour>
      <point x="311" y="418" type="curve" smooth="yes"/>
      <point x="341" y="416"/>
      <point x="356" y="397"/>
      <point x="356" y="361" type="curve" smooth="yes"/>
      <point x="356" y="209"/>
      <point x="252" y="37"/>
      <point x="160" y="37" type="curve" smooth="yes"/>
      <point x="126" y="37"/>
      <point x="102" y="64"/>
      <point x="102" y="103" type="curve" smooth="yes"/>
      <point x="102" y="186"/>
      <point x="152" y="302"/>
      <point x="218" y="372" type="curve" smooth="yes"/>
      <point x="246" y="401"/>
      <point x="283" y="420"/>
    </contour>
  </outline>
</glyph>
<glyph name="e" format="1">
  <advance width="444"/>
  <unicode hex="0065"/>
  <outline>
    <contour>
      <point x="358" y="109" type="line"/>
      <point x="286" y="50"/>
      <point x="255" y="34"/>
      <point x="212" y="34" type="curve" smooth="yes"/>
      <point x="155" y="34"/>
      <point x="118" y="70"/>
      <point x="118" y="124" type="curve" smooth="yes"/>
      <point x="118" y="139"/>
      <point x="120" y="154"/>
      <point x="128" y="186" type="curve"/>
      <point x="156" y="190" type="line" smooth="yes"/>
      <point x="306" y="211"/>
      <point x="412" y="287"/>
      <point x="412" y="373" type="curve" smooth="yes"/>
      <point x="412" y="415"/>
      <point x="382" y="441"/>
      <point x="332" y="441" type="curve" smooth="yes"/>
      <point x="188" y="441"/>
      <point x="31" y="276"/>
      <point x="31" y="126" type="curve" smooth="yes"/>
      <point x="31" y="45"/>
      <point x="85" y="-11"/>
      <point x="163" y="-11" type="curve" smooth="yes"/>
      <point x="234" y="-11"/>
      <point x="311" y="30"/>
      <point x="370" y="97" type="curve"/>
    </contour>
    <contour>
      <point x="152" y="252" type="line" smooth="yes"/>
      <point x="186" y="341"/>
      <point x="260" y="418"/>
      <point x="311" y="418" type="curve" smooth="yes"/>
      <point x="332" y="418"/>
      <point x="346" y="402"/>
      <point x="346" y="379" type="curve" smooth="yes"/>
      <point x="346" y="348"/>
      <point x="327" y="312"/>
      <point x="296" y="282" type="curve" smooth="yes"/>
      <point x="259" y="247"/>
      <point x="221" y="229"/>
      <point x="135" y="208" type="curve"/>
    </contour>
  </outline>
</glyph>
<glyph name="f" format="1">
  <advance width="278"/>
  <unicode hex="0066"/>
  <outline>
    <contour>
      <point x="35" y="396" type="line"/>
      <point x="125" y="396" type="line"/>
      <point x="37" y="-24" type="line" smooth="yes"/>
      <point x="15" y="-131"/>
      <point x="-18" y="-186"/>
      <point x="-60" y="-186" type="curve" smooth="yes"/>
      <point x="-72" y="-186"/>
      <point x="-80" y="-179"/>
      <point x="-80" y="-170" type="curve" smooth="yes"/>
      <point x="-80" y="-167"/>
      <point x="-79" y="-164"/>
      <point x="-76" y="-159" type="curve" smooth="yes"/>
      <point x="-72" y="-153"/>
      <point x="-71" y="-149"/>
      <point x="-71" y="-143" type="curve" smooth="yes"/>
      <point x="-71" y="-122"/>
      <point x="-89" y="-105"/>
      <point x="-110" y="-105" type="curve" smooth="yes"/>
      <point x="-131" y="-105"/>
      <point x="-147" y="-123"/>
      <point x="-147" y="-146" type="curve" smooth="yes"/>
      <point x="-147" y="-180"/>
      <point x="-112" y="-207"/>
      <point x="-68" y="-207" type="curve" smooth="yes"/>
      <point x="21" y="-207"/>
      <point x="91" y="-108"/>
      <point x="132" y="76" type="curve" smooth="yes"/>
      <point x="204" y="396" type="line"/>
      <point x="313" y="396" type="line"/>
      <point x="319" y="428" type="line"/>
      <point x="211" y="428" type="line"/>
      <point x="240" y="585"/>
      <point x="277" y="656"/>
      <point x="333" y="656" type="curve" smooth="yes"/>
      <point x="346" y="656"/>
      <point x="355" y="651"/>
      <point x="355" y="644" type="curve" smooth="yes"/>
      <point x="355" y="641"/>
      <point x="354" y="639"/>
      <point x="351" y="634" type="curve"/>
      <point x="347" y="625"/>
      <point x="345" y="620"/>
      <point x="345" y="613" type="curve" smooth="yes"/>
      <point x="345" y="589"/>
      <point x="360" y="573"/>
      <point x="382" y="573" type="curve" smooth="yes"/>
      <point x="405" y="573"/>
      <point x="424" y="591"/>
      <point x="424" y="613" type="curve" smooth="yes"/>
      <point x="424" y="650"/>
      <point x="387" y="678"/>
      <point x="338" y="678" type="curve" smooth="yes"/>
      <point x="289" y="678"/>
      <point x="250" y="656"/>
      <point x="214" y="609" type="curve" smooth="yes"/>
      <point x="184" y="570"/>
      <point x="164" y="524"/>
      <point x="134" y="428" type="curve"/>
      <point x="42" y="428" type="line"/>
    </contour>
  </outline>
</glyph>
<glyph name="g" format="1">
  <advance width="500"/>
  <unicode hex="0067"/>
  <outline>
    <contour>
      <point x="472" y="405" type="line"/>
      <point x="411" y="405" type="line" smooth="yes"/>
      <point x="408" y="405"/>
      <point x="403" y="407"/>
      <point x="395" y="413" type="curve"/>
      <point x="368" y="431"/>
      <point x="335" y="441"/>
      <point x="297" y="441" type="curve" smooth="yes"/>
      <point x="186" y="441"/>
      <point x="96" y="364"/>
      <point x="96" y="270" type="curve" smooth="yes"/>
      <point x="96" y="218"/>
      <point x="118" y="188"/>
      <point x="175" y="162" type="curve"/>
      <point x="116" y="122"/>
      <point x="98" y="102"/>
      <point x="98" y="78" type="curve" smooth="yes"/>
      <point x="98" y="65"/>
      <point x="106" y="53"/>
      <point x="125" y="39" type="curve"/>
      <point x="26" y="-26"/>
      <point x="8" y="-46"/>
      <point x="8" y="-92" type="curve" smooth="yes"/>
      <point x="8" y="-161"/>
      <point x="74" y="-206"/>
      <point x="175" y="-206" type="curve" smooth="yes"/>
      <point x="301" y="-206"/>
      <point x="385" y="-147"/>
      <point x="385" y="-60" type="curve" smooth="yes"/>
      <point x="385" y="3"/>
      <point x="337" y="47"/>
      <point x="242" y="72" type="curve" smooth="yes"/>
      <point x="198" y="83"/>
      <point x="172" y="99"/>
      <point x="172" y="114" type="curve" smooth="yes"/>
      <point x="172" y="129"/>
      <point x="195" y="155"/>
      <point x="208" y="155" type="curve" smooth="yes"/>
      <point x="210" y="155"/>
      <point x="212" y="155"/>
      <point x="215" y="154" type="curve"/>
      <point x="223" y="152"/>
      <point x="237" y="151"/>
      <point x="246" y="151" type="curve" smooth="yes"/>
      <point x="337" y="151"/>
      <point x="431" y="232"/>
      <point x="431" y="310" type="curve" smooth="yes"/>
      <point x="431" y="326"/>
      <point x="428" y="346"/>
      <point x="422" y="366" type="curve"/>
      <point x="472" y="366" type="line"/>
    </contour>
    <contour>
      <point x="148" y="28" type="curve" smooth="yes"/>
      <point x="149" y="28"/>
      <point x="151" y="27"/>
      <point x="153" y="26" type="curve"/>
      <point x="156" y="25"/>
      <point x="166" y="22"/>
      <point x="182" y="17" type="curve" smooth="yes"/>
      <point x="288" y="-16"/>
      <point x="325" y="-44"/>
      <point x="325" y="-90" type="curve" smooth="yes"/>
      <point x="325" y="-144"/>
      <point x="267" y="-184"/>
      <point x="190" y="-184" type="curve" smooth="yes"/>
      <point x="110" y="-184"/>
      <point x="63" y="-146"/>
      <point x="63" y="-82" type="curve" smooth="yes"/>
      <point x="63" y="-58"/>
      <point x="69" y="-41"/>
      <point x="85" y="-22" type="curve" smooth="yes"/>
      <point x="98" y="-5"/>
      <point x="140" y="28"/>
    </contour>
    <contour>
      <point x="296" y="419" type="curve" smooth="yes"/>
      <point x="333" y="419"/>
      <point x="352" y="395"/>
      <point x="352" y="348" type="curve" smooth="yes"/>
      <point x="352" y="313"/>
      <point x="340" y="269"/>
      <point x="321" y="235" type="curve" smooth="yes"/>
      <point x="299" y="194"/>
      <point x="268" y="172"/>
      <point x="234" y="172" type="curve" smooth="yes"/>
      <point x="196" y="172"/>
      <point x="174" y="200"/>
      <point x="174" y="247" type="curve" smooth="yes"/>
      <point x="174" y="339"/>
      <point x="231" y="419"/>
    </contour>
  </outline>
</glyph>
<glyph name="j" format="1">
  <advance width="278"/>
  <unicode hex="006A"/>
  <outline>
    <contour>
      <point x="246" y="439" type="line"/>
      <point x="243" y="441" type="line"/>
      <point x="154" y="425"/>
      <point x="104" y="417"/>
      <point x="73" y="416" type="curve"/>
      <point x="73" y="400" type="line"/>
      <point x="100" y="400" type="line"/>
      <point x="107" y="401" type="line" smooth="yes"/>
      <point x="115" y="402"/>
      <point x="135" y="396"/>
      <point x="140" y="392" type="curve"/>
      <point x="144" y="388"/>
      <point x="147" y="379"/>
      <point x="147" y="369" type="curve" smooth="yes"/>
      <point x="147" y="359"/>
      <point x="142" y="332"/>
      <point x="131" y="289" type="curve" smooth="yes"/>
      <point x="59" y="-3" type="line" smooth="yes"/>
      <point x="25" y="-140"/>
      <point x="2" y="-184"/>
      <point x="-38" y="-184" type="curve" smooth="yes"/>
      <point x="-50" y="-184"/>
      <point x="-56" y="-180"/>
      <point x="-56" y="-173" type="curve" smooth="yes"/>
      <point x="-56" y="-169"/>
      <point x="-55" y="-167"/>
      <point x="-51" y="-162" type="curve" smooth="yes"/>
      <point x="-45" y="-154"/>
      <point x="-43" y="-149"/>
      <point x="-43" y="-141" type="curve" smooth="yes"/>
      <point x="-43" y="-120"/>
      <point x="-61" y="-104"/>
      <point x="-84" y="-104" type="curve" smooth="yes"/>
      <point x="-107" y="-104"/>
      <point x="-124" y="-122"/>
      <point x="-124" y="-146" type="curve" smooth="yes"/>
      <point x="-124" y="-181"/>
      <point x="-91" y="-207"/>
      <point x="-45" y="-207" type="curve" smooth="yes"/>
      <point x="42" y="-207"/>
      <point x="102" y="-131"/>
      <point x="142" y="28" type="curve" smooth="yes"/>
    </contour>
    <contour>
      <point x="226" y="654" type="curve" smooth="yes"/>
      <point x="199" y="654"/>
      <point x="179" y="632"/>
      <point x="179" y="601" type="curve" smooth="yes"/>
      <point x="179" y="569"/>
      <point x="198" y="548"/>
      <point x="227" y="548" type="curve" smooth="yes"/>
      <point x="253" y="548"/>
      <point x="276" y="571"/>
      <point x="276" y="599" type="curve" smooth="yes"/>
      <point x="276" y="628"/>
      <point x="253" y="654"/>
    </contour>
  </outline>
</glyph>
<glyph name="k" format="1">
  <advance width="444"/>
  <unicode hex="006B"/>
  <outline>
    <contour>
      <point x="414" y="109" type="line"/>
      <point x="399" y="83" type="line" smooth="yes"/>
      <point x="381" y="52"/>
      <point x="369" y="41"/>
      <point x="354" y="41" type="curve" smooth="yes"/>
      <point x="333" y="41"/>
      <point x="312" y="74"/>
      <point x="273" y="170" type="curve" smooth="yes"/>
      <point x="268" y="183"/>
      <point x="253" y="219"/>
      <point x="236" y="258" type="curve"/>
      <point x="383" y="389"/>
      <point x="414" y="409"/>
      <point x="461" y="412" type="curve"/>
      <point x="461" y="428" type="line"/>
      <point x="278" y="428" type="line"/>
      <point x="278" y="412" type="line"/>
      <point x="294" y="412" type="line" smooth="yes"/>
      <point x="319" y="412"/>
      <point x="333" y="405"/>
      <point x="333" y="394" type="curve" smooth="yes"/>
      <point x="333" y="374"/>
      <point x="283" y="325"/>
      <point x="190" y="254" type="curve" smooth="yes"/>
      <point x="176" y="243"/>
      <point x="164" y="233"/>
      <point x="147" y="221" type="curve"/>
      <point x="267" y="678" type="line"/>
      <point x="262" y="683" type="line"/>
      <point x="203" y="670"/>
      <point x="165" y="663"/>
      <point x="106" y="656" type="curve"/>
      <point x="106" y="640" type="line"/>
      <point x="154" y="641"/>
      <point x="173" y="634"/>
      <point x="174" y="615" type="curve"/>
      <point x="172" y="598"/>
      <point x="165" y="571"/>
      <point x="152" y="525" type="curve" smooth="yes"/>
      <point x="148" y="511"/>
      <point x="145" y="500"/>
      <point x="143" y="492" type="curve" smooth="yes"/>
      <point x="141" y="483" type="line"/>
      <point x="14" y="0" type="line"/>
      <point x="89" y="0" type="line"/>
      <point x="137" y="180" type="line"/>
      <point x="179" y="212" type="line"/>
      <point x="195" y="168"/>
      <point x="221" y="107"/>
      <point x="239" y="71" type="curve" smooth="yes"/>
      <point x="271" y="8"/>
      <point x="289" y="-11"/>
      <point x="318" y="-11" type="curve" smooth="yes"/>
      <point x="358" y="-11"/>
      <point x="384" y="14"/>
      <point x="429" y="98" type="curve"/>
    </contour>
  </outline>
</glyph>
<glyph name="m" format="1">
  <advance width="722"/>
  <unicode hex="006D"/>
  <outline>
    <contour>
      <point x="689" y="117" type="line"/>
      <point x="679" y="105"/>
      <point x="671" y="95"/>
      <point x="668" y="91" type="curve" smooth="yes"/>
      <point x="640" y="55"/>
      <point x="619" y="38"/>
      <point x="604" y="38" type="curve" smooth="yes"/>
      <point x="596" y="38"/>
      <point x="591" y="44"/>
      <point x="591" y="54" type="curve" smooth="yes"/>
      <point x="591" y="59"/>
      <point x="595" y="75"/>
      <point x="601" y="99" type="curve" smooth="yes"/>
      <point x="669" y="350" type="line" smooth="yes"/>
      <point x="670" y="354"/>
      <point x="672" y="372"/>
      <point x="672" y="378" type="curve" smooth="yes"/>
      <point x="672" y="414"/>
      <point x="647" y="441"/>
      <point x="613" y="441" type="curve" smooth="yes"/>
      <point x="594" y="441"/>
      <point x="574" y="434"/>
      <point x="550" y="419" type="curve" smooth="yes"/>
      <point x="501" y="387"/>
      <point x="460" y="339"/>
      <point x="391" y="229" type="curve"/>
      <point x="416" y="305"/>
      <point x="431" y="362"/>
      <point x="431" y="381" type="curve" smooth="yes"/>
      <point x="431" y="416"/>
      <point x="408" y="441"/>
      <point x="374" y="441" type="curve" smooth="yes"/>
      <point x="313" y="441"/>
      <point x="243" y="375"/>
      <point x="151" y="230" type="curve"/>
      <point x="209" y="439" type="line"/>
      <point x="206" y="441" type="line"/>
      <point x="150" y="429"/>
      <point x="129" y="425"/>
      <point x="46" y="410" type="curve"/>
      <point x="46" y="394" type="line"/>
      <point x="71" y="394" type="line" smooth="yes"/>
      <point x="97" y="394"/>
      <point x="110" y="387"/>
      <point x="110" y="372" type="curve" smooth="yes"/>
      <point x="110" y="361"/>
      <point x="87" y="270"/>
      <point x="51" y="143" type="curve" smooth="yes"/>
      <point x="28" y="61"/>
      <point x="25" y="51"/>
      <point x="12" y="0" type="curve"/>
      <point x="87" y="0" type="line"/>
      <point x="135" y="159"/>
      <point x="150" y="196"/>
      <point x="184" y="248" type="curve" smooth="yes"/>
      <point x="240" y="333"/>
      <point x="300" y="389"/>
      <point x="334" y="389" type="curve" smooth="yes"/>
      <point x="347" y="389"/>
      <point x="354" y="380"/>
      <point x="354" y="364" type="curve" smooth="yes"/>
      <point x="354" y="355"/>
      <point x="322" y="234"/>
      <point x="259" y="0" type="curve"/>
      <point x="334" y="0" type="line"/>
      <point x="374" y="156"/>
      <point x="394" y="206"/>
      <point x="445" y="277" type="curve" smooth="yes"/>
      <point x="494" y="345"/>
      <point x="544" y="389"/>
      <point x="573" y="389" type="curve" smooth="yes"/>
      <point x="584" y="389"/>
      <point x="593" y="379"/>
      <point x="593" y="368" type="curve" smooth="yes"/>
      <point x="593" y="363"/>
      <point x="591" y="351"/>
      <point x="586" y="333" type="curve" smooth="yes"/>
      <point x="528" y="103" type="line" smooth="yes"/>
      <point x="519" y="66"/>
      <point x="515" y="47"/>
      <point x="515" y="37" type="curve" smooth="yes"/>
      <point x="515" y="7"/>
      <point x="529" y="-9"/>
      <point x="555" y="-9" type="curve" smooth="yes"/>
      <point x="602" y="-9"/>
      <point x="646" y="24"/>
      <point x="699" y="98" type="curve" smooth="yes"/>
      <point x="704" y="105" type="line"/>
    </contour>
  </outline>
</glyph>
<glyph name="o" format="1">
  <advance width="500"/>
  <unicode hex="006F"/>
  <outline>
    <contour>
      <point x="325" y="441" type="curve" smooth="yes"/>
      <point x="175" y="441"/>
      <point x="27" y="286"/>
      <point x="27" y="129" type="curve" smooth="yes"/>
      <point x="27" y="43"/>
      <point x="83" y="-11"/>
      <point x="174" y="-11" type="curve" smooth="yes"/>
      <point x="240" y="-11"/>
      <point x="304" y="19"/>
      <point x="362" y="76" type="curve" smooth="yes"/>
      <point x="428" y="141"/>
      <point x="468" y="226"/>
      <point x="468" y="301" type="curve" smooth="yes"/>
      <point x="468" y="384"/>
      <point x="410" y="441"/>
    </contour>
    <contour>
      <point x="313" y="420" type="curve" smooth="yes"/>
      <point x="356" y="420"/>
      <point x="384" y="383"/>
      <point x="384" y="326" type="curve" smooth="yes"/>
      <point x="384" y="253"/>
      <point x="351" y="153"/>
      <point x="307" y="88" type="curve" smooth="yes"/>
      <point x="270" y="35"/>
      <point x="232" y="10"/>
      <point x="189" y="10" type="curve" smooth="yes"/>
      <point x="142" y="10"/>
      <point x="111" y="46"/>
      <point x="111" y="101" type="curve" smooth="yes"/>
      <point x="111" y="175"/>
      <point x="140" y="263"/>
      <point x="189" y="334" type="curve" smooth="yes"/>
      <point x="228" y="390"/>
      <point x="270" y="420"/>
    </contour>
  </outline>
</glyph>
<glyph name="p" format="1">
  <advance width="500"/>
  <unicode hex="0070"/>
  <outline>
    <contour>
      <point x="56" y="404" type="line"/>
      <point x="79" y="404" type="line"/>
      <point x="79" y="404"/>
      <point x="81" y="404"/>
      <point x="82" y="405" type="curve"/>
      <point x="95" y="411"/>
      <point x="121" y="392"/>
      <point x="121" y="377" type="curve" smooth="yes"/>
      <point x="121" y="368"/>
      <point x="85" y="226"/>
      <point x="50" y="94" type="curve" smooth="yes"/>
      <point x="23" y="-6"/>
      <point x="-1" y="-101"/>
      <point x="-8" y="-130" type="curve" smooth="yes"/>
      <point x="-19" y="-176"/>
      <point x="-32" y="-188"/>
      <point x="-75" y="-189" type="curve"/>
      <point x="-75" y="-205" type="line"/>
      <point x="130" y="-205" type="line"/>
      <point x="130" y="-190" type="line"/>
      <point x="83" y="-190"/>
      <point x="66" y="-181"/>
      <point x="66" y="-160" type="curve" smooth="yes"/>
      <point x="66" y="-146"/>
      <point x="83" y="-68"/>
      <point x="103" y="6" type="curve"/>
      <point x="128" y="-7"/>
      <point x="146" y="-11"/>
      <point x="169" y="-11" type="curve" smooth="yes"/>
      <point x="315" y="-11"/>
      <point x="469" y="157"/>
      <point x="469" y="316" type="curve" smooth="yes"/>
      <point x="469" y="394"/>
      <point x="425" y="441"/>
      <point x="354" y="441" type="curve" smooth="yes"/>
      <point x="289" y="441"/>
      <point x="241" y="409"/>
      <point x="183" y="328" type="curve"/>
      <point x="212" y="428" type="line"/>
      <point x="215" y="437" type="line"/>
      <point x="215" y="437"/>
      <point x="214" y="438"/>
      <point x="213" y="440" type="curve"/>
      <point x="211" y="441" type="line"/>
      <point x="211" y="442"/>
      <point x="210" y="442"/>
      <point x="210" y="442" type="curve"/>
      <point x="210" y="442"/>
      <point x="208" y="441"/>
      <point x="208" y="441" type="curve"/>
      <point x="54" y="419" type="line"/>
    </contour>
    <contour>
      <point x="317" y="398" type="curve" smooth="yes"/>
      <point x="360" y="396"/>
      <point x="379" y="370"/>
      <point x="379" y="312" type="curve" smooth="yes"/>
      <point x="379" y="246"/>
      <point x="350" y="160"/>
      <point x="307" y="98" type="curve" smooth="yes"/>
      <point x="265" y="39"/>
      <point x="217" y="8"/>
      <point x="165" y="8" type="curve" smooth="yes"/>
      <point x="137" y="8"/>
      <point x="117" y="23"/>
      <point x="117" y="45" type="curve" smooth="yes"/>
      <point x="117" y="79"/>
      <point x="153" y="210"/>
      <point x="182" y="284" type="curve" smooth="yes"/>
      <point x="209" y="352"/>
      <point x="267" y="401"/>
    </contour>
  </outline>
</glyph>
<glyph name="q" format="1">
  <advance width="500"/>
  <unicode hex="0071"/>
  <outline>
    <contour>
      <point x="391" y="-191" type="line"/>
      <point x="374" y="-191" type="line" smooth="yes"/>
      <point x="337" y="-191"/>
      <point x="316" y="-181"/>
      <point x="317" y="-162" type="curve"/>
      <point x="317" y="-159"/>
      <point x="318" y="-155"/>
      <point x="319" y="-151" type="curve" smooth="yes"/>
      <point x="483" y="426" type="line"/>
      <point x="410" y="426" type="line"/>
      <point x="395" y="379" type="line"/>
      <point x="379" y="425"/>
      <point x="359" y="441"/>
      <point x="318" y="441" type="curve" smooth="yes"/>
      <point x="186" y="441"/>
      <point x="25" y="257"/>
      <point x="25" y="105" type="curve" smooth="yes"/>
      <point x="25" y="34"/>
      <point x="64" y="-11"/>
      <point x="127" y="-11" type="curve" smooth="yes"/>
      <point x="198" y="-11"/>
      <point x="244" y="26"/>
      <point x="333" y="153" type="curve"/>
      <point x="244" y="-140" type="line" smooth="yes"/>
      <point x="231" y="-180"/>
      <point x="215" y="-188"/>
      <point x="150" y="-193" type="curve"/>
      <point x="150" y="-209" type="line"/>
      <point x="391" y="-209" type="line"/>
    </contour>
    <contour>
      <point x="321" y="419" type="curve" smooth="yes"/>
      <point x="354" y="419"/>
      <point x="380" y="392"/>
      <point x="380" y="358" type="curve" smooth="yes"/>
      <point x="380" y="275"/>
      <point x="312" y="133"/>
      <point x="244" y="76" type="curve" smooth="yes"/>
      <point x="218" y="54"/>
      <point x="191" y="42"/>
      <point x="167" y="42" type="curve" smooth="yes"/>
      <point x="133" y="42"/>
      <point x="111" y="72"/>
      <point x="111" y="119" type="curve" smooth="yes"/>
      <point x="111" y="193"/>
      <point x="163" y="304"/>
      <point x="228" y="370" type="curve" smooth="yes"/>
      <point x="259" y="401"/>
      <point x="292" y="419"/>
    </contour>
  </outline>
</glyph>
<glyph name="r" format="1">
  <advance width="389"/>
  <unicode hex="0072"/>
  <outline>
    <contour>
      <point x="121" y="0" type="line"/>
      <point x="173" y="170"/>
      <point x="190" y="213"/>
      <point x="236" y="289" type="curve" smooth="yes"/>
      <point x="269" y="345"/>
      <point x="297" y="376"/>
      <point x="314" y="376" type="curve" smooth="yes"/>
      <point x="320" y="376"/>
      <point x="325" y="372"/>
      <point x="330" y="362" type="curve" smooth="yes"/>
      <point x="338" y="345"/>
      <point x="346" y="340"/>
      <point x="366" y="340" type="curve" smooth="yes"/>
      <point x="395" y="340"/>
      <point x="412" y="358"/>
      <point x="412" y="389" type="curve" smooth="yes"/>
      <point x="412" y="420"/>
      <point x="393" y="441"/>
      <point x="365" y="441" type="curve" smooth="yes"/>
      <point x="342" y="441"/>
      <point x="315" y="426"/>
      <point x="289" y="399" type="curve" smooth="yes"/>
      <point x="248" y="357"/>
      <point x="208" y="298"/>
      <point x="192" y="258" type="curve" smooth="yes"/>
      <point x="178" y="222" type="line"/>
      <point x="231" y="439" type="line"/>
      <point x="228" y="441" type="line"/>
      <point x="155" y="428"/>
      <point x="146" y="426"/>
      <point x="73" y="414" type="curve"/>
      <point x="73" y="397" type="line"/>
      <point x="97" y="402"/>
      <point x="100" y="402"/>
      <point x="107" y="402" type="curve" smooth="yes"/>
      <point x="129" y="402"/>
      <point x="142" y="392"/>
      <point x="142" y="374" type="curve" smooth="yes"/>
      <point x="142" y="360"/>
      <point x="142" y="360"/>
      <point x="126" y="292" type="curve" smooth="yes"/>
      <point x="45" y="0" type="line"/>
    </contour>
  </outline>
</glyph>
<glyph name="t" format="1">
  <advance width="278"/>
  <unicode hex="0074"/>
  <outline>
    <contour>
      <point x="296" y="428" type="line"/>
      <point x="216" y="428" type="line"/>
      <point x="244" y="531" type="line"/>
      <point x="245" y="533"/>
      <point x="245" y="535"/>
      <point x="245" y="536" type="curve" smooth="yes"/>
      <point x="245" y="543"/>
      <point x="242" y="546"/>
      <point x="237" y="546" type="curve" smooth="yes"/>
      <point x="231" y="546"/>
      <point x="228" y="545"/>
      <point x="222" y="537" type="curve" smooth="yes"/>
      <point x="183" y="486"/>
      <point x="121" y="436"/>
      <point x="89" y="427" type="curve" smooth="yes"/>
      <point x="64" y="419"/>
      <point x="57" y="413"/>
      <point x="57" y="402" type="curve" smooth="yes"/>
      <point x="57" y="401"/>
      <point x="57" y="399"/>
      <point x="58" y="396" type="curve"/>
      <point x="132" y="396" type="line"/>
      <point x="60" y="121" type="line" smooth="yes"/>
      <point x="58" y="112"/>
      <point x="57" y="109"/>
      <point x="54" y="100" type="curve" smooth="yes"/>
      <point x="45" y="70"/>
      <point x="37" y="35"/>
      <point x="37" y="27" type="curve" smooth="yes"/>
      <point x="37" y="5"/>
      <point x="58" y="-11"/>
      <point x="85" y="-11" type="curve" smooth="yes"/>
      <point x="131" y="-11"/>
      <point x="164" y="17"/>
      <point x="227" y="110" type="curve"/>
      <point x="214" y="117" type="line"/>
      <point x="165" y="54"/>
      <point x="149" y="38"/>
      <point x="133" y="38" type="curve" smooth="yes"/>
      <point x="124" y="38"/>
      <point x="118" y="46"/>
      <point x="118" y="58" type="curve" smooth="yes"/>
      <point x="118" y="59"/>
      <point x="118" y="60"/>
      <point x="119" y="63" type="curve"/>
      <point x="207" y="396" type="line"/>
      <point x="291" y="396" type="line"/>
    </contour>
  </outline>
</glyph>
<glyph name="v" format="1">
  <advance width="444"/>
  <unicode hex="0076"/>
  <outline>
    <contour>
      <point x="21" y="403" type="line"/>
      <point x="32" y="404"/>
      <point x="40" y="404"/>
      <point x="51" y="404" type="curve" smooth="yes"/>
      <point x="90" y="404"/>
      <point x="100" y="387"/>
      <point x="114" y="295" type="curve" smooth="yes"/>
      <point x="124" y="226"/>
      <point x="136" y="75"/>
      <point x="136" y="17" type="curve" smooth="yes"/>
      <point x="136" y="-11"/>
      <point x="138" y="-18"/>
      <point x="145" y="-18" type="curve" smooth="yes"/>
      <point x="170" y="-18"/>
      <point x="263" y="88"/>
      <point x="365" y="230" type="curve" smooth="yes"/>
      <point x="400" y="280"/>
      <point x="426" y="345"/>
      <point x="426" y="382" type="curve" smooth="yes"/>
      <point x="426" y="414"/>
      <point x="400" y="441"/>
      <point x="370" y="441" type="curve" smooth="yes"/>
      <point x="348" y="441"/>
      <point x="333" y="428"/>
      <point x="333" y="407" type="curve" smooth="yes"/>
      <point x="333" y="391"/>
      <point x="339" y="379"/>
      <point x="357" y="363" type="curve" smooth="yes"/>
      <point x="370" y="351"/>
      <point x="375" y="343"/>
      <point x="375" y="333" type="curve" smooth="yes"/>
      <point x="375" y="287"/>
      <point x="309" y="176"/>
      <point x="238" y="102" type="curve" smooth="yes"/>
      <point x="207" y="70" type="line"/>
      <point x="200" y="211"/>
      <point x="194" y="263"/>
      <point x="181" y="337" type="curve" smooth="yes"/>
      <point x="161" y="439"/>
      <point x="161" y="441"/>
      <point x="152" y="441" type="curve" smooth="yes"/>
      <point x="147" y="441"/>
      <point x="140" y="440"/>
      <point x="132" y="437" type="curve"/>
      <point x="114" y="432"/>
      <point x="59" y="422"/>
      <point x="21" y="416" type="curve"/>
    </contour>
  </outline>
</glyph>
<glyph name="w" format="1">
  <advance width="667"/>
  <unicode hex="0077"/>
  <outline>
    <contour>
      <point x="16" y="404" type="line"/>
      <point x="36" y="404" type="line" smooth="yes"/>
      <point x="37" y="404"/>
      <point x="40" y="404"/>
      <point x="45" y="405" type="curve"/>
      <point x="73" y="407"/>
      <point x="83" y="397"/>
      <point x="90" y="359" type="curve" smooth="yes"/>
      <point x="102" y="302"/>
      <point x="114" y="196"/>
      <point x="117" y="117" type="curve" smooth="yes"/>
      <point x="121" y="29" type="line" smooth="yes"/>
      <point x="123" y="-10"/>
      <point x="125" y="-18"/>
      <point x="134" y="-18" type="curve" smooth="yes"/>
      <point x="145" y="-18"/>
      <point x="162" y="7"/>
      <point x="198" y="76" type="curve"/>
      <point x="203" y="87"/>
      <point x="223" y="122"/>
      <point x="253" y="175" type="curve" smooth="yes"/>
      <point x="342" y="331" type="line"/>
      <point x="371" y="12" type="line" smooth="yes"/>
      <point x="373" y="-15"/>
      <point x="375" y="-18"/>
      <point x="382" y="-18" type="curve" smooth="yes"/>
      <point x="390" y="-18"/>
      <point x="400" y="-8"/>
      <point x="427" y="25" type="curve"/>
      <point x="428" y="26"/>
      <point x="432" y="31"/>
      <point x="436" y="36" type="curve" smooth="yes"/>
      <point x="572" y="199"/>
      <point x="648" y="325"/>
      <point x="648" y="389" type="curve" smooth="yes"/>
      <point x="648" y="419"/>
      <point x="626" y="441"/>
      <point x="596" y="441" type="curve" smooth="yes"/>
      <point x="572" y="441"/>
      <point x="557" y="428"/>
      <point x="557" y="407" type="curve" smooth="yes"/>
      <point x="557" y="394"/>
      <point x="562" y="386"/>
      <point x="578" y="371" type="curve" smooth="yes"/>
      <point x="594" y="356"/>
      <point x="600" y="346"/>
      <point x="600" y="334" type="curve" smooth="yes"/>
      <point x="600" y="291"/>
      <point x="566" y="237"/>
      <point x="435" y="74" type="curve"/>
      <point x="403" y="426" type="line"/>
      <point x="403" y="437"/>
      <point x="401" y="440"/>
      <point x="395" y="440" type="curve" smooth="yes"/>
      <point x="390" y="440"/>
      <point x="387" y="438"/>
      <point x="382" y="430" type="curve" smooth="yes"/>
      <point x="190" y="126" type="line"/>
      <point x="187" y="196"/>
      <point x="176" y="301"/>
      <point x="165" y="371" type="curve" smooth="yes"/>
      <point x="154" y="433"/>
      <point x="152" y="441"/>
      <point x="140" y="441" type="curve" smooth="yes"/>
      <point x="134" y="441"/>
      <point x="123" y="438"/>
      <point x="110" y="434" type="curve"/>
      <point x="99" y="430"/>
      <point x="75" y="426"/>
      <point x="42" y="421" type="curve"/>
      <point x="38" y="421"/>
      <point x="28" y="419"/>
      <point x="16" y="417" type="curve"/>
    </contour>
  </outline>
</glyph>
<glyph name="x" format="1">
  <advance width="444"/>
  <unicode hex="0078"/>
  <outline>
    <contour>
      <point x="402" y="111" type="line"/>
      <point x="394" y="102"/>
      <point x="389" y="96"/>
      <point x="380" y="84" type="curve" smooth="yes"/>
      <point x="357" y="54"/>
      <point x="345" y="44"/>
      <point x="334" y="44" type="curve" smooth="yes"/>
      <point x="319" y="44"/>
      <point x="310" y="57"/>
      <point x="303" y="85" type="curve" smooth="yes"/>
      <point x="301" y="93"/>
      <point x="300" y="99"/>
      <point x="299" y="102" type="curve"/>
      <point x="274" y="203"/>
      <point x="263" y="249"/>
      <point x="263" y="264" type="curve"/>
      <point x="307" y="341"/>
      <point x="343" y="385"/>
      <point x="361" y="385" type="curve" smooth="yes"/>
      <point x="367" y="385"/>
      <point x="375" y="382"/>
      <point x="385" y="377" type="curve"/>
      <point x="397" y="370"/>
      <point x="404" y="368"/>
      <point x="412" y="368" type="curve" smooth="yes"/>
      <point x="433" y="368"/>
      <point x="447" y="383"/>
      <point x="447" y="404" type="curve" smooth="yes"/>
      <point x="447" y="425"/>
      <point x="430" y="441"/>
      <point x="406" y="441" type="curve" smooth="yes"/>
      <point x="362" y="441"/>
      <point x="324" y="405"/>
      <point x="255" y="298" type="curve"/>
      <point x="244" y="353" type="line" smooth="yes"/>
      <point x="230" y="421"/>
      <point x="219" y="441"/>
      <point x="192" y="441" type="curve" smooth="yes"/>
      <point x="170" y="441"/>
      <point x="136" y="432"/>
      <point x="75" y="412" type="curve" smooth="yes"/>
      <point x="64" y="408" type="line"/>
      <point x="68" y="393" type="line"/>
      <point x="106" y="402"/>
      <point x="115" y="404"/>
      <point x="124" y="404" type="curve" smooth="yes"/>
      <point x="149" y="404"/>
      <point x="155" y="395"/>
      <point x="169" y="335" type="curve" smooth="yes"/>
      <point x="198" y="212" type="line"/>
      <point x="116" y="95" type="line" smooth="yes"/>
      <point x="96" y="65"/>
      <point x="76" y="47"/>
      <point x="65" y="47" type="curve" smooth="yes"/>
      <point x="59" y="47"/>
      <point x="49" y="50"/>
      <point x="39" y="56" type="curve" smooth="yes"/>
      <point x="26" y="63"/>
      <point x="15" y="66"/>
      <point x="7" y="66" type="curve" smooth="yes"/>
      <point x="-12" y="66"/>
      <point x="-27" y="51"/>
      <point x="-27" y="31" type="curve" smooth="yes"/>
      <point x="-27" y="5"/>
      <point x="-7" y="-11"/>
      <point x="23" y="-11" type="curve" smooth="yes"/>
      <point x="54" y="-11"/>
      <point x="66" y="-2"/>
      <point x="116" y="59" type="curve" smooth="yes"/>
      <point x="143" y="91"/>
      <point x="164" y="118"/>
      <point x="206" y="176" type="curve"/>
      <point x="236" y="56" type="line" smooth="yes"/>
      <point x="249" y="5"/>
      <point x="262" y="-11"/>
      <point x="294" y="-11" type="curve" smooth="yes"/>
      <point x="332" y="-11"/>
      <point x="358" y="13"/>
      <point x="416" y="103" type="curve"/>
    </contour>
  </outline>
</glyph>
<glyph name="exclamdown" format="1">
  <advance width="389"/>
  <unicode hex="00A1"/>
  <outline>
    <contour>
      <point x="224" y="285" type="line"/>
      <point x="171" y="140"/>
      <point x="135" y="52"/>
      <point x="97" y="-31" type="curve" smooth="yes"/>
      <point x="69" y="-93"/>
      <point x="59" y="-124"/>
      <point x="59" y="-154" type="curve" smooth="yes"/>
      <point x="59" y="-188"/>
      <point x="73" y="-205"/>
      <point x="99" y="-205" type="curve" smooth="yes"/>
      <point x="135" y="-205"/>
      <point x="155" y="-172"/>
      <point x="169" y="-89" type="curve" smooth="yes"/>
      <point x="188" y="29"/>
      <point x="205" y="118"/>
      <point x="241" y="281" type="curve"/>
    </contour>
    <contour>
      <point x="270" y="474" type="curve" smooth="yes"/>
      <point x="240" y="474"/>
      <point x="215" y="450"/>
      <point x="215" y="422" type="curve" smooth="yes"/>
      <point x="215" y="393"/>
      <point x="240" y="368"/>
      <point x="269" y="368" type="curve" smooth="yes"/>
      <point x="296" y="368"/>
      <point x="321" y="393"/>
      <point x="321" y="419" type="curve" smooth="yes"/>
      <point x="321" y="451"/>
      <point x="299" y="474"/>
    </contour>
  </outline>
</glyph>
<glyph name="yen" format="1">
  <advance width="500"/>
  <unicode hex="00A5"/>
  <outline>
    <contour>
      <point x="456" y="182" type="line"/>
      <point x="468" y="222" type="line"/>
      <point x="288" y="222" type="line"/>
      <point x="312" y="304" type="line"/>
      <point x="318" y="312" type="line"/>
      <point x="488" y="312" type="line"/>
      <point x="500" y="352" type="line"/>
      <point x="349" y="352" type="line"/>
      <point x="530" y="576" type="line" smooth="yes"/>
      <point x="562" y="616"/>
      <point x="571" y="623"/>
      <point x="603" y="637" type="curve"/>
      <point x="603" y="653" type="line"/>
      <point x="414" y="653" type="line"/>
      <point x="414" y="637" type="line"/>
      <point x="426" y="636"/>
      <point x="436" y="635"/>
      <point x="441" y="634" type="curve"/>
      <point x="470" y="631"/>
      <point x="483" y="623"/>
      <point x="483" y="606" type="curve" smooth="yes"/>
      <point x="483" y="578"/>
      <point x="434" y="511"/>
      <point x="321" y="380" type="curve" smooth="yes"/>
      <point x="312" y="370"/>
      <point x="308" y="364"/>
      <point x="293" y="347" type="curve"/>
      <point x="264" y="447" type="line" smooth="yes"/>
      <point x="236" y="543"/>
      <point x="225" y="586"/>
      <point x="225" y="601" type="curve" smooth="yes"/>
      <point x="225" y="626"/>
      <point x="236" y="631"/>
      <point x="300" y="637" type="curve"/>
      <point x="300" y="653" type="line"/>
      <point x="61" y="653" type="line"/>
      <point x="61" y="637" type="line"/>
      <point x="127" y="629"/>
      <point x="132" y="625"/>
      <point x="149" y="571" type="curve" smooth="yes"/>
      <point x="212" y="352" type="line"/>
      <point x="72" y="352" type="line"/>
      <point x="60" y="312" type="line"/>
      <point x="223" y="312" type="line"/>
      <point x="226" y="302" type="line"/>
      <point x="203" y="222" type="line"/>
      <point x="39" y="222" type="line"/>
      <point x="27" y="182" type="line"/>
      <point x="192" y="182" type="line"/>
      <point x="165" y="90" type="line" smooth="yes"/>
      <point x="148" y="39"/>
      <point x="119" y="20"/>
      <point x="56" y="16" type="curve"/>
      <point x="52" y="0" type="line"/>
      <point x="337" y="0" type="line"/>
      <point x="337" y="16" type="line"/>
      <point x="320" y="17"/>
      <point x="305" y="18"/>
      <point x="299" y="19" type="curve"/>
      <point x="258" y="21"/>
      <point x="245" y="31"/>
      <point x="245" y="57" type="curve" smooth="yes"/>
      <point x="245" y="79"/>
      <point x="251" y="103"/>
      <point x="276" y="182" type="curve"/>
    </contour>
  </outline>
</glyph>
<glyph name="brokenbar" format="1">
  <advance width="275"/>
  <unicode hex="00A6"/>
  <outline>
    <contour>
      <point x="105" y="-18" type="line"/>
      <point x="171" y="-18" type="line"/>
      <point x="171" y="257" type="line"/>
      <point x="105" y="257" type="line"/>
    </contour>
    <contour>
      <point x="105" y="391" type="line"/>
      <point x="171" y="391" type="line"/>
      <point x="171" y="666" type="line"/>
      <point x="105" y="666" type="line"/>
    </contour>
  </outline>
</glyph>
<glyph name="dieresis" format="1">
  <advance width="333"/>
  <unicode hex="00A8"/>
  <outline>
    <contour>
      <point x="157" y="606" type="curve" smooth="yes"/>
      <point x="129" y="606"/>
      <point x="107" y="584"/>
      <point x="107" y="558" type="curve" smooth="yes"/>
      <point x="107" y="530"/>
      <point x="129" y="508"/>
      <point x="156" y="508" type="curve" smooth="yes"/>
      <point x="183" y="508"/>
      <point x="205" y="530"/>
      <point x="205" y="557" type="curve" smooth="yes"/>
      <point x="205" y="582"/>
      <point x="182" y="606"/>
    </contour>
    <contour>
      <point x="357" y="606" type="curve" smooth="yes"/>
      <point x="329" y="606"/>
      <point x="307" y="584"/>
      <point x="307" y="558" type="curve" smooth="yes"/>
      <point x="307" y="530"/>
      <point x="329" y="508"/>
      <point x="356" y="508" type="curve" smooth="yes"/>
      <point x="383" y="508"/>
      <point x="405" y="530"/>
      <point x="405" y="557" type="curve" smooth="yes"/>
      <point x="405" y="582"/>
      <point x="382" y="606"/>
    </contour>
  </outline>
</glyph>
<glyph name="ordfeminine" format="1">
  <advance width="276"/>
  <unicode hex="00AA"/>
  <outline>
    <contour>
      <point x="299" y="673" type="line"/>
      <point x="297" y="671" type="line"/>
      <point x="290" y="641" type="line"/>
      <point x="285" y="665"/>
      <point x="265" y="676"/>
      <point x="231" y="676" type="curve" smooth="yes"/>
      <point x="143" y="676"/>
      <point x="42" y="569"/>
      <point x="42" y="476" type="curve" smooth="yes"/>
      <point x="42" y="433"/>
      <point x="72" y="406"/>
      <point x="120" y="406" type="curve" smooth="yes"/>
      <point x="169" y="406"/>
      <point x="197" y="425"/>
      <point x="246" y="493" type="curve"/>
      <point x="232" y="458"/>
      <point x="229" y="448"/>
      <point x="229" y="432" type="curve" smooth="yes"/>
      <point x="229" y="416"/>
      <point x="241" y="406"/>
      <point x="260" y="406" type="curve" smooth="yes"/>
      <point x="286" y="406"/>
      <point x="301" y="417"/>
      <point x="350" y="472" type="curve"/>
      <point x="343" y="482" type="line"/>
      <point x="337" y="476"/>
      <point x="331" y="470"/>
      <point x="329" y="467" type="curve"/>
      <point x="319" y="457"/>
      <point x="308" y="447"/>
      <point x="307" y="447" type="curve"/>
      <point x="301" y="444" type="line"/>
      <point x="300" y="443"/>
      <point x="299" y="443"/>
      <point x="298" y="443" type="curve" smooth="yes"/>
      <point x="296" y="443"/>
      <point x="294" y="446"/>
      <point x="294" y="449" type="curve" smooth="yes"/>
      <point x="294" y="451"/>
      <point x="294" y="454"/>
      <point x="295" y="457" type="curve"/>
      <point x="298" y="472" type="line" smooth="yes"/>
      <point x="302" y="493"/>
      <point x="319" y="559"/>
      <point x="352" y="675" type="curve"/>
    </contour>
    <contour>
      <point x="250" y="658" type="curve" smooth="yes"/>
      <point x="261" y="656"/>
      <point x="269" y="641"/>
      <point x="269" y="620" type="curve" smooth="yes"/>
      <point x="269" y="590"/>
      <point x="247" y="535"/>
      <point x="221" y="496" type="curve" smooth="yes"/>
      <point x="196" y="460"/>
      <point x="168" y="440"/>
      <point x="144" y="440" type="curve" smooth="yes"/>
      <point x="129" y="440"/>
      <point x="115" y="460"/>
      <point x="115" y="480" type="curve" smooth="yes"/>
      <point x="115" y="554"/>
      <point x="199" y="665"/>
    </contour>
  </outline>
</glyph>
<glyph name="guillemotleft" format="1">
  <advance width="500"/>
  <unicode hex="00AB"/>
  <outline>
    <contour>
      <point x="53" y="216" type="line"/>
      <point x="65" y="198"/>
      <point x="86" y="171"/>
      <point x="120" y="132" type="curve" smooth="yes"/>
      <point x="129" y="122"/>
      <point x="135" y="114"/>
      <point x="141" y="105" type="curve" smooth="yes"/>
      <point x="167" y="66"/>
      <point x="193" y="37"/>
      <point x="202" y="37" type="curve" smooth="yes"/>
      <point x="206" y="37"/>
      <point x="209" y="40"/>
      <point x="209" y="44" type="curve" smooth="yes"/>
      <point x="209" y="54"/>
      <point x="183" y="110"/>
      <point x="147" y="177" type="curve" smooth="yes"/>
      <point x="127" y="217" type="line"/>
      <point x="155" y="247"/>
      <point x="181" y="275"/>
      <point x="192" y="284" type="curve"/>
      <point x="245" y="333"/>
      <point x="283" y="380"/>
      <point x="283" y="395" type="curve" smooth="yes"/>
      <point x="283" y="399"/>
      <point x="280" y="403"/>
      <point x="276" y="403" type="curve" smooth="yes"/>
      <point x="270" y="403"/>
      <point x="246" y="384"/>
      <point x="180" y="326" type="curve" smooth="yes"/>
      <point x="154" y="303"/>
      <point x="146" y="296"/>
      <point x="89" y="252" type="curve" smooth="yes"/>
      <point x="53" y="225" type="line"/>
    </contour>
    <contour>
      <point x="215" y="216" type="line"/>
      <point x="227" y="198"/>
      <point x="248" y="171"/>
      <point x="282" y="132" type="curve" smooth="yes"/>
      <point x="291" y="122"/>
      <point x="297" y="114"/>
      <point x="303" y="105" type="curve" smooth="yes"/>
      <point x="329" y="66"/>
      <point x="355" y="37"/>
      <point x="364" y="37" type="curve" smooth="yes"/>
      <point x="368" y="37"/>
      <point x="371" y="40"/>
      <point x="371" y="44" type="curve" smooth="yes"/>
      <point x="371" y="54"/>
      <point x="345" y="110"/>
      <point x="309" y="177" type="curve" smooth="yes"/>
      <point x="306" y="182"/>
      <point x="298" y="199"/>
      <point x="289" y="217" type="curve"/>
      <point x="317" y="247"/>
      <point x="343" y="275"/>
      <point x="354" y="284" type="curve"/>
      <point x="407" y="333"/>
      <point x="445" y="380"/>
      <point x="445" y="395" type="curve" smooth="yes"/>
      <point x="445" y="399"/>
      <point x="442" y="403"/>
      <point x="438" y="403" type="curve" smooth="yes"/>
      <point x="432" y="403"/>
      <point x="408" y="384"/>
      <point x="342" y="326" type="curve" smooth="yes"/>
      <point x="316" y="303"/>
      <point x="308" y="296"/>
      <point x="251" y="252" type="curve" smooth="yes"/>
      <point x="215" y="225" type="line"/>
    </contour>
  </outline>
</glyph>
<glyph name="logicalnot" format="1">
  <advance width="675"/>
  <unicode hex="00AC"/>
  <outline>
    <contour>
      <point x="524" y="108" type="line"/>
      <point x="590" y="108" type="line"/>
      <point x="590" y="386" type="line"/>
      <point x="86" y="386" type="line"/>
      <point x="86" y="320" type="line"/>
      <point x="524" y="320" type="line"/>
    </contour>
  </outline>
</glyph>
<glyph name="macron" format="1">
  <advance width="333"/>
  <unicode hex="00AF"/>
  <outline>
    <contour>
      <point x="411" y="583" type="line"/>
      <point x="110" y="583" type="line"/>
      <point x="99" y="532" type="line"/>
      <point x="400" y="532" type="line"/>
    </contour>
  </outline>
</glyph>
<glyph name="degree" format="1">
  <advance width="400"/>
  <unicode hex="00B0"/>
  <outline>
    <contour>
      <point x="244" y="676" type="curve" smooth="yes"/>
      <point x="164" y="676"/>
      <point x="101" y="613"/>
      <point x="101" y="533" type="curve" smooth="yes"/>
      <point x="101" y="454"/>
      <point x="164" y="390"/>
      <point x="242" y="390" type="curve" smooth="yes"/>
      <point x="324" y="390"/>
      <point x="387" y="452"/>
      <point x="387" y="533" type="curve" smooth="yes"/>
      <point x="387" y="613"/>
      <point x="324" y="676"/>
    </contour>
    <contour>
      <point x="244" y="642" type="curve" smooth="yes"/>
      <point x="300" y="642"/>
      <point x="348" y="592"/>
      <point x="348" y="533" type="curve" smooth="yes"/>
      <point x="348" y="473"/>
      <point x="301" y="424"/>
      <point x="243" y="424" type="curve" smooth="yes"/>
      <point x="187" y="424"/>
      <point x="140" y="474"/>
      <point x="140" y="533" type="curve" smooth="yes"/>
      <point x="140" y="592"/>
      <point x="187" y="642"/>
    </contour>
  </outline>
</glyph>
<glyph name="plusminus" format="1">
  <advance width="675"/>
  <unicode hex="00B1"/>
  <outline>
    <contour>
      <point x="86" y="0" type="line"/>
      <point x="590" y="0" type="line"/>
      <point x="590" y="66" type="line"/>
      <point x="86" y="66" type="line"/>
    </contour>
    <contour>
      <point x="305" y="348" type="line"/>
      <point x="86" y="348" type="line"/>
      <point x="86" y="282" type="line"/>
      <point x="305" y="282" type="line"/>
      <point x="305" y="122" type="line"/>
      <point x="371" y="122" type="line"/>
      <point x="371" y="282" type="line"/>
      <point x="590" y="282" type="line"/>
      <point x="590" y="348" type="line"/>
      <point x="371" y="348" type="line"/>
      <point x="371" y="568" type="line"/>
      <point x="305" y="568" type="line"/>
    </contour>
  </outline>
</glyph>
<glyph name="acute" format="1">
  <advance width="333"/>
  <unicode hex="00B4"/>
  <outline>
    <contour>
      <point x="180" y="494" type="line"/>
      <point x="215" y="494" type="line"/>
      <point x="386" y="600" type="line" smooth="yes"/>
      <point x="398" y="607"/>
      <point x="403" y="616"/>
      <point x="403" y="628" type="curve" smooth="yes"/>
      <point x="403" y="648"/>
      <point x="387" y="664"/>
      <point x="367" y="664" type="curve" smooth="yes"/>
      <point x="357" y="664"/>
      <point x="349" y="660"/>
      <point x="342" y="654" type="curve"/>
    </contour>
  </outline>
</glyph>
<glyph name="periodcentered" format="1">
  <advance width="250"/>
  <unicode hex="00B7"/>
  <outline>
    <contour>
      <point x="125" y="310" type="curve" smooth="yes"/>
      <point x="95" y="310"/>
      <point x="70" y="284"/>
      <point x="70" y="253" type="curve" smooth="yes"/>
      <point x="70" y="224"/>
      <point x="95" y="199"/>
      <point x="124" y="199" type="curve" smooth="yes"/>
      <point x="155" y="199"/>
      <point x="181" y="224"/>
      <point x="181" y="253" type="curve" smooth="yes"/>
      <point x="181" y="284"/>
      <point x="155" y="310"/>
    </contour>
  </outline>
</glyph>
<glyph name="ordmasculine" format="1">
  <advance width="310"/>
  <unicode hex="00BA"/>
  <outline>
    <contour>
      <point x="265" y="676" type="curve" smooth="yes"/>
      <point x="164" y="676"/>
      <point x="67" y="584"/>
      <point x="67" y="489" type="curve" smooth="yes"/>
      <point x="67" y="439"/>
      <point x="105" y="406"/>
      <point x="164" y="406" type="curve" smooth="yes"/>
      <point x="262" y="406"/>
      <point x="362" y="500"/>
      <point x="362" y="592" type="curve" smooth="yes"/>
      <point x="362" y="641"/>
      <point x="322" y="676"/>
    </contour>
    <contour>
      <point x="258" y="654" type="curve" smooth="yes"/>
      <point x="279" y="653"/>
      <point x="289" y="637"/>
      <point x="289" y="607" type="curve" smooth="yes"/>
      <point x="289" y="555"/>
      <point x="263" y="490"/>
      <point x="227" y="452" type="curve" smooth="yes"/>
      <point x="214" y="439"/>
      <point x="195" y="430"/>
      <point x="178" y="430" type="curve" smooth="yes"/>
      <point x="155" y="430"/>
      <point x="140" y="448"/>
      <point x="140" y="476" type="curve" smooth="yes"/>
      <point x="140" y="561"/>
      <point x="204" y="658"/>
    </contour>
  </outline>
</glyph>
<glyph name="guillemotright" format="1">
  <advance width="500"/>
  <unicode hex="00BB"/>
  <outline>
    <contour>
      <point x="447" y="224" type="line"/>
      <point x="435" y="242"/>
      <point x="413" y="269"/>
      <point x="380" y="308" type="curve" smooth="yes"/>
      <point x="371" y="318"/>
      <point x="365" y="327"/>
      <point x="359" y="335" type="curve"/>
      <point x="333" y="374"/>
      <point x="307" y="403"/>
      <point x="298" y="403" type="curve" smooth="yes"/>
      <point x="294" y="403"/>
      <point x="291" y="400"/>
      <point x="291" y="396" type="curve" smooth="yes"/>
      <point x="291" y="386"/>
      <point x="317" y="330"/>
      <point x="353" y="263" type="curve" smooth="yes"/>
      <point x="373" y="223" type="line"/>
      <point x="345" y="192"/>
      <point x="319" y="165"/>
      <point x="308" y="156" type="curve"/>
      <point x="255" y="107"/>
      <point x="217" y="60"/>
      <point x="217" y="45" type="curve" smooth="yes"/>
      <point x="217" y="41"/>
      <point x="220" y="37"/>
      <point x="224" y="37" type="curve" smooth="yes"/>
      <point x="230" y="37"/>
      <point x="256" y="58"/>
      <point x="320" y="114" type="curve" smooth="yes"/>
      <point x="346" y="137"/>
      <point x="356" y="145"/>
      <point x="447" y="215" type="curve"/>
    </contour>
    <contour>
      <point x="285" y="224" type="line"/>
      <point x="273" y="242"/>
      <point x="251" y="269"/>
      <point x="218" y="308" type="curve" smooth="yes"/>
      <point x="209" y="318"/>
      <point x="203" y="327"/>
      <point x="197" y="335" type="curve"/>
      <point x="171" y="374"/>
      <point x="145" y="403"/>
      <point x="136" y="403" type="curve" smooth="yes"/>
      <point x="132" y="403"/>
      <point x="129" y="400"/>
      <point x="129" y="396" type="curve" smooth="yes"/>
      <point x="129" y="386"/>
      <point x="155" y="330"/>
      <point x="191" y="263" type="curve" smooth="yes"/>
      <point x="211" y="223" type="line"/>
      <point x="183" y="192"/>
      <point x="157" y="165"/>
      <point x="146" y="156" type="curve"/>
      <point x="93" y="107"/>
      <point x="55" y="60"/>
      <point x="55" y="45" type="curve" smooth="yes"/>
      <point x="55" y="41"/>
      <point x="58" y="37"/>
      <point x="62" y="37" type="curve" smooth="yes"/>
      <point x="68" y="37"/>
      <point x="94" y="58"/>
      <point x="158" y="114" type="curve" smooth="yes"/>
      <point x="184" y="137"/>
      <point x="194" y="145"/>
      <point x="285" y="215" type="curve"/>
    </contour>
  </outline>
</glyph>
<glyph name="onequarter" format="1">
  <advance width="750"/>
  <unicode hex="00BC"/>
  <outline>
    <contour>
      <point x="712" y="147" type="line"/>
      <point x="657" y="147" type="line"/>
      <point x="736" y="406" type="line"/>
      <point x="700" y="406" type="line"/>
      <point x="429" y="147" type="line"/>
      <point x="416" y="105" type="line"/>
      <point x="584" y="105" type="line"/>
      <point x="552" y="0" type="line"/>
      <point x="615" y="0" type="line"/>
      <point x="645" y="104" type="line"/>
      <point x="703" y="104" type="line"/>
    </contour>
    <contour>
      <point x="653" y="333" type="line"/>
      <point x="593" y="147" type="line"/>
      <point x="464" y="147" type="line"/>
    </contour>
    <contour>
      <point x="649" y="676" type="line"/>
      <point x="598" y="676" type="line"/>
      <point x="143" y="-10" type="line"/>
      <point x="194" y="-10" type="line"/>
    </contour>
    <contour>
      <point x="214" y="287" type="line"/>
      <point x="176" y="288"/>
      <point x="165" y="292"/>
      <point x="165" y="307" type="curve" smooth="yes"/>
      <point x="165" y="316"/>
      <point x="172" y="343"/>
      <point x="184" y="381" type="curve" smooth="yes"/>
      <point x="270" y="655" type="line"/>
      <point x="272" y="660"/>
      <point x="273" y="667"/>
      <point x="273" y="671" type="curve" smooth="yes"/>
      <point x="273" y="674"/>
      <point x="271" y="676"/>
      <point x="268" y="676" type="curve" smooth="yes"/>
      <point x="263" y="676"/>
      <point x="235" y="671"/>
      <point x="208" y="666" type="curve" smooth="yes"/>
      <point x="138" y="654" type="line"/>
      <point x="138" y="635" type="line"/>
      <point x="168" y="635" type="line"/>
      <point x="175" y="636" type="line" smooth="yes"/>
      <point x="184" y="637"/>
      <point x="193" y="628"/>
      <point x="193" y="618" type="curve" smooth="yes"/>
      <point x="193" y="614"/>
      <point x="192" y="609"/>
      <point x="188" y="597" type="curve" smooth="yes"/>
      <point x="98" y="312" type="line" smooth="yes"/>
      <point x="93" y="297"/>
      <point x="80" y="292"/>
      <point x="33" y="287" type="curve"/>
      <point x="33" y="271" type="line"/>
      <point x="214" y="271" type="line"/>
    </contour>
  </outline>
</glyph>
<glyph name="onehalf" format="1">
  <advance width="750"/>
  <unicode hex="00BD"/>
  <outline>
    <contour>
      <point x="635" y="676" type="line"/>
      <point x="584" y="676" type="line"/>
      <point x="129" y="-10" type="line"/>
      <point x="180" y="-10" type="line"/>
    </contour>
    <contour>
      <point x="215" y="287" type="line"/>
      <point x="177" y="288"/>
      <point x="166" y="292"/>
      <point x="166" y="307" type="curve" smooth="yes"/>
      <point x="166" y="315"/>
      <point x="173" y="342"/>
      <point x="185" y="381" type="curve" smooth="yes"/>
      <point x="271" y="655" type="line"/>
      <point x="274" y="668"/>
      <point x="274" y="668"/>
      <point x="274" y="671" type="curve" smooth="yes"/>
      <point x="274" y="674"/>
      <point x="272" y="676"/>
      <point x="269" y="676" type="curve" smooth="yes"/>
      <point x="267" y="676" type="line"/>
      <point x="267" y="676"/>
      <point x="265" y="675"/>
      <point x="264" y="675" type="curve" smooth="yes"/>
      <point x="254" y="675"/>
      <point x="236" y="671"/>
      <point x="209" y="666" type="curve" smooth="yes"/>
      <point x="186" y="661"/>
      <point x="169" y="659"/>
      <point x="139" y="654" type="curve"/>
      <point x="139" y="635" type="line"/>
      <point x="170" y="635" type="line"/>
      <point x="176" y="636" type="line"/>
      <point x="185" y="638"/>
      <point x="194" y="629"/>
      <point x="194" y="617" type="curve" smooth="yes"/>
      <point x="194" y="612"/>
      <point x="194" y="612"/>
      <point x="189" y="597" type="curve" smooth="yes"/>
      <point x="99" y="312" type="line" smooth="yes"/>
      <point x="94" y="297"/>
      <point x="81" y="292"/>
      <point x="34" y="287" type="curve"/>
      <point x="34" y="271" type="line"/>
      <point x="215" y="271" type="line"/>
    </contour>
    <contour>
      <point x="711" y="87" type="line"/>
      <point x="695" y="60"/>
      <point x="682" y="53"/>
      <point x="646" y="53" type="curve" smooth="yes"/>
      <point x="538" y="53" type="line"/>
      <point x="536" y="58" type="line"/>
      <point x="650" y="168" type="line" smooth="yes"/>
      <point x="737" y="252"/>
      <point x="749" y="269"/>
      <point x="749" y="304" type="curve" smooth="yes"/>
      <point x="749" y="359"/>
      <point x="699" y="406"/>
      <point x="639" y="406" type="curve" smooth="yes"/>
      <point x="606" y="406"/>
      <point x="572" y="394"/>
      <point x="546" y="372" type="curve" smooth="yes"/>
      <point x="527" y="357"/>
      <point x="517" y="342"/>
      <point x="503" y="309" type="curve"/>
      <point x="516" y="301" type="line"/>
      <point x="545" y="339"/>
      <point x="570" y="354"/>
      <point x="606" y="354" type="curve" smooth="yes"/>
      <point x="649" y="354"/>
      <point x="684" y="324"/>
      <point x="684" y="287" type="curve" smooth="yes"/>
      <point x="684" y="255"/>
      <point x="652" y="208"/>
      <point x="591" y="148" type="curve" smooth="yes"/>
      <point x="458" y="18" type="line"/>
      <point x="458" y="0" type="line"/>
      <point x="689" y="0" type="line"/>
      <point x="722" y="79" type="line"/>
    </contour>
  </outline>
</glyph>
<glyph name="threequarters" format="1">
  <advance width="750"/>
  <unicode hex="00BE"/>
  <outline>
    <contour>
      <point x="712" y="147" type="line"/>
      <point x="657" y="147" type="line"/>
      <point x="736" y="406" type="line"/>
      <point x="700" y="406" type="line"/>
      <point x="429" y="147" type="line"/>
      <point x="416" y="105" type="line"/>
      <point x="584" y="105" type="line"/>
      <point x="552" y="0" type="line"/>
      <point x="615" y="0" type="line"/>
      <point x="645" y="104" type="line"/>
      <point x="703" y="104" type="line"/>
    </contour>
    <contour>
      <point x="653" y="333" type="line"/>
      <point x="593" y="147" type="line"/>
      <point x="464" y="147" type="line"/>
    </contour>
    <contour>
      <point x="650" y="676" type="line"/>
      <point x="599" y="676" type="line"/>
      <point x="144" y="-10" type="line"/>
      <point x="195" y="-10" type="line"/>
    </contour>
    <contour>
      <point x="129" y="608" type="line"/>
      <point x="158" y="635"/>
      <point x="176" y="644"/>
      <point x="202" y="644" type="curve" smooth="yes"/>
      <point x="230" y="644"/>
      <point x="252" y="622"/>
      <point x="252" y="592" type="curve" smooth="yes"/>
      <point x="252" y="547"/>
      <point x="205" y="516"/>
      <point x="105" y="498" type="curve"/>
      <point x="105" y="489" type="line"/>
      <point x="132" y="489"/>
      <point x="139" y="489"/>
      <point x="151" y="485" type="curve"/>
      <point x="193" y="475"/>
      <point x="218" y="440"/>
      <point x="218" y="392" type="curve" smooth="yes"/>
      <point x="218" y="339"/>
      <point x="182" y="299"/>
      <point x="134" y="299" type="curve" smooth="yes"/>
      <point x="123" y="299"/>
      <point x="110" y="304"/>
      <point x="91" y="318" type="curve"/>
      <point x="74" y="329"/>
      <point x="61" y="335"/>
      <point x="53" y="335" type="curve" smooth="yes"/>
      <point x="36" y="335"/>
      <point x="23" y="322"/>
      <point x="23" y="307" type="curve" smooth="yes"/>
      <point x="23" y="282"/>
      <point x="49" y="268"/>
      <point x="96" y="268" type="curve" smooth="yes"/>
      <point x="204" y="268"/>
      <point x="281" y="333"/>
      <point x="281" y="425" type="curve" smooth="yes"/>
      <point x="281" y="451"/>
      <point x="274" y="471"/>
      <point x="260" y="487" type="curve"/>
      <point x="251" y="496"/>
      <point x="250" y="497"/>
      <point x="222" y="511" type="curve" smooth="yes"/>
      <point x="218" y="513" type="line"/>
      <point x="295" y="540"/>
      <point x="319" y="561"/>
      <point x="319" y="600" type="curve" smooth="yes"/>
      <point x="319" y="643"/>
      <point x="278" y="676"/>
      <point x="224" y="676" type="curve" smooth="yes"/>
      <point x="179" y="676"/>
      <point x="139" y="653"/>
      <point x="119" y="615" type="curve"/>
    </contour>
  </outline>
</glyph>
<glyph name="Agrave" format="1">
  <advance width="611"/>
  <unicode hex="00C0"/>
  <outline>
    <contour>
      <point x="564" y="16" type="line"/>
      <point x="507" y="21"/>
      <point x="501" y="29"/>
      <point x="488" y="102" type="curve" smooth="yes"/>
      <point x="394" y="668" type="line"/>
      <point x="368" y="668" type="line"/>
      <point x="78" y="168" type="line" smooth="yes"/>
      <point x="-1" y="35"/>
      <point x="-11" y="24"/>
      <point x="-51" y="16" type="curve"/>
      <point x="-51" y="0" type="line"/>
      <point x="136" y="0" type="line"/>
      <point x="136" y="16" type="line"/>
      <point x="85" y="21"/>
      <point x="77" y="26"/>
      <point x="77" y="51" type="curve" smooth="yes"/>
      <point x="77" y="70"/>
      <point x="80" y="79"/>
      <point x="97" y="113" type="curve" smooth="yes"/>
      <point x="154" y="226" type="line"/>
      <point x="374" y="226" type="line"/>
      <point x="394" y="95" type="line" smooth="yes"/>
      <point x="395" y="86"/>
      <point x="396" y="77"/>
      <point x="396" y="69" type="curve" smooth="yes"/>
      <point x="396" y="31"/>
      <point x="382" y="22"/>
      <point x="318" y="16" type="curve"/>
      <point x="318" y="0" type="line"/>
      <point x="564" y="0" type="line"/>
    </contour>
    <contour>
      <point x="175" y="262" type="line"/>
      <point x="325" y="522" type="line"/>
      <point x="369" y="262" type="line"/>
    </contour>
    <contour>
      <point x="429" y="704" type="line"/>
      <point x="460" y="704" type="line"/>
      <point x="344" y="853" type="line" smooth="yes"/>
      <point x="331" y="869"/>
      <point x="320" y="876"/>
      <point x="305" y="876" type="curve" smooth="yes"/>
      <point x="285" y="876"/>
      <point x="270" y="861"/>
      <point x="270" y="842" type="curve" smooth="yes"/>
      <point x="270" y="830"/>
      <point x="276" y="820"/>
      <point x="289" y="810" type="curve" smooth="yes"/>
    </contour>
  </outline>
</glyph>
<glyph name="Aacute" format="1">
  <advance width="611"/>
  <unicode hex="00C1"/>
  <outline>
    <contour>
      <point x="564" y="16" type="line"/>
      <point x="507" y="21"/>
      <point x="501" y="29"/>
      <point x="488" y="102" type="curve" smooth="yes"/>
      <point x="394" y="668" type="line"/>
      <point x="368" y="668" type="line"/>
      <point x="78" y="168" type="line" smooth="yes"/>
      <point x="-1" y="35"/>
      <point x="-11" y="24"/>
      <point x="-51" y="16" type="curve"/>
      <point x="-51" y="0" type="line"/>
      <point x="136" y="0" type="line"/>
      <point x="136" y="16" type="line"/>
      <point x="85" y="21"/>
      <point x="77" y="26"/>
      <point x="77" y="51" type="curve" smooth="yes"/>
      <point x="77" y="70"/>
      <point x="80" y="79"/>
      <point x="97" y="113" type="curve" smooth="yes"/>
      <point x="154" y="226" type="line"/>
      <point x="374" y="226" type="line"/>
      <point x="394" y="95" type="line" smooth="yes"/>
      <point x="395" y="86"/>
      <point x="396" y="77"/>
      <point x="396" y="69" type="curve" smooth="yes"/>
      <point x="396" y="31"/>
      <point x="382" y="22"/>
      <point x="318" y="16" type="curve"/>
      <point x="318" y="0" type="line"/>
      <point x="564" y="0" type="line"/>
    </contour>
    <contour>
      <point x="175" y="262" type="line"/>
      <point x="325" y="522" type="line"/>
      <point x="369" y="262" type="line"/>
    </contour>
    <contour>
      <point x="319" y="706" type="line"/>
      <point x="354" y="706" type="line"/>
      <point x="525" y="812" type="line" smooth="yes"/>
      <point x="537" y="819"/>
      <point x="542" y="828"/>
      <point x="542" y="840" type="curve" smooth="yes"/>
      <point x="542" y="860"/>
      <point x="526" y="876"/>
      <point x="506" y="876" type="curve" smooth="yes"/>
      <point x="496" y="876"/>
      <point x="488" y="872"/>
      <point x="481" y="866" type="curve"/>
    </contour>
  </outline>
</glyph>
<glyph name="Atilde" format="1">
  <advance width="611"/>
  <unicode hex="00C3"/>
  <outline>
    <contour>
      <point x="564" y="16" type="line"/>
      <point x="507" y="21"/>
      <point x="501" y="29"/>
      <point x="488" y="102" type="curve" smooth="yes"/>
      <point x="394" y="668" type="line"/>
      <point x="368" y="668" type="line"/>
      <point x="78" y="168" type="line" smooth="yes"/>
      <point x="-1" y="35"/>
      <point x="-11" y="24"/>
      <point x="-51" y="16" type="curve"/>
      <point x="-51" y="0" type="line"/>
      <point x="136" y="0" type="line"/>
      <point x="136" y="16" type="line"/>
      <point x="85" y="21"/>
      <point x="77" y="26"/>
      <point x="77" y="51" type="curve" smooth="yes"/>
      <point x="77" y="70"/>
      <point x="80" y="79"/>
      <point x="97" y="113" type="curve" smooth="yes"/>
      <point x="154" y="226" type="line"/>
      <point x="374" y="226" type="line"/>
      <point x="394" y="95" type="line" smooth="yes"/>
      <point x="395" y="86"/>
      <point x="396" y="77"/>
      <point x="396" y="69" type="curve" smooth="yes"/>
      <point x="396" y="31"/>
      <point x="382" y="22"/>
      <point x="318" y="16" type="curve"/>
      <point x="318" y="0" type="line"/>
      <point x="564" y="0" type="line"/>
    </contour>
    <contour>
      <point x="175" y="262" type="line"/>
      <point x="325" y="522" type="line"/>
      <point x="369" y="262" type="line"/>
    </contour>
    <contour>
      <point x="538" y="836" type="line"/>
      <point x="527" y="803"/>
      <point x="514" y="792"/>
      <point x="487" y="792" type="curve" smooth="yes"/>
      <point x="472" y="792"/>
      <point x="455" y="797"/>
      <point x="425" y="811" type="curve" smooth="yes"/>
      <point x="387" y="828"/>
      <point x="361" y="835"/>
      <point x="339" y="835" type="curve" smooth="yes"/>
      <point x="287" y="835"/>
      <point x="259" y="806"/>
      <point x="239" y="729" type="curve"/>
      <point x="268" y="729" type="line"/>
      <point x="278" y="761"/>
      <point x="294" y="776"/>
      <point x="319" y="776" type="curve" smooth="yes"/>
      <point x="336" y="776"/>
      <point x="360" y="769"/>
      <point x="414" y="747" type="curve" smooth="yes"/>
      <point x="440" y="737"/>
      <point x="459" y="732"/>
      <point x="471" y="732" type="curve" smooth="yes"/>
      <point x="519" y="732"/>
      <point x="552" y="769"/>
      <point x="566" y="836" type="curve"/>
    </contour>
  </outline>
</glyph>
<glyph name="Adieresis" format="1">
  <advance width="611"/>
  <unicode hex="00C4"/>
  <outline>
    <contour>
      <point x="564" y="16" type="line"/>
      <point x="507" y="21"/>
      <point x="501" y="29"/>
      <point x="488" y="102" type="curve" smooth="yes"/>
      <point x="394" y="668" type="line"/>
      <point x="368" y="668" type="line"/>
      <point x="78" y="168" type="line" smooth="yes"/>
      <point x="-1" y="35"/>
      <point x="-11" y="24"/>
      <point x="-51" y="16" type="curve"/>
      <point x="-51" y="0" type="line"/>
      <point x="136" y="0" type="line"/>
      <point x="136" y="16" type="line"/>
      <point x="85" y="21"/>
      <point x="77" y="26"/>
      <point x="77" y="51" type="curve" smooth="yes"/>
      <point x="77" y="70"/>
      <point x="80" y="79"/>
      <point x="97" y="113" type="curve" smooth="yes"/>
      <point x="154" y="226" type="line"/>
      <point x="374" y="226" type="line"/>
      <point x="394" y="95" type="line" smooth="yes"/>
      <point x="395" y="86"/>
      <point x="396" y="77"/>
      <point x="396" y="69" type="curve" smooth="yes"/>
      <point x="396" y="31"/>
      <point x="382" y="22"/>
      <point x="318" y="16" type="curve"/>
      <point x="318" y="0" type="line"/>
      <point x="564" y="0" type="line"/>
    </contour>
    <contour>
      <point x="175" y="262" type="line"/>
      <point x="325" y="522" type="line"/>
      <point x="369" y="262" type="line"/>
    </contour>
    <contour>
      <point x="296" y="818" type="curve" smooth="yes"/>
      <point x="268" y="818"/>
      <point x="246" y="796"/>
      <point x="246" y="770" type="curve" smooth="yes"/>
      <point x="246" y="742"/>
      <point x="268" y="720"/>
      <point x="295" y="720" type="curve" smooth="yes"/>
      <point x="322" y="720"/>
      <point x="344" y="742"/>
      <point x="344" y="769" type="curve" smooth="yes"/>
      <point x="344" y="794"/>
      <point x="321" y="818"/>
    </contour>
    <contour>
      <point x="496" y="818" type="curve" smooth="yes"/>
      <point x="468" y="818"/>
      <point x="446" y="796"/>
      <point x="446" y="770" type="curve" smooth="yes"/>
      <point x="446" y="742"/>
      <point x="468" y="720"/>
      <point x="495" y="720" type="curve" smooth="yes"/>
      <point x="522" y="720"/>
      <point x="544" y="742"/>
      <point x="544" y="769" type="curve" smooth="yes"/>
      <point x="544" y="794"/>
      <point x="521" y="818"/>
    </contour>
  </outline>
</glyph>
<glyph name="Aring" format="1">
  <advance width="611"/>
  <unicode hex="00C5"/>
  <outline>
    <contour>
      <point x="564" y="16" type="line"/>
      <point x="507" y="21"/>
      <point x="501" y="29"/>
      <point x="488" y="102" type="curve" smooth="yes"/>
      <point x="394" y="668" type="line"/>
      <point x="368" y="668" type="line"/>
      <point x="78" y="168" type="line" smooth="yes"/>
      <point x="-1" y="35"/>
      <point x="-11" y="24"/>
      <point x="-51" y="16" type="curve"/>
      <point x="-51" y="0" type="line"/>
      <point x="136" y="0" type="line"/>
      <point x="136" y="16" type="line"/>
      <point x="85" y="21"/>
      <point x="77" y="26"/>
      <point x="77" y="51" type="curve" smooth="yes"/>
      <point x="77" y="70"/>
      <point x="80" y="79"/>
      <point x="97" y="113" type="curve" smooth="yes"/>
      <point x="154" y="226" type="line"/>
      <point x="374" y="226" type="line"/>
      <point x="394" y="95" type="line" smooth="yes"/>
      <point x="395" y="86"/>
      <point x="396" y="77"/>
      <point x="396" y="69" type="curve" smooth="yes"/>
      <point x="396" y="31"/>
      <point x="382" y="22"/>
      <point x="318" y="16" type="curve"/>
      <point x="318" y="0" type="line"/>
      <point x="564" y="0" type="line"/>
    </contour>
    <contour>
      <point x="175" y="262" type="line"/>
      <point x="325" y="522" type="line"/>
      <point x="369" y="262" type="line"/>
    </contour>
    <contour>
      <point x="388" y="904" type="curve" smooth="yes"/>
      <point x="334" y="904"/>
      <point x="289" y="859"/>
      <point x="289" y="805" type="curve" smooth="yes"/>
      <point x="289" y="749"/>
      <point x="333" y="705"/>
      <point x="389" y="705" type="curve" smooth="yes"/>
      <point x="444" y="705"/>
      <point x="489" y="750"/>
      <point x="489" y="804" type="curve" smooth="yes"/>
      <point x="489" y="859"/>
      <point x="443" y="904"/>
    </contour>
    <contour>
      <point x="388" y="870" type="curve" smooth="yes"/>
      <point x="425" y="870"/>
      <point x="455" y="840"/>
      <point x="455" y="804" type="curve" smooth="yes"/>
      <point x="455" y="767"/>
      <point x="426" y="739"/>
      <point x="388" y="739" type="curve" smooth="yes"/>
      <point x="352" y="739"/>
      <point x="323" y="768"/>
      <point x="323" y="805" type="curve" smooth="yes"/>
      <point x="323" y="840"/>
      <point x="353" y="870"/>
    </contour>
  </outline>
</glyph>
<glyph name="AE" format="1">
  <advance width="889"/>
  <unicode hex="00C6"/>
  <outline>
    <contour>
      <point x="826" y="169" type="line"/>
      <point x="750" y="60"/>
      <point x="696" y="33"/>
      <point x="546" y="33" type="curve" smooth="yes"/>
      <point x="516" y="33" type="line" smooth="yes"/>
      <point x="481" y="33"/>
      <point x="465" y="42"/>
      <point x="465" y="62" type="curve" smooth="yes"/>
      <point x="465" y="74"/>
      <point x="478" y="122"/>
      <point x="536" y="328" type="curve"/>
      <point x="576" y="328" type="line" smooth="yes"/>
      <point x="673" y="328"/>
      <point x="694" y="319"/>
      <point x="694" y="278" type="curve" smooth="yes"/>
      <point x="694" y="264"/>
      <point x="692" y="250"/>
      <point x="688" y="226" type="curve"/>
      <point x="705" y="222" type="line"/>
      <point x="774" y="454" type="line"/>
      <point x="756" y="458" type="line"/>
      <point x="714" y="367"/>
      <point x="704" y="362"/>
      <point x="545" y="361" type="curve"/>
      <point x="606" y="583" type="line" smooth="yes"/>
      <point x="615" y="615"/>
      <point x="623" y="620"/>
      <point x="670" y="620" type="curve" smooth="yes"/>
      <point x="834" y="620"/>
      <point x="862" y="608"/>
      <point x="862" y="538" type="curve" smooth="yes"/>
      <point x="862" y="532"/>
      <point x="862" y="515"/>
      <point x="861" y="502" type="curve"/>
      <point x="878" y="500" type="line"/>
      <point x="911" y="653" type="line"/>
      <point x="394" y="653" type="line"/>
      <point x="394" y="638" type="line"/>
      <point x="405" y="637"/>
      <point x="416" y="636"/>
      <point x="420" y="636" type="curve"/>
      <point x="447" y="634"/>
      <point x="458" y="626"/>
      <point x="458" y="610" type="curve" smooth="yes"/>
      <point x="458" y="598"/>
      <point x="456" y="594"/>
      <point x="426" y="557" type="curve" smooth="yes"/>
      <point x="57" y="92" type="line" smooth="yes"/>
      <point x="9" y="32"/>
      <point x="-3" y="22"/>
      <point x="-27" y="16" type="curve"/>
      <point x="-27" y="0" type="line"/>
      <point x="160" y="0" type="line"/>
      <point x="160" y="16" type="line"/>
      <point x="107" y="22"/>
      <point x="96" y="28"/>
      <point x="96" y="47" type="curve" smooth="yes"/>
      <point x="96" y="70"/>
      <point x="135" y="131"/>
      <point x="196" y="204" type="curve"/>
      <point x="200" y="208"/>
      <point x="210" y="220"/>
      <point x="221" y="234" type="curve"/>
      <point x="411" y="234" type="line"/>
      <point x="362" y="64" type="line" smooth="yes"/>
      <point x="350" y="27"/>
      <point x="343" y="22"/>
      <point x="282" y="16" type="curve"/>
      <point x="282" y="0" type="line"/>
      <point x="780" y="0" type="line"/>
      <point x="844" y="164" type="line"/>
    </contour>
    <contour>
      <point x="249" y="271" type="line"/>
      <point x="517" y="613" type="line"/>
      <point x="422" y="271" type="line"/>
    </contour>
  </outline>
</glyph>
<glyph name="Igrave" format="1">
  <advance width="333"/>
  <unicode hex="00CC"/>
  <outline>
    <contour>
      <point x="-8" y="0" type="line"/>
      <point x="236" y="0" type="line"/>
      <point x="236" y="16" type="line"/>
      <point x="179" y="23"/>
      <point x="168" y="29"/>
      <point x="168" y="57" type="curve" smooth="yes"/>
      <point x="168" y="76"/>
      <point x="170" y="88"/>
      <point x="179" y="120" type="curve" smooth="yes"/>
      <point x="302" y="563" type="line" smooth="yes"/>
      <point x="320" y="621"/>
      <point x="327" y="627"/>
      <point x="384" y="637" type="curve"/>
      <point x="384" y="653" type="line"/>
      <point x="137" y="653" type="line"/>
      <point x="137" y="637" type="line"/>
      <point x="195" y="630"/>
      <point x="207" y="622"/>
      <point x="207" y="594" type="curve" smooth="yes"/>
      <point x="207" y="580"/>
      <point x="203" y="557"/>
      <point x="196" y="532" type="curve" smooth="yes"/>
      <point x="73" y="90" type="line" smooth="yes"/>
      <point x="55" y="32"/>
      <point x="48" y="26"/>
      <point x="-8" y="16" type="curve"/>
    </contour>
    <contour>
      <point x="321" y="704" type="line"/>
      <point x="352" y="704" type="line"/>
      <point x="236" y="853" type="line" smooth="yes"/>
      <point x="223" y="869"/>
      <point x="212" y="876"/>
      <point x="197" y="876" type="curve" smooth="yes"/>
      <point x="177" y="876"/>
      <point x="162" y="861"/>
      <point x="162" y="842" type="curve" smooth="yes"/>
      <point x="162" y="830"/>
      <point x="168" y="820"/>
      <point x="181" y="810" type="curve" smooth="yes"/>
    </contour>
  </outline>
</glyph>
<glyph name="Ntilde" format="1">
  <advance width="667"/>
  <unicode hex="00D1"/>
  <outline>
    <contour>
      <point x="727" y="653" type="line"/>
      <point x="528" y="653" type="line"/>
      <point x="528" y="637" type="line"/>
      <point x="585" y="632"/>
      <point x="598" y="622"/>
      <point x="598" y="586" type="curve" smooth="yes"/>
      <point x="598" y="574"/>
      <point x="596" y="562"/>
      <point x="589" y="542" type="curve" smooth="yes"/>
      <point x="588" y="539"/>
      <point x="587" y="535"/>
      <point x="587" y="534" type="curve"/>
      <point x="485" y="154" type="line"/>
      <point x="277" y="653" type="line"/>
      <point x="116" y="653" type="line"/>
      <point x="116" y="637" type="line"/>
      <point x="163" y="633"/>
      <point x="184" y="620"/>
      <point x="202" y="581" type="curve"/>
      <point x="83" y="164" type="line" smooth="yes"/>
      <point x="45" y="36"/>
      <point x="37" y="24"/>
      <point x="-20" y="16" type="curve"/>
      <point x="-20" y="0" type="line"/>
      <point x="178" y="0" type="line"/>
      <point x="178" y="16" type="line"/>
      <point x="127" y="20"/>
      <point x="108" y="31"/>
      <point x="108" y="59" type="curve" smooth="yes"/>
      <point x="108" y="72"/>
      <point x="111" y="92"/>
      <point x="117" y="113" type="curve" smooth="yes"/>
      <point x="231" y="535" type="line"/>
      <point x="461" y="-15" type="line"/>
      <point x="479" y="-15" type="line"/>
      <point x="623" y="488" type="line" smooth="yes"/>
      <point x="660" y="617"/>
      <point x="664" y="623"/>
      <point x="727" y="637" type="curve"/>
    </contour>
    <contour>
      <point x="587" y="836" type="line"/>
      <point x="576" y="803"/>
      <point x="563" y="792"/>
      <point x="536" y="792" type="curve" smooth="yes"/>
      <point x="521" y="792"/>
      <point x="504" y="797"/>
      <point x="474" y="811" type="curve" smooth="yes"/>
      <point x="436" y="828"/>
      <point x="410" y="835"/>
      <point x="388" y="835" type="curve" smooth="yes"/>
      <point x="336" y="835"/>
      <point x="308" y="806"/>
      <point x="288" y="729" type="curve"/>
      <point x="317" y="729" type="line"/>
      <point x="327" y="761"/>
      <point x="343" y="776"/>
      <point x="368" y="776" type="curve" smooth="yes"/>
      <point x="385" y="776"/>
      <point x="409" y="769"/>
      <point x="463" y="747" type="curve" smooth="yes"/>
      <point x="489" y="737"/>
      <point x="508" y="732"/>
      <point x="520" y="732" type="curve" smooth="yes"/>
      <point x="568" y="732"/>
      <point x="601" y="769"/>
      <point x="615" y="836" type="curve"/>
    </contour>
  </outline>
</glyph>
<glyph name="Ograve" format="1">
  <advance width="722"/>
  <unicode hex="00D2"/>
  <outline>
    <contour>
      <point x="474" y="666" type="curve" smooth="yes"/>
      <point x="390" y="666"/>
      <point x="300" y="626"/>
      <point x="220" y="553" type="curve" smooth="yes"/>
      <point x="119" y="460"/>
      <point x="60" y="338"/>
      <point x="60" y="221" type="curve" smooth="yes"/>
      <point x="60" y="81"/>
      <point x="151" y="-18"/>
      <point x="278" y="-18" type="curve" smooth="yes"/>
      <point x="486" y="-18"/>
      <point x="688" y="192"/>
      <point x="699" y="418" type="curve" smooth="yes"/>
      <point x="706" y="559"/>
      <point x="608" y="666"/>
    </contour>
    <contour>
      <point x="465" y="633" type="curve" smooth="yes"/>
      <point x="544" y="633"/>
      <point x="594" y="575"/>
      <point x="594" y="481" type="curve" smooth="yes"/>
      <point x="594" y="373"/>
      <point x="547" y="227"/>
      <point x="482" y="133" type="curve" smooth="yes"/>
      <point x="427" y="54"/>
      <point x="365" y="15"/>
      <point x="295" y="15" type="curve" smooth="yes"/>
      <point x="211" y="15"/>
      <point x="165" y="76"/>
      <point x="165" y="184" type="curve" smooth="yes"/>
      <point x="165" y="278"/>
      <point x="215" y="427"/>
      <point x="275" y="514" type="curve" smooth="yes"/>
      <point x="331" y="595"/>
      <point x="392" y="633"/>
    </contour>
    <contour>
      <point x="504" y="704" type="line"/>
      <point x="535" y="704" type="line"/>
      <point x="419" y="853" type="line" smooth="yes"/>
      <point x="406" y="869"/>
      <point x="395" y="876"/>
      <point x="380" y="876" type="curve" smooth="yes"/>
      <point x="360" y="876"/>
      <point x="345" y="861"/>
      <point x="345" y="842" type="curve" smooth="yes"/>
      <point x="345" y="830"/>
      <point x="351" y="820"/>
      <point x="364" y="810" type="curve" smooth="yes"/>
    </contour>
  </outline>
</glyph>
<glyph name="Oacute" format="1">
  <advance width="722"/>
  <unicode hex="00D3"/>
  <outline>
    <contour>
      <point x="474" y="666" type="curve" smooth="yes"/>
      <point x="390" y="666"/>
      <point x="300" y="626"/>
      <point x="220" y="553" type="curve" smooth="yes"/>
      <point x="119" y="460"/>
      <point x="60" y="338"/>
      <point x="60" y="221" type="curve" smooth="yes"/>
      <point x="60" y="81"/>
      <point x="151" y="-18"/>
      <point x="278" y="-18" type="curve" smooth="yes"/>
      <point x="486" y="-18"/>
      <point x="688" y="192"/>
      <point x="699" y="418" type="curve" smooth="yes"/>
      <point x="706" y="559"/>
      <point x="608" y="666"/>
    </contour>
    <contour>
      <point x="465" y="633" type="curve" smooth="yes"/>
      <point x="544" y="633"/>
      <point x="594" y="575"/>
      <point x="594" y="481" type="curve" smooth="yes"/>
      <point x="594" y="373"/>
      <point x="547" y="227"/>
      <point x="482" y="133" type="curve" smooth="yes"/>
      <point x="427" y="54"/>
      <point x="365" y="15"/>
      <point x="295" y="15" type="curve" smooth="yes"/>
      <point x="211" y="15"/>
      <point x="165" y="76"/>
      <point x="165" y="184" type="curve" smooth="yes"/>
      <point x="165" y="278"/>
      <point x="215" y="427"/>
      <point x="275" y="514" type="curve" smooth="yes"/>
      <point x="331" y="595"/>
      <point x="392" y="633"/>
    </contour>
    <contour>
      <point x="389" y="706" type="line"/>
      <point x="424" y="706" type="line"/>
      <point x="595" y="812" type="line" smooth="yes"/>
      <point x="607" y="819"/>
      <point x="612" y="828"/>
      <point x="612" y="840" type="curve" smooth="yes"/>
      <point x="612" y="860"/>
      <point x="596" y="876"/>
      <point x="576" y="876" type="curve" smooth="yes"/>
      <point x="566" y="876"/>
      <point x="558" y="872"/>
      <point x="551" y="866" type="curve"/>
    </contour>
  </outline>
</glyph>
<glyph name="Otilde" format="1">
  <advance width="722"/>
  <unicode hex="00D5"/>
  <outline>
    <contour>
      <point x="474" y="666" type="curve" smooth="yes"/>
      <point x="390" y="666"/>
      <point x="300" y="626"/>
      <point x="220" y="553" type="curve" smooth="yes"/>
      <point x="119" y="460"/>
      <point x="60" y="338"/>
      <point x="60" y="221" type="curve" smooth="yes"/>
      <point x="60" y="81"/>
      <point x="151" y="-18"/>
      <point x="278" y="-18" type="curve" smooth="yes"/>
      <point x="486" y="-18"/>
      <point x="688" y="192"/>
      <point x="699" y="418" type="curve" smooth="yes"/>
      <point x="706" y="559"/>
      <point x="608" y="666"/>
    </contour>
    <contour>
      <point x="465" y="633" type="curve" smooth="yes"/>
      <point x="544" y="633"/>
      <point x="594" y="575"/>
      <point x="594" y="481" type="curve" smooth="yes"/>
      <point x="594" y="373"/>
      <point x="547" y="227"/>
      <point x="482" y="133" type="curve" smooth="yes"/>
      <point x="427" y="54"/>
      <point x="365" y="15"/>
      <point x="295" y="15" type="curve" smooth="yes"/>
      <point x="211" y="15"/>
      <point x="165" y="76"/>
      <point x="165" y="184" type="curve" smooth="yes"/>
      <point x="165" y="278"/>
      <point x="215" y="427"/>
      <point x="275" y="514" type="curve" smooth="yes"/>
      <point x="331" y="595"/>
      <point x="392" y="633"/>
    </contour>
    <contour>
      <point x="604" y="836" type="line"/>
      <point x="593" y="803"/>
      <point x="580" y="792"/>
      <point x="553" y="792" type="curve" smooth="yes"/>
      <point x="538" y="792"/>
      <point x="521" y="797"/>
      <point x="491" y="811" type="curve" smooth="yes"/>
      <point x="453" y="828"/>
      <point x="427" y="835"/>
      <point x="405" y="835" type="curve" smooth="yes"/>
      <point x="353" y="835"/>
      <point x="325" y="806"/>
      <point x="305" y="729" type="curve"/>
      <point x="334" y="729" type="line"/>
      <point x="344" y="761"/>
      <point x="360" y="776"/>
      <point x="385" y="776" type="curve" smooth="yes"/>
      <point x="402" y="776"/>
      <point x="426" y="769"/>
      <point x="480" y="747" type="curve" smooth="yes"/>
      <point x="506" y="737"/>
      <point x="525" y="732"/>
      <point x="537" y="732" type="curve" smooth="yes"/>
      <point x="585" y="732"/>
      <point x="618" y="769"/>
      <point x="632" y="836" type="curve"/>
    </contour>
  </outline>
</glyph>
<glyph name="multiply" format="1">
  <advance width="675"/>
  <unicode hex="00D7"/>
  <outline>
    <contour>
      <point x="289" y="253" type="line"/>
      <point x="93" y="56" type="line"/>
      <point x="141" y="8" type="line"/>
      <point x="337" y="205" type="line"/>
      <point x="534" y="8" type="line"/>
      <point x="582" y="56" type="line"/>
      <point x="385" y="253" type="line"/>
      <point x="582" y="449" type="line"/>
      <point x="534" y="497" type="line"/>
      <point x="337" y="300" type="line"/>
      <point x="141" y="497" type="line"/>
      <point x="93" y="449" type="line"/>
    </contour>
  </outline>
</glyph>
<glyph name="Ugrave" format="1">
  <advance width="722"/>
  <unicode hex="00D9"/>
  <outline>
    <contour>
      <point x="765" y="653" type="line"/>
      <point x="566" y="653" type="line"/>
      <point x="566" y="637" type="line"/>
      <point x="598" y="634"/>
      <point x="608" y="632"/>
      <point x="620" y="624" type="curve" smooth="yes"/>
      <point x="630" y="618"/>
      <point x="637" y="604"/>
      <point x="637" y="591" type="curve" smooth="yes"/>
      <point x="637" y="575"/>
      <point x="611" y="473"/>
      <point x="563" y="304" type="curve" smooth="yes"/>
      <point x="559" y="291"/>
      <point x="555" y="274"/>
      <point x="550" y="255" type="curve" smooth="yes"/>
      <point x="532" y="190"/>
      <point x="517" y="150"/>
      <point x="495" y="116" type="curve" smooth="yes"/>
      <point x="456" y="54"/>
      <point x="402" y="23"/>
      <point x="332" y="23" type="curve" smooth="yes"/>
      <point x="249" y="23"/>
      <point x="192" y="71"/>
      <point x="192" y="141" type="curve" smooth="yes"/>
      <point x="192" y="175"/>
      <point x="223" y="296"/>
      <point x="290" y="527" type="curve" smooth="yes"/>
      <point x="292" y="534"/>
      <point x="294" y="541"/>
      <point x="295" y="546" type="curve"/>
      <point x="316" y="616"/>
      <point x="332" y="630"/>
      <point x="400" y="637" type="curve"/>
      <point x="400" y="653" type="line"/>
      <point x="127" y="653" type="line"/>
      <point x="127" y="637" type="line"/>
      <point x="194" y="631"/>
      <point x="205" y="625"/>
      <point x="205" y="596" type="curve" smooth="yes"/>
      <point x="205" y="584"/>
      <point x="202" y="568"/>
      <point x="198" y="551" type="curve" smooth="yes"/>
      <point x="145" y="359" type="line" smooth="yes"/>
      <point x="115" y="251"/>
      <point x="102" y="187"/>
      <point x="102" y="147" type="curve" smooth="yes"/>
      <point x="102" y="51"/>
      <point x="194" y="-18"/>
      <point x="320" y="-18" type="curve" smooth="yes"/>
      <point x="451" y="-18"/>
      <point x="534" y="53"/>
      <point x="578" y="203" type="curve" smooth="yes"/>
      <point x="661" y="488" type="line" smooth="yes"/>
      <point x="699" y="618"/>
      <point x="703" y="623"/>
      <point x="765" y="637" type="curve"/>
    </contour>
    <contour>
      <point x="511" y="704" type="line"/>
      <point x="542" y="704" type="line"/>
      <point x="426" y="853" type="line" smooth="yes"/>
      <point x="413" y="869"/>
      <point x="402" y="876"/>
      <point x="387" y="876" type="curve" smooth="yes"/>
      <point x="367" y="876"/>
      <point x="352" y="861"/>
      <point x="352" y="842" type="curve" smooth="yes"/>
      <point x="352" y="830"/>
      <point x="358" y="820"/>
      <point x="371" y="810" type="curve" smooth="yes"/>
    </contour>
  </outline>
</glyph>
<glyph name="Thorn" format="1">
  <advance width="611"/>
  <unicode hex="00DE"/>
  <outline>
    <contour>
      <point x="146" y="637" type="line"/>
      <point x="203" y="630"/>
      <point x="217" y="622"/>
      <point x="217" y="595" type="curve" smooth="yes"/>
      <point x="217" y="581"/>
      <point x="213" y="561"/>
      <point x="200" y="515" type="curve" smooth="yes"/>
      <point x="82" y="90" type="line" smooth="yes"/>
      <point x="64" y="30"/>
      <point x="57" y="24"/>
      <point x="0" y="16" type="curve"/>
      <point x="0" y="0" type="line"/>
      <point x="245" y="0" type="line"/>
      <point x="245" y="16" type="line"/>
      <point x="182" y="25"/>
      <point x="177" y="28"/>
      <point x="177" y="62" type="curve" smooth="yes"/>
      <point x="177" y="74"/>
      <point x="180" y="87"/>
      <point x="189" y="120" type="curve" smooth="yes"/>
      <point x="206" y="180" type="line"/>
      <point x="230" y="173"/>
      <point x="253" y="170"/>
      <point x="295" y="170" type="curve" smooth="yes"/>
      <point x="379" y="170"/>
      <point x="447" y="187"/>
      <point x="490" y="218" type="curve" smooth="yes"/>
      <point x="540" y="255"/>
      <point x="569" y="310"/>
      <point x="569" y="369" type="curve" smooth="yes"/>
      <point x="569" y="465"/>
      <point x="494" y="518"/>
      <point x="358" y="518" type="curve" smooth="yes"/>
      <point x="302" y="518" type="line"/>
      <point x="322" y="595" type="line"/>
      <point x="331" y="623"/>
      <point x="344" y="632"/>
      <point x="384" y="637" type="curve"/>
      <point x="384" y="653" type="line"/>
      <point x="146" y="653" type="line"/>
    </contour>
    <contour>
      <point x="286" y="459" type="line" smooth="yes"/>
      <point x="292" y="480"/>
      <point x="304" y="488"/>
      <point x="332" y="488" type="curve" smooth="yes"/>
      <point x="370" y="488"/>
      <point x="409" y="478"/>
      <point x="429" y="464" type="curve" smooth="yes"/>
      <point x="455" y="445"/>
      <point x="466" y="416"/>
      <point x="466" y="368" type="curve" smooth="yes"/>
      <point x="466" y="303"/>
      <point x="443" y="257"/>
      <point x="399" y="231" type="curve" smooth="yes"/>
      <point x="368" y="214"/>
      <point x="329" y="206"/>
      <point x="267" y="206" type="curve" smooth="yes"/>
      <point x="250" y="206"/>
      <point x="245" y="206"/>
      <point x="215" y="211" type="curve"/>
    </contour>
  </outline>
</glyph>
<glyph name="germandbls" format="1">
  <advance width="500"/>
  <unicode hex="00DF"/>
  <outline>
    <contour>
      <point x="330" y="384" type="line"/>
      <point x="338" y="387" type="line" smooth="yes"/>
      <point x="448" y="428"/>
      <point x="493" y="475"/>
      <point x="493" y="548" type="curve" smooth="yes"/>
      <point x="493" y="626"/>
      <point x="437" y="679"/>
      <point x="354" y="679" type="curve" smooth="yes"/>
      <point x="230" y="679"/>
      <point x="153" y="571"/>
      <point x="95" y="315" type="curve" smooth="yes"/>
      <point x="23" y="-4" type="line" smooth="yes"/>
      <point x="-7" y="-139"/>
      <point x="-34" y="-183"/>
      <point x="-83" y="-183" type="curve" smooth="yes"/>
      <point x="-94" y="-183"/>
      <point x="-101" y="-180"/>
      <point x="-101" y="-175" type="curve" smooth="yes"/>
      <point x="-101" y="-172"/>
      <point x="-100" y="-169"/>
      <point x="-97" y="-165" type="curve"/>
      <point x="-92" y="-157"/>
      <point x="-89" y="-146"/>
      <point x="-89" y="-139" type="curve" smooth="yes"/>
      <point x="-89" y="-118"/>
      <point x="-106" y="-103"/>
      <point x="-129" y="-103" type="curve" smooth="yes"/>
      <point x="-153" y="-103"/>
      <point x="-168" y="-119"/>
      <point x="-168" y="-145" type="curve" smooth="yes"/>
      <point x="-168" y="-182"/>
      <point x="-137" y="-207"/>
      <point x="-90" y="-207" type="curve" smooth="yes"/>
      <point x="-10" y="-207"/>
      <point x="59" y="-125"/>
      <point x="95" y="12" type="curve" smooth="yes"/>
      <point x="206" y="438" type="line" smooth="yes"/>
      <point x="244" y="582"/>
      <point x="293" y="656"/>
      <point x="351" y="656" type="curve" smooth="yes"/>
      <point x="391" y="656"/>
      <point x="413" y="628"/>
      <point x="413" y="577" type="curve" smooth="yes"/>
      <point x="413" y="470"/>
      <point x="358" y="397"/>
      <point x="277" y="397" type="curve" smooth="yes"/>
      <point x="264" y="397"/>
      <point x="260" y="394"/>
      <point x="260" y="384" type="curve" smooth="yes"/>
      <point x="260" y="374"/>
      <point x="266" y="370"/>
      <point x="286" y="369" type="curve" smooth="yes"/>
      <point x="341" y="367"/>
      <point x="367" y="332"/>
      <point x="367" y="262" type="curve" smooth="yes"/>
      <point x="367" y="194"/>
      <point x="348" y="113"/>
      <point x="320" y="63" type="curve" smooth="yes"/>
      <point x="300" y="28"/>
      <point x="275" y="9"/>
      <point x="249" y="9" type="curve" smooth="yes"/>
      <point x="240" y="9"/>
      <point x="231" y="15"/>
      <point x="231" y="22" type="curve" smooth="yes"/>
      <point x="231" y="24"/>
      <point x="233" y="29"/>
      <point x="235" y="33" type="curve"/>
      <point x="241" y="43"/>
      <point x="243" y="51"/>
      <point x="243" y="60" type="curve" smooth="yes"/>
      <point x="243" y="84"/>
      <point x="228" y="100"/>
      <point x="205" y="100" type="curve" smooth="yes"/>
      <point x="179" y="100"/>
      <point x="161" y="81"/>
      <point x="161" y="53" type="curve" smooth="yes"/>
      <point x="161" y="14"/>
      <point x="193" y="-13"/>
      <point x="241" y="-13" type="curve" smooth="yes"/>
      <point x="287" y="-13"/>
      <point x="335" y="8"/>
      <point x="370" y="44" type="curve" smooth="yes"/>
      <point x="421" y="97"/>
      <point x="454" y="174"/>
      <point x="454" y="244" type="curve" smooth="yes"/>
      <point x="454" y="290"/>
      <point x="430" y="336"/>
      <point x="395" y="360" type="curve" smooth="yes"/>
      <point x="377" y="372"/>
      <point x="361" y="377"/>
      <point x="330" y="381" type="curve"/>
    </contour>
  </outline>
</glyph>
<glyph name="agrave" format="1">
  <advance width="500"/>
  <unicode hex="00E0"/>
  <outline>
    <contour>
      <point x="464" y="110" type="line"/>
      <point x="449" y="95"/>
      <point x="443" y="90"/>
      <point x="436" y="82" type="curve"/>
      <point x="406" y="51"/>
      <point x="393" y="41"/>
      <point x="384" y="41" type="curve" smooth="yes"/>
      <point x="376" y="41"/>
      <point x="370" y="47"/>
      <point x="370" y="54" type="curve" smooth="yes"/>
      <point x="370" y="74"/>
      <point x="412" y="245"/>
      <point x="459" y="417" type="curve" smooth="yes"/>
      <point x="462" y="427"/>
      <point x="463" y="429"/>
      <point x="465" y="438" type="curve"/>
      <point x="458" y="441" type="line"/>
      <point x="397" y="434" type="line"/>
      <point x="394" y="431" type="line"/>
      <point x="383" y="383" type="line"/>
      <point x="375" y="420"/>
      <point x="346" y="441"/>
      <point x="303" y="441" type="curve" smooth="yes"/>
      <point x="171" y="441"/>
      <point x="17" y="258"/>
      <point x="17" y="100" type="curve" smooth="yes"/>
      <point x="17" y="30"/>
      <point x="55" y="-11"/>
      <point x="119" y="-11" type="curve" smooth="yes"/>
      <point x="189" y="-11"/>
      <point x="232" y="22"/>
      <point x="320" y="146" type="curve"/>
      <point x="300" y="68"/>
      <point x="297" y="55"/>
      <point x="297" y="31" type="curve" smooth="yes"/>
      <point x="297" y="2"/>
      <point x="309" y="-10"/>
      <point x="337" y="-10" type="curve" smooth="yes"/>
      <point x="377" y="-10"/>
      <point x="402" y="9"/>
      <point x="476" y="100" type="curve"/>
    </contour>
    <contour>
      <point x="309" y="419" type="curve" smooth="yes"/>
      <point x="343" y="417"/>
      <point x="365" y="393"/>
      <point x="365" y="358" type="curve" smooth="yes"/>
      <point x="365" y="274"/>
      <point x="315" y="156"/>
      <point x="246" y="82" type="curve" smooth="yes"/>
      <point x="222" y="55"/>
      <point x="188" y="38"/>
      <point x="159" y="38" type="curve" smooth="yes"/>
      <point x="124" y="38"/>
      <point x="101" y="67"/>
      <point x="101" y="113" type="curve" smooth="yes"/>
      <point x="101" y="167"/>
      <point x="139" y="270"/>
      <point x="182" y="332" type="curve" smooth="yes"/>
      <point x="222" y="390"/>
      <point x="269" y="422"/>
    </contour>
    <contour>
      <point x="363" y="492" type="line"/>
      <point x="394" y="492" type="line"/>
      <point x="278" y="641" type="line" smooth="yes"/>
      <point x="265" y="657"/>
      <point x="254" y="664"/>
      <point x="239" y="664" type="curve" smooth="yes"/>
      <point x="219" y="664"/>
      <point x="204" y="649"/>
      <point x="204" y="630" type="curve" smooth="yes"/>
      <point x="204" y="618"/>
      <point x="210" y="608"/>
      <point x="223" y="598" type="curve" smooth="yes"/>
    </contour>
  </outline>
</glyph>
<glyph name="acircumflex" format="1">
  <advance width="500"/>
  <unicode hex="00E2"/>
  <outline>
    <contour>
      <point x="464" y="110" type="line"/>
      <point x="449" y="95"/>
      <point x="443" y="90"/>
      <point x="436" y="82" type="curve"/>
      <point x="406" y="51"/>
      <point x="393" y="41"/>
      <point x="384" y="41" type="curve" smooth="yes"/>
      <point x="376" y="41"/>
      <point x="370" y="47"/>
      <point x="370" y="54" type="curve" smooth="yes"/>
      <point x="370" y="74"/>
      <point x="412" y="245"/>
      <point x="459" y="417" type="curve" smooth="yes"/>
      <point x="462" y="427"/>
      <point x="463" y="429"/>
      <point x="465" y="438" type="curve"/>
      <point x="458" y="441" type="line"/>
      <point x="397" y="434" type="line"/>
      <point x="394" y="431" type="line"/>
      <point x="383" y="383" type="line"/>
      <point x="375" y="420"/>
      <point x="346" y="441"/>
      <point x="303" y="441" type="curve" smooth="yes"/>
      <point x="171" y="441"/>
      <point x="17" y="258"/>
      <point x="17" y="100" type="curve" smooth="yes"/>
      <point x="17" y="30"/>
      <point x="55" y="-11"/>
      <point x="119" y="-11" type="curve" smooth="yes"/>
      <point x="189" y="-11"/>
      <point x="232" y="22"/>
      <point x="320" y="146" type="curve"/>
      <point x="300" y="68"/>
      <point x="297" y="55"/>
      <point x="297" y="31" type="curve" smooth="yes"/>
      <point x="297" y="2"/>
      <point x="309" y="-10"/>
      <point x="337" y="-10" type="curve" smooth="yes"/>
      <point x="377" y="-10"/>
      <point x="402" y="9"/>
      <point x="476" y="100" type="curve"/>
    </contour>
    <contour>
      <point x="309" y="419" type="curve" smooth="yes"/>
      <point x="343" y="417"/>
      <point x="365" y="393"/>
      <point x="365" y="358" type="curve" smooth="yes"/>
      <point x="365" y="274"/>
      <point x="315" y="156"/>
      <point x="246" y="82" type="curve" smooth="yes"/>
      <point x="222" y="55"/>
      <point x="188" y="38"/>
      <point x="159" y="38" type="curve" smooth="yes"/>
      <point x="124" y="38"/>
      <point x="101" y="67"/>
      <point x="101" y="113" type="curve" smooth="yes"/>
      <point x="101" y="167"/>
      <point x="139" y="270"/>
      <point x="182" y="332" type="curve" smooth="yes"/>
      <point x="222" y="390"/>
      <point x="269" y="422"/>
    </contour>
    <contour>
      <point x="381" y="661" type="line"/>
      <point x="332" y="661" type="line"/>
      <point x="175" y="492" type="line"/>
      <point x="214" y="492" type="line"/>
      <point x="351" y="596" type="line"/>
      <point x="433" y="492" type="line"/>
      <point x="469" y="492" type="line"/>
    </contour>
  </outline>
</glyph>
<glyph name="atilde" format="1">
  <advance width="500"/>
  <unicode hex="00E3"/>
  <outline>
    <contour>
      <point x="464" y="110" type="line"/>
      <point x="449" y="95"/>
      <point x="443" y="90"/>
      <point x="436" y="82" type="curve"/>
      <point x="406" y="51"/>
      <point x="393" y="41"/>
      <point x="384" y="41" type="curve" smooth="yes"/>
      <point x="376" y="41"/>
      <point x="370" y="47"/>
      <point x="370" y="54" type="curve" smooth="yes"/>
      <point x="370" y="74"/>
      <point x="412" y="245"/>
      <point x="459" y="417" type="curve" smooth="yes"/>
      <point x="462" y="427"/>
      <point x="463" y="429"/>
      <point x="465" y="438" type="curve"/>
      <point x="458" y="441" type="line"/>
      <point x="397" y="434" type="line"/>
      <point x="394" y="431" type="line"/>
      <point x="383" y="383" type="line"/>
      <point x="375" y="420"/>
      <point x="346" y="441"/>
      <point x="303" y="441" type="curve" smooth="yes"/>
      <point x="171" y="441"/>
      <point x="17" y="258"/>
      <point x="17" y="100" type="curve" smooth="yes"/>
      <point x="17" y="30"/>
      <point x="55" y="-11"/>
      <point x="119" y="-11" type="curve" smooth="yes"/>
      <point x="189" y="-11"/>
      <point x="232" y="22"/>
      <point x="320" y="146" type="curve"/>
      <point x="300" y="68"/>
      <point x="297" y="55"/>
      <point x="297" y="31" type="curve" smooth="yes"/>
      <point x="297" y="2"/>
      <point x="309" y="-10"/>
      <point x="337" y="-10" type="curve" smooth="yes"/>
      <point x="377" y="-10"/>
      <point x="402" y="9"/>
      <point x="476" y="100" type="curve"/>
    </contour>
    <contour>
      <point x="309" y="419" type="curve" smooth="yes"/>
      <point x="343" y="417"/>
      <point x="365" y="393"/>
      <point x="365" y="358" type="curve" smooth="yes"/>
      <point x="365" y="274"/>
      <point x="315" y="156"/>
      <point x="246" y="82" type="curve" smooth="yes"/>
      <point x="222" y="55"/>
      <point x="188" y="38"/>
      <point x="159" y="38" type="curve" smooth="yes"/>
      <point x="124" y="38"/>
      <point x="101" y="67"/>
      <point x="101" y="113" type="curve" smooth="yes"/>
      <point x="101" y="167"/>
      <point x="139" y="270"/>
      <point x="182" y="332" type="curve" smooth="yes"/>
      <point x="222" y="390"/>
      <point x="269" y="422"/>
    </contour>
    <contour>
      <point x="483" y="624" type="line"/>
      <point x="472" y="591"/>
      <point x="459" y="580"/>
      <point x="432" y="580" type="curve" smooth="yes"/>
      <point x="417" y="580"/>
      <point x="400" y="585"/>
      <point x="370" y="599" type="curve" smooth="yes"/>
      <point x="332" y="616"/>
      <point x="306" y="623"/>
      <point x="284" y="623" type="curve" smooth="yes"/>
      <point x="232" y="623"/>
      <point x="204" y="594"/>
      <point x="184" y="517" type="curve"/>
      <point x="213" y="517" type="line"/>
      <point x="223" y="549"/>
      <point x="239" y="564"/>
      <point x="264" y="564" type="curve" smooth="yes"/>
      <point x="281" y="564"/>
      <point x="305" y="557"/>
      <point x="359" y="535" type="curve" smooth="yes"/>
      <point x="385" y="525"/>
      <point x="404" y="520"/>
      <point x="416" y="520" type="curve" smooth="yes"/>
      <point x="464" y="520"/>
      <point x="497" y="557"/>
      <point x="511" y="624" type="curve"/>
    </contour>
  </outline>
</glyph>
<glyph name="ae" format="1">
  <advance width="667"/>
  <unicode hex="00E6"/>
  <outline>
    <contour>
      <point x="588" y="113" type="line"/>
      <point x="529" y="57"/>
      <point x="489" y="36"/>
      <point x="446" y="36" type="curve" smooth="yes"/>
      <point x="400" y="36"/>
      <point x="376" y="71"/>
      <point x="376" y="137" type="curve" smooth="yes"/>
      <point x="376" y="159"/>
      <point x="378" y="170"/>
      <point x="384" y="198" type="curve"/>
      <point x="491" y="229"/>
      <point x="539" y="247"/>
      <point x="577" y="272" type="curve" smooth="yes"/>
      <point x="619" y="300"/>
      <point x="640" y="333"/>
      <point x="640" y="371" type="curve" smooth="yes"/>
      <point x="640" y="414"/>
      <point x="609" y="441"/>
      <point x="559" y="441" type="curve" smooth="yes"/>
      <point x="518" y="441"/>
      <point x="484" y="423"/>
      <point x="437" y="377" type="curve"/>
      <point x="459" y="439" type="line"/>
      <point x="388" y="437" type="line"/>
      <point x="369" y="394" type="line"/>
      <point x="353" y="430"/>
      <point x="337" y="441"/>
      <point x="303" y="441" type="curve" smooth="yes"/>
      <point x="179" y="441"/>
      <point x="23" y="241"/>
      <point x="23" y="83" type="curve" smooth="yes"/>
      <point x="23" y="28"/>
      <point x="58" y="-11"/>
      <point x="107" y="-11" type="curve" smooth="yes"/>
      <point x="171" y="-11"/>
      <point x="217" y="27"/>
      <point x="302" y="151" type="curve"/>
      <point x="298" y="135"/>
      <point x="296" y="125"/>
      <point x="296" y="111" type="curve" smooth="yes"/>
      <point x="296" y="40"/>
      <point x="340" y="-11"/>
      <point x="403" y="-11" type="curve" smooth="yes"/>
      <point x="466" y="-11"/>
      <point x="542" y="33"/>
      <point x="598" y="101" type="curve"/>
    </contour>
    <contour>
      <point x="305" y="421" type="curve" smooth="yes"/>
      <point x="332" y="420"/>
      <point x="350" y="400"/>
      <point x="350" y="370" type="curve" smooth="yes"/>
      <point x="350" y="284"/>
      <point x="295" y="158"/>
      <point x="223" y="80" type="curve" smooth="yes"/>
      <point x="200" y="55"/>
      <point x="169" y="39"/>
      <point x="143" y="39" type="curve" smooth="yes"/>
      <point x="120" y="39"/>
      <point x="107" y="61"/>
      <point x="109" y="100" type="curve" smooth="yes"/>
      <point x="116" y="246"/>
      <point x="226" y="425"/>
    </contour>
    <contour>
      <point x="390" y="223" type="curve"/>
      <point x="420" y="312"/>
      <point x="438" y="346"/>
      <point x="473" y="384" type="curve" smooth="yes"/>
      <point x="493" y="404"/>
      <point x="516" y="416"/>
      <point x="539" y="416" type="curve" smooth="yes"/>
      <point x="562" y="416"/>
      <point x="574" y="403"/>
      <point x="574" y="379" type="curve" smooth="yes"/>
      <point x="574" y="323"/>
      <point x="523" y="266"/>
      <point x="450" y="241" type="curve" smooth="yes"/>
      <point x="437" y="236"/>
      <point x="418" y="231"/>
    </contour>
  </outline>
</glyph>
<glyph name="ccedilla" format="1">
  <advance width="444"/>
  <unicode hex="00E7"/>
  <outline>
    <contour>
      <point x="168" y="-11" type="line"/>
      <point x="176" y="-11" type="line" smooth="yes"/>
      <point x="252" y="-11"/>
      <point x="306" y="19"/>
      <point x="366" y="96" type="curve"/>
      <point x="350" y="106" type="line"/>
      <point x="295" y="47"/>
      <point x="256" y="25"/>
      <point x="207" y="25" type="curve" smooth="yes"/>
      <point x="150" y="25"/>
      <point x="116" y="68"/>
      <point x="116" y="139" type="curve" smooth="yes"/>
      <point x="116" y="224"/>
      <point x="151" y="314"/>
      <point x="207" y="372" type="curve" smooth="yes"/>
      <point x="236" y="402"/>
      <point x="276" y="420"/>
      <point x="316" y="420" type="curve" smooth="yes"/>
      <point x="338" y="420"/>
      <point x="353" y="412"/>
      <point x="353" y="400" type="curve" smooth="yes"/>
      <point x="353" y="395"/>
      <point x="351" y="390"/>
      <point x="347" y="381" type="curve"/>
      <point x="340" y="368"/>
      <point x="338" y="361"/>
      <point x="338" y="352" type="curve" smooth="yes"/>
      <point x="338" y="328"/>
      <point x="353" y="314"/>
      <point x="377" y="314" type="curve" smooth="yes"/>
      <point x="404" y="314"/>
      <point x="425" y="334"/>
      <point x="425" y="360" type="curve" smooth="yes"/>
      <point x="425" y="406"/>
      <point x="380" y="441"/>
      <point x="320" y="441" type="curve" smooth="yes"/>
      <point x="170" y="441"/>
      <point x="30" y="295"/>
      <point x="30" y="139" type="curve" smooth="yes"/>
      <point x="30" y="60"/>
      <point x="66" y="10"/>
      <point x="133" y="-6" type="curve"/>
      <point x="77" y="-96" type="line"/>
      <point x="86" y="-104" type="line"/>
      <point x="100" y="-99"/>
      <point x="108" y="-97"/>
      <point x="118" y="-97" type="curve" smooth="yes"/>
      <point x="145" y="-97"/>
      <point x="164" y="-115"/>
      <point x="164" y="-141" type="curve" smooth="yes"/>
      <point x="164" y="-167"/>
      <point x="145" y="-182"/>
      <point x="111" y="-182" type="curve" smooth="yes"/>
      <point x="90" y="-182"/>
      <point x="72" y="-178"/>
      <point x="43" y="-167" type="curve"/>
      <point x="26" y="-196" type="line"/>
      <point x="68" y="-212"/>
      <point x="91" y="-217"/>
      <point x="119" y="-217" type="curve" smooth="yes"/>
      <point x="188" y="-217"/>
      <point x="238" y="-181"/>
      <point x="238" y="-131" type="curve" smooth="yes"/>
      <point x="238" y="-90"/>
      <point x="206" y="-63"/>
      <point x="156" y="-63" type="curve" smooth="yes"/>
      <point x="148" y="-63"/>
      <point x="141" y="-64"/>
      <point x="131" y="-66" type="curve"/>
    </contour>
  </outline>
</glyph>
<glyph name="igrave" format="1">
  <advance width="278"/>
  <unicode hex="00EC"/>
  <outline>
    <contour>
      <point x="222" y="114" type="line"/>
      <point x="198" y="82"/>
      <point x="191" y="74"/>
      <point x="181" y="63" type="curve" smooth="yes"/>
      <point x="164" y="46"/>
      <point x="149" y="36"/>
      <point x="140" y="36" type="curve" smooth="yes"/>
      <point x="132" y="36"/>
      <point x="124" y="44"/>
      <point x="124" y="51" type="curve" smooth="yes"/>
      <point x="124" y="61"/>
      <point x="127" y="76"/>
      <point x="134" y="95" type="curve"/>
      <point x="134" y="98"/>
      <point x="137" y="105"/>
      <point x="139" y="113" type="curve"/>
      <point x="139" y="115" type="line"/>
      <point x="140" y="117" type="line"/>
      <point x="228" y="439" type="line"/>
      <point x="225" y="441" type="line"/>
      <point x="124" y="422"/>
      <point x="104" y="419"/>
      <point x="65" y="416" type="curve"/>
      <point x="65" y="400" type="line"/>
      <point x="118" y="399"/>
      <point x="128" y="396"/>
      <point x="128" y="376" type="curve" smooth="yes"/>
      <point x="128" y="368"/>
      <point x="125" y="352"/>
      <point x="119" y="332" type="curve" smooth="yes"/>
      <point x="71" y="155" type="line" smooth="yes"/>
      <point x="55" y="97"/>
      <point x="49" y="66"/>
      <point x="49" y="46" type="curve" smooth="yes"/>
      <point x="49" y="9"/>
      <point x="65" y="-11"/>
      <point x="95" y="-11" type="curve" smooth="yes"/>
      <point x="141" y="-11"/>
      <point x="178" y="19"/>
      <point x="235" y="103" type="curve"/>
    </contour>
    <contour>
      <point x="253" y="492" type="line"/>
      <point x="284" y="492" type="line"/>
      <point x="168" y="641" type="line" smooth="yes"/>
      <point x="155" y="657"/>
      <point x="144" y="664"/>
      <point x="129" y="664" type="curve" smooth="yes"/>
      <point x="109" y="664"/>
      <point x="94" y="649"/>
      <point x="94" y="630" type="curve" smooth="yes"/>
      <point x="94" y="618"/>
      <point x="100" y="608"/>
      <point x="113" y="598" type="curve" smooth="yes"/>
    </contour>
  </outline>
</glyph>
<glyph name="iacute" format="1">
  <advance width="278"/>
  <unicode hex="00ED"/>
  <outline>
    <contour>
      <point x="222" y="114" type="line"/>
      <point x="198" y="82"/>
      <point x="191" y="74"/>
      <point x="181" y="63" type="curve" smooth="yes"/>
      <point x="164" y="46"/>
      <point x="149" y="36"/>
      <point x="140" y="36" type="curve" smooth="yes"/>
      <point x="132" y="36"/>
      <point x="124" y="44"/>
      <point x="124" y="51" type="curve" smooth="yes"/>
      <point x="124" y="61"/>
      <point x="127" y="76"/>
      <point x="134" y="95" type="curve"/>
      <point x="134" y="98"/>
      <point x="137" y="105"/>
      <point x="139" y="113" type="curve"/>
      <point x="139" y="115" type="line"/>
      <point x="140" y="117" type="line"/>
      <point x="228" y="439" type="line"/>
      <point x="225" y="441" type="line"/>
      <point x="124" y="422"/>
      <point x="104" y="419"/>
      <point x="65" y="416" type="curve"/>
      <point x="65" y="400" type="line"/>
      <point x="118" y="399"/>
      <point x="128" y="396"/>
      <point x="128" y="376" type="curve" smooth="yes"/>
      <point x="128" y="368"/>
      <point x="125" y="352"/>
      <point x="119" y="332" type="curve" smooth="yes"/>
      <point x="71" y="155" type="line" smooth="yes"/>
      <point x="55" y="97"/>
      <point x="49" y="66"/>
      <point x="49" y="46" type="curve" smooth="yes"/>
      <point x="49" y="9"/>
      <point x="65" y="-11"/>
      <point x="95" y="-11" type="curve" smooth="yes"/>
      <point x="141" y="-11"/>
      <point x="178" y="19"/>
      <point x="235" y="103" type="curve"/>
    </contour>
    <contour>
      <point x="133" y="494" type="line"/>
      <point x="168" y="494" type="line"/>
      <point x="339" y="600" type="line" smooth="yes"/>
      <point x="351" y="607"/>
      <point x="356" y="616"/>
      <point x="356" y="628" type="curve" smooth="yes"/>
      <point x="356" y="648"/>
      <point x="340" y="664"/>
      <point x="320" y="664" type="curve" smooth="yes"/>
      <point x="310" y="664"/>
      <point x="302" y="660"/>
      <point x="295" y="654" type="curve"/>
    </contour>
  </outline>
</glyph>
<glyph name="icircumflex" format="1">
  <advance width="278"/>
  <unicode hex="00EE"/>
  <outline>
    <contour>
      <point x="222" y="114" type="line"/>
      <point x="198" y="82"/>
      <point x="191" y="74"/>
      <point x="181" y="63" type="curve" smooth="yes"/>
      <point x="164" y="46"/>
      <point x="149" y="36"/>
      <point x="140" y="36" type="curve" smooth="yes"/>
      <point x="132" y="36"/>
      <point x="124" y="44"/>
      <point x="124" y="51" type="curve" smooth="yes"/>
      <point x="124" y="61"/>
      <point x="127" y="76"/>
      <point x="134" y="95" type="curve"/>
      <point x="134" y="98"/>
      <point x="137" y="105"/>
      <point x="139" y="113" type="curve"/>
      <point x="139" y="115" type="line"/>
      <point x="140" y="117" type="line"/>
      <point x="228" y="439" type="line"/>
      <point x="225" y="441" type="line"/>
      <point x="124" y="422"/>
      <point x="104" y="419"/>
      <point x="65" y="416" type="curve"/>
      <point x="65" y="400" type="line"/>
      <point x="118" y="399"/>
      <point x="128" y="396"/>
      <point x="128" y="376" type="curve" smooth="yes"/>
      <point x="128" y="368"/>
      <point x="125" y="352"/>
      <point x="119" y="332" type="curve" smooth="yes"/>
      <point x="71" y="155" type="line" smooth="yes"/>
      <point x="55" y="97"/>
      <point x="49" y="66"/>
      <point x="49" y="46" type="curve" smooth="yes"/>
      <point x="49" y="9"/>
      <point x="65" y="-11"/>
      <point x="95" y="-11" type="curve" smooth="yes"/>
      <point x="141" y="-11"/>
      <point x="178" y="19"/>
      <point x="235" y="103" type="curve"/>
    </contour>
    <contour>
      <point x="240" y="661" type="line"/>
      <point x="191" y="661" type="line"/>
      <point x="34" y="492" type="line"/>
      <point x="73" y="492" type="line"/>
      <point x="210" y="596" type="line"/>
      <point x="292" y="492" type="line"/>
      <point x="328" y="492" type="line"/>
    </contour>
  </outline>
</glyph>
<glyph name="idieresis" format="1">
  <advance width="278"/>
  <unicode hex="00EF"/>
  <outline>
    <contour>
      <point x="105" y="606" type="curve" smooth="yes"/>
      <point x="77" y="606"/>
      <point x="55" y="584"/>
      <point x="55" y="558" type="curve" smooth="yes"/>
      <point x="55" y="530"/>
      <point x="77" y="508"/>
      <point x="104" y="508" type="curve" smooth="yes"/>
      <point x="131" y="508"/>
      <point x="153" y="530"/>
      <point x="153" y="557" type="curve" smooth="yes"/>
      <point x="153" y="582"/>
      <point x="130" y="606"/>
    </contour>
    <contour>
      <point x="305" y="606" type="curve" smooth="yes"/>
      <point x="277" y="606"/>
      <point x="255" y="584"/>
      <point x="255" y="558" type="curve" smooth="yes"/>
      <point x="255" y="530"/>
      <point x="277" y="508"/>
      <point x="304" y="508" type="curve" smooth="yes"/>
      <point x="331" y="508"/>
      <point x="353" y="530"/>
      <point x="353" y="557" type="curve" smooth="yes"/>
      <point x="353" y="582"/>
      <point x="330" y="606"/>
    </contour>
    <contour>
      <point x="222" y="114" type="line"/>
      <point x="198" y="82"/>
      <point x="191" y="74"/>
      <point x="181" y="63" type="curve" smooth="yes"/>
      <point x="164" y="46"/>
      <point x="149" y="36"/>
      <point x="140" y="36" type="curve" smooth="yes"/>
      <point x="132" y="36"/>
      <point x="124" y="44"/>
      <point x="124" y="51" type="curve" smooth="yes"/>
      <point x="124" y="61"/>
      <point x="127" y="76"/>
      <point x="134" y="95" type="curve"/>
      <point x="134" y="98"/>
      <point x="137" y="105"/>
      <point x="139" y="113" type="curve"/>
      <point x="139" y="115" type="line"/>
      <point x="140" y="117" type="line"/>
      <point x="228" y="439" type="line"/>
      <point x="225" y="441" type="line"/>
      <point x="124" y="422"/>
      <point x="104" y="419"/>
      <point x="65" y="416" type="curve"/>
      <point x="65" y="400" type="line"/>
      <point x="118" y="399"/>
      <point x="128" y="396"/>
      <point x="128" y="376" type="curve" smooth="yes"/>
      <point x="128" y="368"/>
      <point x="125" y="352"/>
      <point x="119" y="332" type="curve" smooth="yes"/>
      <point x="71" y="155" type="line" smooth="yes"/>
      <point x="55" y="97"/>
      <point x="49" y="66"/>
      <point x="49" y="46" type="curve" smooth="yes"/>
      <point x="49" y="9"/>
      <point x="65" y="-11"/>
      <point x="95" y="-11" type="curve" smooth="yes"/>
      <point x="141" y="-11"/>
      <point x="178" y="19"/>
      <point x="235" y="103" type="curve"/>
    </contour>
  </outline>
</glyph>
<glyph name="ntilde" format="1">
  <advance width="500"/>
  <unicode hex="00F1"/>
  <outline>
    <contour>
      <point x="460" y="117" type="line"/>
      <point x="439" y="91" type="line" smooth="yes"/>
      <point x="410" y="54"/>
      <point x="392" y="38"/>
      <point x="378" y="38" type="curve" smooth="yes"/>
      <point x="370" y="38"/>
      <point x="362" y="46"/>
      <point x="362" y="54" type="curve" smooth="yes"/>
      <point x="362" y="61"/>
      <point x="362" y="61"/>
      <point x="376" y="117" type="curve" smooth="yes"/>
      <point x="433" y="323" type="line" smooth="yes"/>
      <point x="438" y="344"/>
      <point x="442" y="366"/>
      <point x="442" y="380" type="curve" smooth="yes"/>
      <point x="442" y="416"/>
      <point x="415" y="441"/>
      <point x="376" y="441" type="curve" smooth="yes"/>
      <point x="312" y="441"/>
      <point x="249" y="381"/>
      <point x="146" y="221" type="curve"/>
      <point x="213" y="439" type="line"/>
      <point x="210" y="441" type="line"/>
      <point x="156" y="430"/>
      <point x="135" y="426"/>
      <point x="48" y="410" type="curve"/>
      <point x="48" y="394" type="line"/>
      <point x="99" y="393"/>
      <point x="112" y="387"/>
      <point x="112" y="367" type="curve" smooth="yes"/>
      <point x="112" y="361"/>
      <point x="111" y="355"/>
      <point x="110" y="350" type="curve"/>
      <point x="14" y="0" type="line"/>
      <point x="89" y="0" type="line"/>
      <point x="136" y="158"/>
      <point x="145" y="180"/>
      <point x="189" y="248" type="curve" smooth="yes"/>
      <point x="249" y="340"/>
      <point x="300" y="390"/>
      <point x="337" y="390" type="curve" smooth="yes"/>
      <point x="352" y="390"/>
      <point x="361" y="379"/>
      <point x="361" y="361" type="curve" smooth="yes"/>
      <point x="361" y="349"/>
      <point x="355" y="316"/>
      <point x="347" y="285" type="curve" smooth="yes"/>
      <point x="303" y="120" type="line" smooth="yes"/>
      <point x="290" y="69"/>
      <point x="287" y="55"/>
      <point x="287" y="45" type="curve" smooth="yes"/>
      <point x="287" y="7"/>
      <point x="301" y="-9"/>
      <point x="334" y="-9" type="curve" smooth="yes"/>
      <point x="379" y="-9"/>
      <point x="405" y="12"/>
      <point x="474" y="104" type="curve"/>
    </contour>
    <contour>
      <point x="448" y="624" type="line"/>
      <point x="437" y="591"/>
      <point x="424" y="580"/>
      <point x="397" y="580" type="curve" smooth="yes"/>
      <point x="382" y="580"/>
      <point x="365" y="585"/>
      <point x="335" y="599" type="curve" smooth="yes"/>
      <point x="297" y="616"/>
      <point x="271" y="623"/>
      <point x="249" y="623" type="curve" smooth="yes"/>
      <point x="197" y="623"/>
      <point x="169" y="594"/>
      <point x="149" y="517" type="curve"/>
      <point x="178" y="517" type="line"/>
      <point x="188" y="549"/>
      <point x="204" y="564"/>
      <point x="229" y="564" type="curve" smooth="yes"/>
      <point x="246" y="564"/>
      <point x="270" y="557"/>
      <point x="324" y="535" type="curve" smooth="yes"/>
      <point x="350" y="525"/>
      <point x="369" y="520"/>
      <point x="381" y="520" type="curve" smooth="yes"/>
      <point x="429" y="520"/>
      <point x="462" y="557"/>
      <point x="476" y="624" type="curve"/>
    </contour>
  </outline>
</glyph>
<glyph name="ograve" format="1">
  <advance width="500"/>
  <unicode hex="00F2"/>
  <outline>
    <contour>
      <point x="325" y="441" type="curve" smooth="yes"/>
      <point x="175" y="441"/>
      <point x="27" y="286"/>
      <point x="27" y="129" type="curve" smooth="yes"/>
      <point x="27" y="43"/>
      <point x="83" y="-11"/>
      <point x="174" y="-11" type="curve" smooth="yes"/>
      <point x="240" y="-11"/>
      <point x="304" y="19"/>
      <point x="362" y="76" type="curve" smooth="yes"/>
      <point x="428" y="141"/>
      <point x="468" y="226"/>
      <point x="468" y="301" type="curve" smooth="yes"/>
      <point x="468" y="384"/>
      <point x="410" y="441"/>
    </contour>
    <contour>
      <point x="313" y="420" type="curve" smooth="yes"/>
      <point x="356" y="420"/>
      <point x="384" y="383"/>
      <point x="384" y="326" type="curve" smooth="yes"/>
      <point x="384" y="253"/>
      <point x="351" y="153"/>
      <point x="307" y="88" type="curve" smooth="yes"/>
      <point x="270" y="35"/>
      <point x="232" y="10"/>
      <point x="189" y="10" type="curve" smooth="yes"/>
      <point x="142" y="10"/>
      <point x="111" y="46"/>
      <point x="111" y="101" type="curve" smooth="yes"/>
      <point x="111" y="175"/>
      <point x="140" y="263"/>
      <point x="189" y="334" type="curve" smooth="yes"/>
      <point x="228" y="390"/>
      <point x="270" y="420"/>
    </contour>
    <contour>
      <point x="363" y="492" type="line"/>
      <point x="394" y="492" type="line"/>
      <point x="278" y="641" type="line" smooth="yes"/>
      <point x="265" y="657"/>
      <point x="254" y="664"/>
      <point x="239" y="664" type="curve" smooth="yes"/>
      <point x="219" y="664"/>
      <point x="204" y="649"/>
      <point x="204" y="630" type="curve" smooth="yes"/>
      <point x="204" y="618"/>
      <point x="210" y="608"/>
      <point x="223" y="598" type="curve" smooth="yes"/>
    </contour>
  </outline>
</glyph>
<glyph name="ocircumflex" format="1">
  <advance width="500"/>
  <unicode hex="00F4"/>
  <outline>
    <contour>
      <point x="325" y="441" type="curve" smooth="yes"/>
      <point x="175" y="441"/>
      <point x="27" y="286"/>
      <point x="27" y="129" type="curve" smooth="yes"/>
      <point x="27" y="43"/>
      <point x="83" y="-11"/>
      <point x="174" y="-11" type="curve" smooth="yes"/>
      <point x="240" y="-11"/>
      <point x="304" y="19"/>
      <point x="362" y="76" type="curve" smooth="yes"/>
      <point x="428" y="141"/>
      <point x="468" y="226"/>
      <point x="468" y="301" type="curve" smooth="yes"/>
      <point x="468" y="384"/>
      <point x="410" y="441"/>
    </contour>
    <contour>
      <point x="313" y="420" type="curve" smooth="yes"/>
      <point x="356" y="420"/>
      <point x="384" y="383"/>
      <point x="384" y="326" type="curve" smooth="yes"/>
      <point x="384" y="253"/>
      <point x="351" y="153"/>
      <point x="307" y="88" type="curve" smooth="yes"/>
      <point x="270" y="35"/>
      <point x="232" y="10"/>
      <point x="189" y="10" type="curve" smooth="yes"/>
      <point x="142" y="10"/>
      <point x="111" y="46"/>
      <point x="111" y="101" type="curve" smooth="yes"/>
      <point x="111" y="175"/>
      <point x="140" y="263"/>
      <point x="189" y="334" type="curve" smooth="yes"/>
      <point x="228" y="390"/>
      <point x="270" y="420"/>
    </contour>
    <contour>
      <point x="370" y="661" type="line"/>
      <point x="321" y="661" type="line"/>
      <point x="164" y="492" type="line"/>
      <point x="203" y="492" type="line"/>
      <point x="340" y="596" type="line"/>
      <point x="422" y="492" type="line"/>
      <point x="458" y="492" type="line"/>
    </contour>
  </outline>
</glyph>
<glyph name="otilde" format="1">
  <advance width="500"/>
  <unicode hex="00F5"/>
  <outline>
    <contour>
      <point x="325" y="441" type="curve" smooth="yes"/>
      <point x="175" y="441"/>
      <point x="27" y="286"/>
      <point x="27" y="129" type="curve" smooth="yes"/>
      <point x="27" y="43"/>
      <point x="83" y="-11"/>
      <point x="174" y="-11" type="curve" smooth="yes"/>
      <point x="240" y="-11"/>
      <point x="304" y="19"/>
      <point x="362" y="76" type="curve" smooth="yes"/>
      <point x="428" y="141"/>
      <point x="468" y="226"/>
      <point x="468" y="301" type="curve" smooth="yes"/>
      <point x="468" y="384"/>
      <point x="410" y="441"/>
    </contour>
    <contour>
      <point x="313" y="420" type="curve" smooth="yes"/>
      <point x="356" y="420"/>
      <point x="384" y="383"/>
      <point x="384" y="326" type="curve" smooth="yes"/>
      <point x="384" y="253"/>
      <point x="351" y="153"/>
      <point x="307" y="88" type="curve" smooth="yes"/>
      <point x="270" y="35"/>
      <point x="232" y="10"/>
      <point x="189" y="10" type="curve" smooth="yes"/>
      <point x="142" y="10"/>
      <point x="111" y="46"/>
      <point x="111" y="101" type="curve" smooth="yes"/>
      <point x="111" y="175"/>
      <point x="140" y="263"/>
      <point x="189" y="334" type="curve" smooth="yes"/>
      <point x="228" y="390"/>
      <point x="270" y="420"/>
    </contour>
    <contour>
      <point x="468" y="624" type="line"/>
      <point x="457" y="591"/>
      <point x="444" y="580"/>
      <point x="417" y="580" type="curve" smooth="yes"/>
      <point x="402" y="580"/>
      <point x="385" y="585"/>
      <point x="355" y="599" type="curve" smooth="yes"/>
      <point x="317" y="616"/>
      <point x="291" y="623"/>
      <point x="269" y="623" type="curve" smooth="yes"/>
      <point x="217" y="623"/>
      <point x="189" y="594"/>
      <point x="169" y="517" type="curve"/>
      <point x="198" y="517" type="line"/>
      <point x="208" y="549"/>
      <point x="224" y="564"/>
      <point x="249" y="564" type="curve" smooth="yes"/>
      <point x="266" y="564"/>
      <point x="290" y="557"/>
      <point x="344" y="535" type="curve" smooth="yes"/>
      <point x="370" y="525"/>
      <point x="389" y="520"/>
      <point x="401" y="520" type="curve" smooth="yes"/>
      <point x="449" y="520"/>
      <point x="482" y="557"/>
      <point x="496" y="624" type="curve"/>
    </contour>
  </outline>
</glyph>
